<svg width="32" height="32" viewBox="0 0 32 32" fill="none" xmlns="http://www.w3.org/2000/svg">
<path d="M6.6439 9.59639C8.25509 9.59639 9.56123 8.29025 9.56123 6.67905C9.56123 5.06785 8.25509 3.76172 6.6439 3.76172C5.0327 3.76172 3.72656 5.06785 3.72656 6.67905C3.72656 8.29025 5.0327 9.59639 6.6439 9.59639Z" fill="#FFB13C"/>
<path d="M12.3158 11.8062V27.9916H17.3411V19.9876C17.3411 17.8756 17.7385 15.8302 20.3571 15.8302C22.9398 15.8302 22.9718 18.2449 22.9718 20.1209V27.9929H27.9998V19.1169C27.9998 14.7569 27.0611 11.4062 21.9651 11.4062C19.5185 11.4062 17.8785 12.7489 17.2078 14.0196H17.1398V11.8062H12.3158ZM4.12646 11.8062H9.1598V27.9916H4.12646V11.8062Z" fill="#FFB13C"/>
</svg>
