<svg width="32" height="32" viewBox="0 0 32 32" fill="none" xmlns="http://www.w3.org/2000/svg">
<path d="M6.6439 9.59639C8.25509 9.59639 9.56123 8.29025 9.56123 6.67905C9.56123 5.06785 8.25509 3.76172 6.6439 3.76172C5.0327 3.76172 3.72656 5.06785 3.72656 6.67905C3.72656 8.29025 5.0327 9.59639 6.6439 9.59639Z" fill="#716FFF"/>
<path d="M12.3163 11.8062V27.9916H17.3416V19.9876C17.3416 17.8756 17.739 15.8302 20.3576 15.8302C22.9403 15.8302 22.9723 18.2449 22.9723 20.1209V27.9929H28.0003V19.1169C28.0003 14.7569 27.0616 11.4062 21.9656 11.4062C19.519 11.4062 17.879 12.7489 17.2083 14.0196H17.1403V11.8062H12.3163ZM4.12695 11.8062H9.16029V27.9916H4.12695V11.8062Z" fill="#716FFF"/>
</svg>
