<svg width="78" height="78" viewBox="0 0 78 78" fill="none" xmlns="http://www.w3.org/2000/svg">
<path d="M21.9375 17.0625C23.2837 17.0625 24.375 15.9712 24.375 14.625C24.375 13.2788 23.2837 12.1875 21.9375 12.1875C20.5913 12.1875 19.5 13.2788 19.5 14.625C19.5 15.9712 20.5913 17.0625 21.9375 17.0625Z" fill="black"/>
<path d="M63.375 24.375H14.625C13.3325 24.3737 12.0932 23.8597 11.1793 22.9457C10.2653 22.0318 9.75129 20.7925 9.75 19.5V9.75C9.75129 8.45747 10.2653 7.21824 11.1793 6.30428C12.0932 5.39032 13.3325 4.87629 14.625 4.875H63.375C64.6675 4.87629 65.9068 5.39032 66.8207 6.30428C67.7347 7.21824 68.2487 8.45747 68.25 9.75V19.5C68.2487 20.7925 67.7347 22.0318 66.8207 22.9457C65.9068 23.8597 64.6675 24.3737 63.375 24.375ZM14.625 9.75V19.5H63.375V9.75H14.625Z" fill="black"/>
<path d="M21.9375 41.4375C23.2837 41.4375 24.375 40.3462 24.375 39C24.375 37.6538 23.2837 36.5625 21.9375 36.5625C20.5913 36.5625 19.5 37.6538 19.5 39C19.5 40.3462 20.5913 41.4375 21.9375 41.4375Z" fill="black"/>
<path d="M63.375 48.75H14.625C13.3325 48.7487 12.0932 48.2347 11.1793 47.3207C10.2653 46.4068 9.75129 45.1675 9.75 43.875V34.125C9.75129 32.8325 10.2653 31.5932 11.1793 30.6793C12.0932 29.7653 13.3325 29.2513 14.625 29.25H63.375C64.6675 29.2513 65.9068 29.7653 66.8207 30.6793C67.7347 31.5932 68.2487 32.8325 68.25 34.125V43.875C68.2487 45.1675 67.7347 46.4068 66.8207 47.3207C65.9068 48.2347 64.6675 48.7487 63.375 48.75ZM14.625 34.125V43.875H63.375V34.125H14.625Z" fill="black"/>
<path d="M21.9375 65.8125C23.2837 65.8125 24.375 64.7212 24.375 63.375C24.375 62.0288 23.2837 60.9375 21.9375 60.9375C20.5913 60.9375 19.5 62.0288 19.5 63.375C19.5 64.7212 20.5913 65.8125 21.9375 65.8125Z" fill="black"/>
<path d="M63.375 73.125H14.625C13.3325 73.1237 12.0932 72.6097 11.1793 71.6957C10.2653 70.7818 9.75129 69.5425 9.75 68.25V58.5C9.75129 57.2075 10.2653 55.9682 11.1793 55.0543C12.0932 54.1403 13.3325 53.6263 14.625 53.625H63.375C64.6675 53.6263 65.9068 54.1403 66.8207 55.0543C67.7347 55.9682 68.2487 57.2075 68.25 58.5V68.25C68.2487 69.5425 67.7347 70.7818 66.8207 71.6957C65.9068 72.6097 64.6675 73.1237 63.375 73.125ZM14.625 58.5V68.25H63.375V58.5H14.625Z" fill="black"/>
</svg>
