<svg width="32" height="32" viewBox="0 0 32 32" fill="none" xmlns="http://www.w3.org/2000/svg">
<path d="M16.0083 25.3497H15.9817C15.899 25.3497 7.62833 25.3337 5.54166 24.767C4.97785 24.6151 4.46382 24.3178 4.05105 23.9048C3.63828 23.4918 3.34123 22.9776 3.18966 22.4137C2.81444 20.2968 2.63325 18.1501 2.64833 16.0003C2.63864 13.847 2.82474 11.6973 3.20433 9.57766C3.36018 9.01282 3.6586 8.49753 4.07093 8.08122C4.48327 7.66492 4.99568 7.36158 5.559 7.20033C7.58833 6.66699 15.631 6.66699 15.9723 6.66699H16.0003C16.0843 6.66699 24.3763 6.68299 26.4417 7.24966C27.587 7.56033 28.4817 8.45499 28.791 9.60033C29.1777 11.7257 29.3603 13.8817 29.3337 16.0417C29.343 18.1924 29.1565 20.3395 28.7763 22.4563C28.6228 23.0196 28.3245 23.5329 27.9112 23.9453C27.4979 24.3577 26.984 24.6547 26.4203 24.807C24.3937 25.3443 16.3497 25.3497 16.0083 25.3497ZM13.3417 12.007L13.335 20.007L20.2843 16.007L13.3417 12.007Z" fill="black"/>
</svg>
