<svg width="32" height="32" viewBox="0 0 32 32" fill="none" xmlns="http://www.w3.org/2000/svg">
<path d="M16.0078 25.3497H15.9812C15.8985 25.3497 7.62784 25.3337 5.54118 24.767C4.97736 24.6151 4.46334 24.3178 4.05056 23.9048C3.63779 23.4918 3.34075 22.9776 3.18918 22.4137C2.81395 20.2968 2.63276 18.1501 2.64784 16.0003C2.63816 13.847 2.82425 11.6973 3.20384 9.57766C3.3597 9.01282 3.65811 8.49753 4.07044 8.08122C4.48278 7.66492 4.99519 7.36158 5.55851 7.20033C7.58784 6.66699 15.6305 6.66699 15.9718 6.66699H15.9998C16.0838 6.66699 24.3758 6.68299 26.4412 7.24966C27.5865 7.56033 28.4812 8.45499 28.7905 9.60033C29.1772 11.7257 29.3598 13.8817 29.3332 16.0417C29.3425 18.1924 29.156 20.3395 28.7758 22.4563C28.6223 23.0196 28.3241 23.5329 27.9108 23.9453C27.4975 24.3577 26.9835 24.6547 26.4198 24.807C24.3932 25.3443 16.3492 25.3497 16.0078 25.3497ZM13.3412 12.007L13.3345 20.007L20.2838 16.007L13.3412 12.007Z" fill="#FFB13C"/>
</svg>
