<svg width="38" height="38" viewBox="0 0 38 38" fill="none" xmlns="http://www.w3.org/2000/svg">
<path d="M16.6249 26.061C15.8016 25.9696 14.9917 25.7823 14.2119 25.5028C14.2356 24.9423 14.2499 24.3581 14.2499 23.7501V23.5601V22.9497C14.9861 23.3012 15.7865 23.5458 16.6249 23.667V17.8126C16.6249 16.8678 17.0002 15.9616 17.6683 15.2935C18.3364 14.6254 19.2426 14.2501 20.1874 14.2501H26.0418C25.8524 12.9341 25.35 11.6827 24.577 10.601C23.8039 9.51924 22.7826 8.63874 21.5988 8.03336C20.4151 7.42798 19.1034 7.1154 17.7738 7.12183C16.4442 7.12827 15.1356 7.45354 13.9578 8.07035C13.7699 7.29356 13.4605 6.55133 13.041 5.8711C14.5807 5.10261 16.2831 4.71725 18.0036 4.74778C19.7241 4.7783 21.4118 5.22382 22.9232 6.04644C24.4346 6.86906 25.725 8.04447 26.6848 9.47274C27.6445 10.901 28.2452 12.5399 28.4358 14.2501H32.0624C33.0072 14.2501 33.9134 14.6254 34.5815 15.2935C35.2496 15.9616 35.6249 16.8678 35.6249 17.8126V29.6876C35.6249 30.6324 35.2496 31.5386 34.5815 32.2067C33.9134 32.8748 33.0072 33.2501 32.0624 33.2501H20.1874C19.2426 33.2501 18.3364 32.8748 17.6683 32.2067C17.0002 31.5386 16.6249 30.6324 16.6249 29.6876V26.061ZM28.4358 16.6251C28.1659 19.0348 27.085 21.2812 25.3705 22.9957C23.656 24.7103 21.4096 25.7911 18.9999 26.061V29.6876C18.9999 30.0025 19.125 30.3046 19.3477 30.5273C19.5704 30.75 19.8724 30.8751 20.1874 30.8751H32.0624C32.3773 30.8751 32.6794 30.75 32.9021 30.5273C33.1248 30.3046 33.2499 30.0025 33.2499 29.6876V17.8126C33.2499 17.4977 33.1248 17.1956 32.9021 16.9729C32.6794 16.7502 32.3773 16.6251 32.0624 16.6251H28.4358ZM26.0418 16.6251H20.1874C19.8724 16.6251 19.5704 16.7502 19.3477 16.9729C19.125 17.1956 18.9999 17.4977 18.9999 17.8126V23.667C20.7763 23.4102 22.4221 22.5856 23.6912 21.3165C24.9604 20.0473 25.785 18.4015 26.0418 16.6251Z" fill="black"/>
<path d="M11.3881 17.9575C11.1388 17.0408 10.735 16.1216 10.0415 15.4163C11.1625 14.3546 11.875 12.6636 11.875 10.6876C11.875 9.03227 11.5401 7.89465 10.9345 6.98502C10.6658 6.59379 10.3552 6.23304 10.0083 5.90915C9.87528 5.78077 9.74069 5.6541 9.6045 5.52915C9.45963 5.39377 9.32663 5.27027 9.15325 5.0969C8.797 4.74065 8.75663 4.45565 8.75663 4.30602C8.75702 4.22285 8.77065 4.14028 8.797 4.0614C8.90559 3.82657 8.93451 3.56271 8.87938 3.30993C8.82425 3.05716 8.68807 2.82931 8.49156 2.66102C8.29506 2.49274 8.04897 2.39324 7.79072 2.37765C7.53247 2.36206 7.2762 2.43123 7.06087 2.57465L7.05612 2.57702L7.049 2.58177L7.02763 2.59602L6.95637 2.64352C6.60012 2.89762 6.2569 3.16951 5.928 3.45815C5.33425 3.98302 4.56 4.75965 4.01138 5.6859C3.53246 6.4538 3.14809 7.27677 2.86663 8.1369C2.58163 8.98952 2.375 9.9134 2.375 10.6876C2.375 12.6636 3.0875 14.3523 4.2085 15.4186C3.515 16.1216 3.11125 17.0408 2.86188 17.9599C2.375 19.7459 2.375 21.9546 2.375 23.6623V23.7501C2.375 28.6379 3.28937 31.5401 4.32487 33.2668C4.845 34.1313 5.3865 34.6894 5.84013 35.0409C6.08184 35.2294 6.34489 35.3889 6.62388 35.5159C6.78521 35.5748 6.95379 35.6115 7.125 35.6251C7.3245 35.6251 7.62612 35.5159 7.62612 35.5159C7.90511 35.3889 8.16816 35.2294 8.40987 35.0409C8.86112 34.6894 9.40737 34.1313 9.92512 33.2668C10.9606 31.5425 11.875 28.6379 11.875 23.7501V23.6646C11.875 21.9546 11.875 19.7483 11.3881 17.9575ZM5.90663 17.0788C6.175 16.808 6.53363 16.6251 7.125 16.6251C7.71875 16.6251 8.075 16.8104 8.34338 17.0764C8.64262 17.378 8.9015 17.8673 9.09625 18.5821C9.4905 20.0333 9.5 21.938 9.5 23.7501C9.5 28.3624 8.63313 30.8039 7.88738 32.046C7.60238 32.521 7.334 32.8274 7.125 33.0198C6.82638 32.7326 6.56973 32.4048 6.36262 32.046C5.61687 30.8015 4.75 28.3624 4.75 23.7501C4.75 21.938 4.7595 20.0333 5.15375 18.5821C5.3485 17.8696 5.60737 17.378 5.90663 17.0764V17.0788ZM7.125 14.2501C6.21062 14.2501 4.75 13.2336 4.75 10.6876C4.75 10.2768 4.8735 9.62602 5.1205 8.88977C5.34559 8.19469 5.65591 7.53018 6.04438 6.9114C6.251 6.56227 6.51938 6.22265 6.80913 5.91152C6.973 6.20127 7.18913 6.4934 7.47413 6.7784C7.6475 6.95177 7.87312 7.16077 8.0655 7.34127L8.36 7.61677C8.60938 7.85902 8.80175 8.0704 8.95612 8.30552C9.24112 8.73065 9.5 9.37427 9.5 10.6876C9.5 13.2336 8.03937 14.2501 7.125 14.2501Z" fill="black"/>
</svg>
