<svg width="32" height="32" viewBox="0 0 32 32" fill="none" xmlns="http://www.w3.org/2000/svg">
<path d="M15.9998 2.59961C8.63984 2.59961 2.6665 8.57294 2.6665 15.9329C2.6665 23.2929 8.63984 29.2663 15.9998 29.2663H22.6665V26.5996H15.9998C10.2132 26.5996 5.33317 21.7196 5.33317 15.9329C5.33317 10.1463 10.2132 5.26628 15.9998 5.26628C21.7865 5.26628 26.6665 10.1463 26.6665 15.9329V17.8396C26.6665 18.8929 25.7198 19.9329 24.6665 19.9329C23.6132 19.9329 22.6665 18.8929 22.6665 17.8396V15.9329C22.6665 12.2529 19.6798 9.26628 15.9998 9.26628C12.3198 9.26628 9.33317 12.2529 9.33317 15.9329C9.33317 19.6129 12.3198 22.5996 15.9998 22.5996C17.8398 22.5996 19.5198 21.8529 20.7198 20.6396C21.5865 21.8263 23.0798 22.5996 24.6665 22.5996C27.2932 22.5996 29.3332 20.4663 29.3332 17.8396V15.9329C29.3332 8.57294 23.3598 2.59961 15.9998 2.59961ZM15.9998 19.9329C13.7865 19.9329 11.9998 18.1463 11.9998 15.9329C11.9998 13.7196 13.7865 11.9329 15.9998 11.9329C18.2132 11.9329 19.9998 13.7196 19.9998 15.9329C19.9998 18.1463 18.2132 19.9329 15.9998 19.9329Z" fill="#F03E3E"/>
</svg>
