<svg width="32" height="32" viewBox="0 0 32 32" fill="none" xmlns="http://www.w3.org/2000/svg">
<path d="M16.0003 2.59961C8.64033 2.59961 2.66699 8.57294 2.66699 15.9329C2.66699 23.2929 8.64033 29.2663 16.0003 29.2663H22.667V26.5996H16.0003C10.2137 26.5996 5.33366 21.7196 5.33366 15.9329C5.33366 10.1463 10.2137 5.26628 16.0003 5.26628C21.787 5.26628 26.667 10.1463 26.667 15.9329V17.8396C26.667 18.8929 25.7203 19.9329 24.667 19.9329C23.6137 19.9329 22.667 18.8929 22.667 17.8396V15.9329C22.667 12.2529 19.6803 9.26628 16.0003 9.26628C12.3203 9.26628 9.33366 12.2529 9.33366 15.9329C9.33366 19.6129 12.3203 22.5996 16.0003 22.5996C17.8403 22.5996 19.5203 21.8529 20.7203 20.6396C21.587 21.8263 23.0803 22.5996 24.667 22.5996C27.2937 22.5996 29.3337 20.4663 29.3337 17.8396V15.9329C29.3337 8.57294 23.3603 2.59961 16.0003 2.59961ZM16.0003 19.9329C13.787 19.9329 12.0003 18.1463 12.0003 15.9329C12.0003 13.7196 13.787 11.9329 16.0003 11.9329C18.2137 11.9329 20.0003 13.7196 20.0003 15.9329C20.0003 18.1463 18.2137 19.9329 16.0003 19.9329Z" fill="#716FFF"/>
</svg>
