<svg width="40" height="40" viewBox="0 0 40 40" fill="none" xmlns="http://www.w3.org/2000/svg">
<path d="M8.75 3.75V10.5862L9.21875 10.9763L14.2575 15H10.43L5.7425 11.4838L4.2575 13.5162L9.57 17.5H14.0238L9.53125 21.25H3.75V23.75H10.4688L10.7812 23.4762L12.5387 22.0312C12.5288 22.1875 12.5 22.3388 12.5 22.5C12.5 22.72 12.52 22.94 12.5387 23.1637L7.85125 27.8512L7.5 28.2425V36.25H10V29.2962L13.2037 26.0938C13.545 27.0362 13.9788 27.9688 14.5312 28.8288C15.7913 30.785 17.6362 32.5 20 32.5C22.3625 32.5 24.2087 30.7863 25.4688 28.8275C26.0115 27.9683 26.4572 27.0514 26.7975 26.0938L30 29.2975V36.25H32.5V28.2425L32.1488 27.8512L27.4613 23.1637C27.48 22.9387 27.5 22.72 27.5 22.5C27.5 22.3487 27.4713 22.2162 27.4613 22.07L29.2188 23.4762L29.57 23.75H36.25V21.25H30.43L25.7425 17.5H30.43L35.7425 13.515L34.2575 11.485L29.57 15H25.7425L30.7812 10.9763L31.25 10.5875V3.75H28.75V9.41375L24.8438 12.5387C24.6488 11.7638 24.2575 11.0938 23.75 10.5075V6.25H21.25V8.945C20.85 8.8425 20.43 8.75 20 8.75C19.57 8.75 19.15 8.8425 18.75 8.945V6.25H16.25V10.5075C15.7425 11.0938 15.3512 11.7625 15.1562 12.5387L11.25 9.41375V3.75H8.75ZM20 11.25C21.3962 11.25 22.5 12.3538 22.5 13.75C22.5 15.1462 21.3962 16.25 20 16.25C18.6038 16.25 17.5 15.1462 17.5 13.75C17.5 12.3538 18.6038 11.25 20 11.25ZM20 18.75C21.5375 18.75 22.8325 19.1213 23.6725 19.7262C24.51 20.3325 25 21.1138 25 22.5C25 23.8875 24.36 25.9425 23.3587 27.5C22.3587 29.0575 21.0837 30 20 30C18.9163 30 17.6413 29.0575 16.64 27.5C15.64 25.9425 15 23.8875 15 22.5C15 21.1125 15.4875 20.3325 16.3287 19.7262C17.1662 19.1213 18.4625 18.75 20 18.75Z" fill="#FFB13C"/>
</svg>
