<svg width="593" height="593" viewBox="0 0 593 593" fill="none" xmlns="http://www.w3.org/2000/svg">
<path d="M295.373 570.039C450.335 570.039 575.957 497.511 575.957 408.043C575.957 318.576 450.335 246.048 295.373 246.048C140.411 246.048 14.7891 318.576 14.7891 408.043C14.7891 497.511 140.411 570.039 295.373 570.039Z" fill="#F0F0F0"/>
<path d="M456.206 508.082C479.203 508.082 497.846 497.319 497.846 484.042C497.846 470.765 479.203 460.002 456.206 460.002C433.209 460.002 414.565 470.765 414.565 484.042C414.565 497.319 433.209 508.082 456.206 508.082Z" fill="#E0E0E0"/>
<path d="M78.2756 457.262L31.6895 430.376C30.041 429.427 30.041 427.885 31.6895 426.936L288.364 278.71C289.284 278.248 290.299 278.007 291.329 278.007C292.358 278.007 293.374 278.248 294.294 278.71L340.868 305.597C342.505 306.545 342.505 308.087 340.868 309.036L84.2056 457.262C83.2861 457.726 82.2705 457.968 81.2406 457.968C80.2107 457.968 79.1951 457.726 78.2756 457.262Z" fill="#E0E0E0"/>
<path d="M239.797 415.159L277.299 393.479C281.165 391.238 283.098 388.32 283.098 385.391C283.098 382.461 283.098 380.172 283.098 380.172L237.995 354.614C236.909 353.902 236.005 352.945 235.356 351.82C234.708 350.696 234.332 349.435 234.259 348.138V301.884L168.756 339.73V385.984C168.831 387.278 169.208 388.537 169.856 389.659C170.505 390.782 171.408 391.736 172.492 392.447L211.808 415.147C219.54 419.619 232.076 419.619 239.797 415.159Z" fill="black"/>
<g opacity="0.5">
<path opacity="0.5" d="M239.797 415.159L277.299 393.479C281.165 391.238 283.098 388.32 283.098 385.391C283.098 382.461 283.098 380.172 283.098 380.172L237.995 354.614C236.909 353.902 236.005 352.945 235.356 351.82C234.708 350.696 234.332 349.435 234.259 348.138V301.884L168.756 339.73V385.984C168.831 387.278 169.208 388.537 169.856 389.659C170.505 390.782 171.408 391.736 172.492 392.447L211.808 415.147C219.54 419.619 232.076 419.619 239.797 415.159Z" fill="#474759"/>
</g>
<path d="M184.482 394.179V399.374L172.48 392.459C171.394 391.747 170.491 390.79 169.842 389.666C169.193 388.541 168.817 387.28 168.744 385.984V339.73L181.233 332.531C181.482 335.697 181.766 338.971 182.027 342.161L173.275 347.225V383.351C173.342 384.646 173.714 385.906 174.361 387.03C175.008 388.153 175.912 389.107 176.999 389.815L184.482 394.179Z" fill="black"/>
<path opacity="0.7" d="M184.482 394.179V399.374L172.48 392.459C171.394 391.747 170.491 390.79 169.842 389.666C169.193 388.541 168.817 387.28 168.744 385.984V339.73L181.233 332.531C181.482 335.697 181.766 338.971 182.027 342.161L173.275 347.225V383.351C173.342 384.646 173.714 385.906 174.361 387.03C175.008 388.153 175.912 389.107 176.999 389.815L184.482 394.179Z" fill="#474759"/>
<path d="M173.274 383.386C173.344 384.682 173.718 385.943 174.367 387.066C175.017 388.189 175.922 389.143 177.01 389.85L211.796 409.941C219.528 414.412 232.064 414.412 239.797 409.941L277.322 388.261C285.055 383.801 285.055 376.567 277.322 372.107L242.513 352.005C241.425 351.298 240.519 350.344 239.87 349.221C239.221 348.098 238.846 346.837 238.777 345.541V309.416L173.274 347.261V383.386Z" fill="black"/>
<path opacity="0.3" d="M173.274 383.386C173.344 384.682 173.718 385.943 174.367 387.066C175.017 388.189 175.922 389.143 177.01 389.85L211.796 409.941C219.528 414.412 232.064 414.412 239.797 409.941L277.322 388.261C285.055 383.801 285.055 376.567 277.322 372.107L242.513 352.005C241.425 351.298 240.519 350.344 239.87 349.221C239.221 348.098 238.846 346.837 238.777 345.541V309.416L173.274 347.261V383.386Z" fill="#474759"/>
<path opacity="0.7" d="M250.115 356.405L242.513 352.017C241.425 351.31 240.519 350.356 239.87 349.233C239.221 348.109 238.846 346.849 238.777 345.553V309.416L173.274 347.261V383.386C173.344 384.682 173.718 385.943 174.367 387.066C175.017 388.189 175.922 389.143 177.01 389.85L184.482 394.167L250.115 356.405Z" fill="black"/>
<path opacity="0.6" d="M250.115 356.405L242.513 352.017C241.425 351.31 240.519 350.356 239.87 349.233C239.221 348.109 238.846 346.849 238.777 345.553V309.416L173.274 347.261V383.386C173.344 384.682 173.718 385.943 174.367 387.066C175.017 388.189 175.922 389.143 177.01 389.85L184.482 394.167L250.115 356.405Z" fill="#474759"/>
<path d="M283.109 380.184V385.45C283.109 388.379 281.164 391.285 277.31 393.527L239.809 415.1C235.699 417.301 231.105 418.443 226.442 418.421V413.226C231.105 413.248 235.699 412.107 239.809 409.905L277.31 388.213C281.164 386.043 283.109 383.078 283.109 380.184Z" fill="black"/>
<path opacity="0.2" d="M283.109 380.184V385.45C283.109 388.379 281.164 391.285 277.31 393.527L239.809 415.1C235.699 417.301 231.105 418.443 226.442 418.421V413.226C231.105 413.248 235.699 412.107 239.809 409.905L277.31 388.213C281.164 386.043 283.109 383.078 283.109 380.184Z" fill="#474759"/>
<path d="M68.0989 433.27C69.5145 433.954 71.0712 434.295 72.6433 434.266C74.2153 434.237 75.7584 433.839 77.148 433.103L330.454 286.858C331.811 285.969 332.939 284.774 333.749 283.369C334.559 281.964 335.027 280.389 335.115 278.769V57.0585C335.06 55.4884 334.635 53.9535 333.874 52.5789C333.114 51.2042 332.039 50.0286 330.739 49.1478C329.326 48.4611 327.771 48.1181 326.2 48.1469C324.629 48.1758 323.088 48.5757 321.701 49.3139L68.3954 195.56C67.0376 196.444 65.9078 197.636 65.0979 199.04C64.288 200.443 63.8208 202.018 63.7344 203.636V425.418C63.8027 426.976 64.2326 428.496 64.9901 429.859C65.7476 431.222 66.812 432.389 68.0989 433.27Z" fill="black"/>
<path opacity="0.3" d="M68.0989 433.27C69.5145 433.954 71.0712 434.295 72.6433 434.266C74.2153 434.237 75.7584 433.839 77.148 433.103L330.454 286.858C331.811 285.969 332.939 284.774 333.749 283.369C334.559 281.964 335.027 280.389 335.115 278.769V57.0585C335.06 55.4884 334.635 53.9535 333.874 52.5789C333.114 51.2042 332.039 50.0286 330.739 49.1478C329.326 48.4611 327.771 48.1181 326.2 48.1469C324.629 48.1758 323.088 48.5757 321.701 49.3139L68.3954 195.56C67.0376 196.444 65.9078 197.636 65.0979 199.04C64.288 200.443 63.8208 202.018 63.7344 203.636V425.418C63.8027 426.976 64.2326 428.496 64.9901 429.859C65.7476 431.222 66.812 432.389 68.0989 433.27Z" fill="#474759"/>
<path d="M77.1493 433.092L330.455 286.846C331.814 285.962 332.946 284.77 333.758 283.367C334.57 281.963 335.039 280.388 335.128 278.769V57.0466C335.128 54.0697 333.029 52.8719 330.455 54.3544L77.1493 200.6C75.7863 201.493 74.6537 202.696 73.8437 204.109C73.0338 205.523 72.5693 207.109 72.4883 208.736V430.399C72.4883 433.376 74.5756 434.586 77.1493 433.092Z" fill="black"/>
<path d="M77.1493 433.092L330.455 286.846C331.814 285.962 332.946 284.77 333.758 283.367C334.57 281.963 335.039 280.388 335.128 278.769V57.0466C335.128 54.0697 333.029 52.8719 330.455 54.3544L77.1493 200.6C75.7863 201.493 74.6537 202.696 73.8437 204.109C73.0338 205.523 72.5693 207.109 72.4883 208.736V430.399C72.4883 433.376 74.5756 434.586 77.1493 433.092Z" fill="black"/>
<path opacity="0.5" d="M77.1493 433.092L330.455 286.846C331.814 285.962 332.946 284.77 333.758 283.367C334.57 281.963 335.039 280.388 335.128 278.769V57.0466C335.128 54.0697 333.029 52.8719 330.455 54.3544L77.1493 200.6C75.7863 201.493 74.6537 202.696 73.8437 204.109C73.0338 205.523 72.5693 207.109 72.4883 208.736V430.399C72.4883 433.376 74.5756 434.586 77.1493 433.092Z" fill="#474759"/>
<path d="M76.4615 433.447C75.1448 434.01 73.7231 434.286 72.2913 434.255C70.8596 434.224 69.4509 433.888 68.1595 433.269C66.8584 432.386 65.784 431.208 65.0236 429.832C64.2631 428.455 63.8382 426.919 63.7832 425.347V400.441L72.5359 405.505V430.411C72.4766 433.127 74.1963 434.349 76.4615 433.447Z" fill="black"/>
<path opacity="0.7" d="M76.4615 433.447C75.1448 434.01 73.7231 434.286 72.2913 434.255C70.8596 434.224 69.4509 433.888 68.1595 433.269C66.8584 432.386 65.784 431.208 65.0236 429.832C64.2631 428.455 63.8382 426.919 63.7832 425.347V400.441L72.5359 405.505V430.411C72.4766 433.127 74.1963 434.349 76.4615 433.447Z" fill="#474759"/>
<path d="M72.4883 405.47V430.376C72.4883 433.352 74.5756 434.562 77.1493 433.068L330.455 286.846C331.814 285.962 332.946 284.77 333.758 283.367C334.57 281.963 335.039 280.388 335.128 278.769V253.804L72.4883 405.47Z" fill="black"/>
<g opacity="0.5">
<path opacity="0.5" d="M72.4883 405.47V430.376C72.4883 433.352 74.5756 434.562 77.1493 433.068L330.455 286.846C331.814 285.962 332.946 284.77 333.758 283.367C334.57 281.963 335.039 280.388 335.128 278.769V253.804L72.4883 405.47Z" fill="#474759"/>
</g>
<path d="M81.2412 387.075V211.547C81.2909 210.575 81.5705 209.628 82.0571 208.785C82.5436 207.941 83.2233 207.226 84.0402 206.696L323.612 68.3966C325.154 67.5071 326.411 68.2305 326.411 70.0214V245.502C326.359 246.474 326.078 247.419 325.591 248.262C325.105 249.105 324.427 249.821 323.612 250.353L84.0402 388.64C82.4865 389.577 81.2412 388.854 81.2412 387.075Z" fill="#FAFAFA"/>
<path d="M203.802 339.765C202.527 340.595 201.466 341.713 200.706 343.03C199.945 344.347 199.507 345.825 199.426 347.344C199.426 350.131 201.383 351.27 203.802 349.87C205.076 349.039 206.136 347.92 206.896 346.604C207.656 345.287 208.096 343.81 208.178 342.291C208.178 339.493 206.222 338.366 203.802 339.765Z" fill="black"/>
<path opacity="0.5" d="M203.802 339.765C202.527 340.595 201.466 341.713 200.706 343.03C199.945 344.347 199.507 345.825 199.426 347.344C199.426 350.131 201.383 351.27 203.802 349.87C205.076 349.039 206.136 347.92 206.896 346.604C207.656 345.287 208.096 343.81 208.178 342.291C208.178 339.493 206.222 338.366 203.802 339.765Z" fill="white"/>
<path d="M73.8521 204.063C73.0134 205.483 72.5407 207.089 72.4763 208.736V405.47L63.7236 400.405V203.636C63.7918 202.008 64.2646 200.422 65.0994 199.023L73.8521 204.063Z" fill="black"/>
<path opacity="0.7" d="M73.8521 204.063C73.0134 205.483 72.5407 207.089 72.4763 208.736V405.47L63.7236 400.405V203.636C63.7918 202.008 64.2646 200.422 65.0994 199.023L73.8521 204.063Z" fill="#474759"/>
<path d="M164.735 483.817L228.02 520.464C229.122 521.027 230.341 521.32 231.578 521.32C232.815 521.32 234.034 521.027 235.136 520.464L422.097 412.728C424.066 411.542 424.066 409.763 422.097 408.625L358.8 371.977C357.698 371.415 356.479 371.122 355.242 371.122C354.005 371.122 352.786 371.415 351.684 371.977L164.735 479.725C162.778 480.852 162.766 482.702 164.735 483.817Z" fill="#E0E0E0"/>
<path d="M418.266 402.054C418.225 401.612 418.067 401.19 417.809 400.829C417.55 400.469 417.201 400.183 416.796 400.002L357.341 365.691C356.24 365.129 355.02 364.836 353.783 364.836C352.546 364.836 351.327 365.129 350.225 365.691L168.767 470.605C168.365 470.788 168.019 471.075 167.763 471.435C167.507 471.795 167.35 472.217 167.309 472.657V478.895C167.348 479.336 167.506 479.758 167.764 480.116C168.023 480.475 168.374 480.758 168.779 480.935L228.21 515.258C229.312 515.817 230.531 516.109 231.768 516.109C233.004 516.109 234.223 515.817 235.326 515.258L416.784 410.498C417.188 410.319 417.537 410.036 417.795 409.678C418.054 409.319 418.212 408.898 418.254 408.458L418.266 402.054Z" fill="black"/>
<path opacity="0.5" d="M418.266 402.054C418.225 401.612 418.067 401.19 417.809 400.829C417.55 400.469 417.201 400.183 416.796 400.002L357.341 365.691C356.24 365.129 355.02 364.836 353.783 364.836C352.546 364.836 351.327 365.129 350.225 365.691L168.767 470.605C168.365 470.788 168.019 471.075 167.763 471.435C167.507 471.795 167.35 472.217 167.309 472.657V478.895C167.348 479.336 167.506 479.758 167.764 480.116C168.023 480.475 168.374 480.758 168.779 480.935L228.21 515.258C229.312 515.817 230.531 516.109 231.768 516.109C233.004 516.109 234.223 515.817 235.326 515.258L416.784 410.498C417.188 410.319 417.537 410.036 417.795 409.678C418.054 409.319 418.212 408.898 418.254 408.458L418.266 402.054Z" fill="#474759"/>
<path d="M228.244 508.877L168.814 474.708C166.857 473.581 166.845 471.755 168.814 470.616L350.272 365.703C351.374 365.141 352.593 364.847 353.83 364.847C355.067 364.847 356.286 365.141 357.388 365.703L416.842 400.026C418.799 401.212 418.799 402.991 416.842 404.129L235.384 508.889C234.278 509.45 233.054 509.742 231.813 509.74C230.572 509.738 229.349 509.442 228.244 508.877Z" fill="black"/>
<path opacity="0.3" d="M228.244 508.877L168.814 474.708C166.857 473.581 166.845 471.755 168.814 470.616L350.272 365.703C351.374 365.141 352.593 364.847 353.83 364.847C355.067 364.847 356.286 365.141 357.388 365.703L416.842 400.026C418.799 401.212 418.799 402.991 416.842 404.129L235.384 508.889C234.278 509.45 233.054 509.742 231.813 509.74C230.572 509.738 229.349 509.442 228.244 508.877Z" fill="#474759"/>
<path d="M231.566 509.719V516.1C230.407 516.086 229.266 515.806 228.233 515.282L168.826 480.959C168.419 480.779 168.067 480.495 167.806 480.134C167.546 479.773 167.386 479.35 167.344 478.907V472.657C167.39 473.099 167.551 473.521 167.811 473.881C168.071 474.241 168.421 474.526 168.826 474.709L228.233 508.889C229.261 509.428 230.404 509.713 231.566 509.719Z" fill="black"/>
<path opacity="0.7" d="M231.566 509.719V516.1C230.407 516.086 229.266 515.806 228.233 515.282L168.826 480.959C168.419 480.779 168.067 480.495 167.806 480.134C167.546 479.773 167.386 479.35 167.344 478.907V472.657C167.39 473.099 167.551 473.521 167.811 473.881C168.071 474.241 168.421 474.526 168.826 474.709L228.233 508.889C229.261 509.428 230.404 509.713 231.566 509.719Z" fill="#474759"/>
<path d="M307.458 409.882L314.23 413.796C314.365 413.867 314.516 413.903 314.669 413.902L320.907 410.427L313.625 406.324L307.458 409.882Z" fill="#D5D5D5"/>
<path d="M315.606 405.185L322.414 409.111C322.54 409.171 322.678 409.2 322.817 409.194H323.066L329.056 405.731L321.774 401.639L315.606 405.185Z" fill="#D5D5D5"/>
<path d="M293.736 417.816L300.532 421.742C300.658 421.801 300.796 421.829 300.935 421.825L311.04 416.12L303.758 412.028L293.736 417.816Z" fill="#D5D5D5"/>
<path d="M285.588 422.524L292.372 426.438C292.501 426.502 292.643 426.534 292.787 426.533L299.037 423.058L291.755 418.966L285.588 422.524Z" fill="#D5D5D5"/>
<path d="M248.348 484.102L254.599 480.627L247.317 476.535L241.149 480.093L247.945 484.03C248.074 484.079 248.211 484.103 248.348 484.102Z" fill="#D5D5D5"/>
<path d="M277.429 427.221L284.201 431.135C284.335 431.21 284.486 431.247 284.64 431.242L290.878 427.767L283.596 423.663L277.429 427.221Z" fill="#D5D5D5"/>
<path d="M322.841 411.649L316.674 415.207L323.458 419.121C323.585 419.19 323.728 419.222 323.873 419.216L330.123 415.741L322.841 411.649Z" fill="#D5D5D5"/>
<path d="M300.058 443.564L306.308 440.089L299.014 435.997L292.847 439.555L299.642 443.481C299.772 443.542 299.915 443.57 300.058 443.564Z" fill="#D5D5D5"/>
<path d="M332.08 414.519L338.318 411.044L331.036 406.94L324.869 410.498L331.677 414.424C331.801 414.489 331.94 414.521 332.08 414.519Z" fill="#D5D5D5"/>
<path d="M291.91 448.308L298.148 444.833L290.866 440.729L284.699 444.287L291.471 448.201C291.605 448.276 291.757 448.313 291.91 448.308Z" fill="#D5D5D5"/>
<path d="M283.762 453.052L290 449.577L282.718 445.474L276.551 449.032L283.347 452.957C283.476 453.021 283.618 453.053 283.762 453.052Z" fill="#D5D5D5"/>
<path d="M316.353 434.195L329.458 426.758L312.973 417.342L305.987 421.398L314.61 426.367C314.679 426.399 314.739 426.448 314.783 426.511C314.826 426.573 314.853 426.647 314.859 426.723C314.855 426.79 314.833 426.856 314.795 426.912C314.758 426.968 314.706 427.014 314.645 427.043L309.201 430.186L315.962 434.088C316.082 434.154 316.216 434.191 316.353 434.195Z" fill="#D5D5D5"/>
<path d="M261.133 436.638L267.929 440.563C268.054 440.624 268.193 440.653 268.332 440.646L274.582 437.171L267.288 433.08L261.133 436.638Z" fill="#D5D5D5"/>
<path d="M308.206 438.903L314.456 435.428L307.174 431.336L301.007 434.894L307.755 438.785C307.892 438.864 308.048 438.905 308.206 438.903Z" fill="#D5D5D5"/>
<path d="M215.342 481.884L221.592 478.409L214.298 474.305L208.131 477.863L214.903 481.765C215.037 481.841 215.188 481.881 215.342 481.884Z" fill="#D5D5D5"/>
<path d="M195.927 474.282L202.734 478.219C202.858 478.273 202.991 478.301 203.126 478.302H203.375L209.376 474.839L202.082 470.747L195.927 474.282Z" fill="#D5D5D5"/>
<path d="M226.704 485.964H226.953L232.883 482.5L225.601 478.409L219.434 481.967L226.241 485.892C226.388 485.952 226.546 485.976 226.704 485.964Z" fill="#D5D5D5"/>
<path d="M232.053 493.507L238.303 490.032L231.009 485.94L224.842 489.498L231.614 493.4C231.747 493.477 231.899 493.514 232.053 493.507Z" fill="#D5D5D5"/>
<path d="M204.074 469.573L210.87 473.51C210.998 473.563 211.135 473.591 211.273 473.594L217.523 470.119L210.23 466.027L204.074 469.573Z" fill="#D5D5D5"/>
<path d="M240.2 488.81L246.438 485.323L239.156 481.231L233.001 484.789L239.797 488.715C239.922 488.778 240.06 488.811 240.2 488.81Z" fill="#D5D5D5"/>
<path d="M228.53 455.424L235.314 459.35C235.444 459.409 235.586 459.438 235.729 459.433L241.98 455.97L234.686 451.866L228.53 455.424Z" fill="#D5D5D5"/>
<path d="M236.678 450.751L243.45 454.665C243.58 454.738 243.727 454.775 243.877 454.772L250.127 451.297L242.845 447.193L236.678 450.751Z" fill="#D5D5D5"/>
<path d="M244.825 446.043L251.585 449.956C251.72 450.029 251.871 450.065 252.024 450.063L258.274 446.588L250.992 442.497L244.825 446.043Z" fill="#D5D5D5"/>
<path d="M220.37 460.168L227.142 464.07C227.272 464.146 227.419 464.187 227.569 464.189L233.831 460.702L226.525 456.61L220.37 460.168Z" fill="#D5D5D5"/>
<path d="M252.985 441.346L259.781 445.272C259.908 445.328 260.046 445.356 260.184 445.355L266.435 441.88L259.141 437.788L252.985 441.346Z" fill="#D5D5D5"/>
<path d="M212.223 464.912L219.018 468.826C219.148 468.889 219.29 468.922 219.434 468.921L225.672 465.446L218.39 461.354L212.223 464.912Z" fill="#D5D5D5"/>
<path d="M269.281 431.929L276.089 435.867C276.212 435.921 276.346 435.949 276.48 435.95L282.73 432.475L275.448 428.371L269.281 431.929Z" fill="#D5D5D5"/>
<path d="M289.645 430.815L296.417 434.717C296.551 434.79 296.702 434.827 296.855 434.823H297.104L303.094 431.36L295.812 427.269L289.645 430.815Z" fill="#D5D5D5"/>
<path d="M333.633 394.784L340.405 398.686C340.536 398.757 340.683 398.793 340.832 398.793L347.082 395.318L339.788 391.226L333.633 394.784Z" fill="#D5D5D5"/>
<path d="M341.781 390.076L348.553 393.978C348.684 394.05 348.831 394.087 348.98 394.084L355.23 390.609L347.948 386.518L341.781 390.076Z" fill="#D5D5D5"/>
<path d="M281.497 435.511L288.269 439.425C288.4 439.496 288.547 439.532 288.696 439.532L294.946 436.057L287.664 431.953L281.497 435.511Z" fill="#D5D5D5"/>
<path d="M349.929 385.367L356.701 389.281C356.832 389.351 356.979 389.387 357.128 389.388L363.378 385.901L356.096 381.809L349.929 385.367Z" fill="#D5D5D5"/>
<path d="M305.003 430.115H305.252L311.241 426.652L303.959 422.56L297.792 426.118L304.564 430.02C304.7 430.088 304.851 430.121 305.003 430.115Z" fill="#D5D5D5"/>
<path d="M342.837 400.097L349.597 403.999C349.735 404.075 349.89 404.115 350.048 404.118L356.286 400.643L349.004 396.539L342.837 400.097Z" fill="#D5D5D5"/>
<path d="M359.145 390.68L365.905 394.582C366.038 394.66 366.189 394.701 366.344 394.701L372.594 391.226L365.288 387.134L359.145 390.68Z" fill="#D5D5D5"/>
<path d="M358.172 399.409L364.422 395.934L357.128 391.831L350.961 395.389L357.757 399.314C357.886 399.378 358.028 399.41 358.172 399.409Z" fill="#D5D5D5"/>
<path d="M383.327 395.235C383.446 395.287 383.575 395.315 383.706 395.318H383.967L389.956 391.866L373.459 382.449L367.292 386.007L383.327 395.235Z" fill="#D5D5D5"/>
<path d="M273.337 440.22L280.121 444.133C280.251 444.207 280.398 444.244 280.548 444.24H280.797L286.798 440.789L279.504 436.685L273.337 440.22Z" fill="#D5D5D5"/>
<path d="M367.41 404.722H367.659L373.648 401.259L366.366 397.168L360.199 400.726L366.971 404.628C367.107 404.696 367.258 404.728 367.41 404.722Z" fill="#D5D5D5"/>
<path d="M375.559 400.014L381.809 396.539L374.515 392.448L368.348 396.006L375.108 399.907C375.247 399.98 375.402 400.017 375.559 400.014Z" fill="#D5D5D5"/>
<path d="M232.586 463.726L239.358 467.628C239.492 467.704 239.643 467.745 239.797 467.747L246.035 464.272L238.753 460.168L232.586 463.726Z" fill="#D5D5D5"/>
<path d="M216.29 473.214L223.05 477.116C223.185 477.19 223.336 477.227 223.489 477.223H223.738L229.739 473.76L222.445 469.656L216.29 473.214Z" fill="#D5D5D5"/>
<path d="M242.999 476.559L249.249 473.084L241.943 468.98L235.788 472.538L242.596 476.464C242.72 476.53 242.859 476.563 242.999 476.559Z" fill="#D5D5D5"/>
<path d="M234.827 481.255L241.077 477.78L233.783 473.688L227.616 477.246L234.424 481.172C234.549 481.233 234.688 481.261 234.827 481.255Z" fill="#D5D5D5"/>
<path d="M251.147 471.85H251.408L257.397 468.399L250.115 464.295L243.948 467.853L250.708 471.755C250.844 471.825 250.995 471.858 251.147 471.85Z" fill="#D5D5D5"/>
<path d="M265.189 444.928L271.973 448.842C272.106 448.907 272.252 448.94 272.4 448.937H272.649L278.639 445.473L271.357 441.382L265.189 444.928Z" fill="#D5D5D5"/>
<path d="M267.454 462.433L273.704 458.958L266.41 454.867L260.243 458.425L267.015 462.327C267.15 462.398 267.301 462.435 267.454 462.433Z" fill="#D5D5D5"/>
<path d="M259.307 467.142L265.545 463.726L258.263 459.634L252.096 463.192L258.903 467.13C259.036 467.16 259.173 467.164 259.307 467.142Z" fill="#D5D5D5"/>
<path d="M248.894 454.345L255.654 458.247C255.788 458.321 255.939 458.357 256.093 458.354L262.343 454.879L255.061 450.787L248.894 454.345Z" fill="#D5D5D5"/>
<path d="M224.438 468.47L231.199 472.372C231.337 472.446 231.492 472.483 231.649 472.479L237.888 469.004L230.606 464.912L224.438 468.47Z" fill="#D5D5D5"/>
<path d="M257.041 449.636L263.813 453.538C263.947 453.612 264.099 453.649 264.252 453.645L270.49 450.17L263.208 446.078L257.041 449.636Z" fill="#D5D5D5"/>
<path d="M240.758 459.041L247.518 462.955C247.652 463.029 247.804 463.066 247.957 463.062H248.206L254.207 459.611L246.913 455.507L240.758 459.041Z" fill="#D5D5D5"/>
<path d="M275.602 457.725L281.853 454.25L274.559 450.158L268.403 453.716L275.187 457.63C275.314 457.699 275.458 457.732 275.602 457.725Z" fill="#D5D5D5"/>
<path d="M323.777 400.477L330.573 404.402C330.699 404.46 330.837 404.489 330.976 404.485L337.227 401.01L329.933 396.919L323.777 400.477Z" fill="#D5D5D5"/>
<path d="M193.935 475.432L187.768 478.99L194.575 482.916C194.701 482.976 194.839 483.005 194.978 482.999H195.228L201.229 479.535L193.935 475.432Z" fill="#D5D5D5"/>
<path d="M206.15 479.014L196.982 484.303L203.79 488.241C203.914 488.295 204.047 488.323 204.181 488.324H204.442L213.432 483.129L206.15 479.014Z" fill="#D5D5D5"/>
<path d="M184.043 468.233L176.583 472.538L183.367 476.44C183.497 476.513 183.645 476.55 183.794 476.547L191.325 472.336L184.043 468.233Z" fill="#D5D5D5"/>
<path d="M222.861 490.648L215.413 494.953L222.173 498.855C222.308 498.927 222.459 498.963 222.612 498.962L230.143 494.74L222.861 490.648Z" fill="#D5D5D5"/>
<path d="M217.5 483.105L206.197 489.628L212.993 493.554C213.119 493.612 213.257 493.64 213.396 493.637H213.645L224.794 487.209L217.5 483.105Z" fill="#D5D5D5"/>
<path d="M196.781 469.051L203.019 465.576L195.69 461.484L189.522 465.042L196.295 468.956C196.444 469.035 196.613 469.067 196.781 469.051Z" fill="#D5D5D5"/>
<path d="M224.616 500.267L231.388 504.18C231.522 504.244 231.668 504.276 231.815 504.275L241.066 499.069L233.784 494.977L224.616 500.267Z" fill="#D5D5D5"/>
<path d="M204.929 464.343L211.179 460.868L203.885 456.776L197.729 460.334L204.525 464.26C204.652 464.318 204.79 464.346 204.929 464.343Z" fill="#D5D5D5"/>
<path d="M241.078 443.481H241.327L247.328 440.018L240.034 435.926L233.879 439.484L240.651 443.398C240.784 443.463 240.931 443.491 241.078 443.481Z" fill="#D5D5D5"/>
<path d="M249.225 438.82L255.476 435.345L248.194 431.241L242.026 434.799L248.81 438.713C248.937 438.785 249.08 438.822 249.225 438.82Z" fill="#D5D5D5"/>
<path d="M232.93 448.178H233.179L239.109 444.715L231.827 440.623L225.66 444.181L232.456 448.071C232.601 448.149 232.765 448.186 232.93 448.178Z" fill="#D5D5D5"/>
<path d="M221.224 454.938H221.485L227.475 451.487L220.193 447.383L214.025 450.941L220.809 454.855C220.937 454.921 221.081 454.949 221.224 454.938Z" fill="#D5D5D5"/>
<path d="M213.076 459.646L219.326 456.171L212.044 452.068L205.877 455.626L212.673 459.551C212.797 459.616 212.936 459.649 213.076 459.646Z" fill="#D5D5D5"/>
<path d="M386.79 406.644L393.598 410.581C393.722 410.631 393.855 410.655 393.989 410.652H394.238L400.168 407.189L392.886 403.098L386.79 406.644Z" fill="#D5D5D5"/>
<path d="M344.308 431.159L351.068 435.06C351.2 435.141 351.352 435.182 351.507 435.179L357.757 431.704L350.475 427.601L344.308 431.159Z" fill="#D5D5D5"/>
<path d="M370.482 416.061L377.254 419.963C377.386 420.033 377.532 420.07 377.681 420.069H377.93L392.079 411.898L384.797 407.806L370.482 416.061Z" fill="#D5D5D5"/>
<path d="M352.455 426.462L359.215 430.352C359.351 430.433 359.508 430.474 359.666 430.47L365.916 426.996L358.622 422.904L352.455 426.462Z" fill="#D5D5D5"/>
<path d="M360.614 421.754L367.351 425.632C367.487 425.723 367.649 425.769 367.813 425.762L374.064 422.287L366.77 418.196L360.614 421.754Z" fill="#D5D5D5"/>
<path d="M257.361 434.076H257.622L263.611 430.613L256.329 426.509L250.162 430.067L256.922 433.969C257.057 434.041 257.208 434.078 257.361 434.076Z" fill="#D5D5D5"/>
<path d="M391.89 393.052L385.723 396.61L401.746 405.861C401.869 405.915 402.002 405.943 402.137 405.944H402.386L408.375 402.481L391.89 393.052Z" fill="#D5D5D5"/>
<path d="M245.217 488.383L251.977 492.285C252.112 492.356 252.263 492.393 252.416 492.392L259.947 488.17L252.617 484.078L245.217 488.383Z" fill="#D5D5D5"/>
<path d="M254.646 482.927L261.406 486.829C261.543 486.907 261.698 486.948 261.856 486.948H262.105L308.431 460.168L301.137 456.064L254.646 482.927Z" fill="#D5D5D5"/>
<path d="M256.496 479.393L262.746 475.918L255.464 471.826L249.297 475.384L256.093 479.298C256.218 479.36 256.356 479.393 256.496 479.393Z" fill="#D5D5D5"/>
<path d="M235.776 493.827L242.537 497.729C242.671 497.804 242.822 497.844 242.975 497.847L250.506 493.625L243.224 489.521L235.776 493.827Z" fill="#D5D5D5"/>
<path d="M303.129 454.938L309.901 458.852C310.033 458.919 310.179 458.956 310.328 458.958H310.589L317.859 454.76L310.577 450.68L303.129 454.938Z" fill="#D5D5D5"/>
<path d="M321.999 444.039L328.795 447.964C328.923 448.03 329.066 448.063 329.21 448.059H329.459L336.741 443.861L329.459 439.757L321.999 444.039Z" fill="#D5D5D5"/>
<path d="M312.558 449.494L319.365 453.42C319.492 453.478 319.63 453.506 319.768 453.503L327.3 449.281L320.018 445.189L312.558 449.494Z" fill="#D5D5D5"/>
<path d="M331.439 438.595L338.212 442.497C338.346 442.57 338.497 442.607 338.65 442.603H338.899L347.889 437.409L340.607 433.317L331.439 438.595Z" fill="#D5D5D5"/>
<path d="M340.18 409.811H340.429L346.43 406.359L339.196 402.232L333.028 405.79L339.824 409.716C339.935 409.772 340.056 409.804 340.18 409.811Z" fill="#D5D5D5"/>
<path d="M350.451 425.157H350.7L356.701 421.694L349.419 417.603L343.252 421.161L350.036 425.086C350.167 425.143 350.309 425.167 350.451 425.157Z" fill="#D5D5D5"/>
<path d="M321.714 441.749L338.685 432.072L331.392 427.98L314.503 437.729L321.311 441.655C321.435 441.72 321.574 441.753 321.714 441.749Z" fill="#D5D5D5"/>
<path d="M368.466 414.744H368.727L374.716 411.281L367.434 407.189L361.267 410.747L368.062 414.673C368.19 414.727 368.328 414.751 368.466 414.744Z" fill="#D5D5D5"/>
<path d="M376.626 410.048H376.875L382.864 406.596L375.582 402.493L369.415 406.051L376.199 409.977C376.334 410.033 376.48 410.058 376.626 410.048Z" fill="#D5D5D5"/>
<path d="M313.554 446.458L319.805 442.983L312.523 438.879L306.355 442.437L313.128 446.351C313.259 446.42 313.406 446.456 313.554 446.458Z" fill="#D5D5D5"/>
<path d="M359.262 409.431H359.511L365.501 405.968L358.171 401.864L352.004 405.422L358.764 409.312C358.913 409.405 359.088 409.447 359.262 409.431Z" fill="#D5D5D5"/>
<path d="M272.779 469.976L279.029 466.501L271.735 462.41L265.58 465.968L272.376 469.893C272.501 469.954 272.64 469.982 272.779 469.976Z" fill="#D5D5D5"/>
<path d="M305.406 451.155L311.656 447.68L304.362 443.564L298.207 447.122L305.015 451.06C305.138 451.116 305.271 451.148 305.406 451.155Z" fill="#D5D5D5"/>
<path d="M264.656 474.685H264.905L270.835 471.222L263.553 467.13L257.386 470.688L264.193 474.614C264.338 474.68 264.498 474.705 264.656 474.685Z" fill="#D5D5D5"/>
<path d="M280.951 465.28L287.201 461.805L279.896 457.701L273.729 461.259L280.548 465.197C280.674 465.257 280.812 465.285 280.951 465.28Z" fill="#D5D5D5"/>
<path d="M289.111 460.571H289.384L295.373 457.108L288.068 453.052L281.9 456.61L288.672 460.524C288.812 460.578 288.963 460.595 289.111 460.571Z" fill="#D5D5D5"/>
<path d="M297.259 455.863H297.508L303.509 452.4L296.215 448.308L290.048 451.866L296.855 455.792C296.984 455.843 297.121 455.867 297.259 455.863Z" fill="#D5D5D5"/>
<path d="M277.227 422.607L283.453 419.132L276.159 415.029L269.992 418.587L276.764 422.489C276.902 422.575 277.064 422.617 277.227 422.607Z" fill="#D5D5D5"/>
<path d="M384.773 405.339H385.022L391.024 401.888L383.73 397.784L377.562 401.342L384.37 405.28C384.499 405.327 384.636 405.347 384.773 405.339Z" fill="#D5D5D5"/>
<path d="M293.534 413.191L299.772 409.716L292.49 405.612L286.323 409.17L293.083 413.072C293.221 413.15 293.376 413.191 293.534 413.191Z" fill="#D5D5D5"/>
<path d="M311.633 402.742L317.883 399.267L310.589 395.163L304.434 398.721L311.206 402.635C311.336 402.708 311.483 402.745 311.633 402.742Z" fill="#D5D5D5"/>
<path d="M303.485 407.45L309.724 403.975L302.43 399.872L296.263 403.43L303.035 407.344C303.173 407.418 303.328 407.455 303.485 407.45Z" fill="#D5D5D5"/>
<path d="M269.079 427.316L275.329 423.829L268.035 419.737L261.88 423.295L268.652 427.209C268.784 427.277 268.93 427.313 269.079 427.316Z" fill="#D5D5D5"/>
<path d="M285.375 417.899H285.636L291.566 414.436L284.343 410.356L278.176 413.914L284.936 417.816C285.073 417.88 285.224 417.908 285.375 417.899Z" fill="#D5D5D5"/>
<path d="M319.781 398.033L326.031 394.558L318.749 390.467L312.582 394.025L319.354 397.927C319.484 398 319.632 398.037 319.781 398.033Z" fill="#D5D5D5"/>
<path d="M351.744 376.852L357.982 373.377L354.021 371.218L347.854 374.776L351.317 376.733C351.448 376.804 351.594 376.845 351.744 376.852Z" fill="#D5D5D5"/>
<path d="M365.287 384.679L371.537 381.204L364.243 377.148L358.076 380.706L364.848 384.62C364.988 384.675 365.138 384.695 365.287 384.679Z" fill="#D5D5D5"/>
<path d="M327.335 390.977H327.584L333.574 387.514L329.613 385.379L323.445 388.937L326.897 390.894C327.035 390.952 327.185 390.981 327.335 390.977Z" fill="#D5D5D5"/>
<path d="M335.436 386.268H335.685L341.615 382.817L337.725 380.706L331.558 384.264L335.033 386.221C335.162 386.267 335.3 386.283 335.436 386.268Z" fill="#D5D5D5"/>
<path d="M343.583 381.56L349.834 378.085L345.872 375.962L339.705 379.52L343.192 381.489C343.316 381.539 343.449 381.563 343.583 381.56Z" fill="#D5D5D5"/>
<g opacity="0.8">
<path opacity="0.8" d="M352.858 74.4333V250.495C352.79 251.764 352.424 252.998 351.79 254.099C351.155 255.199 350.27 256.134 349.205 256.828L111.899 394.096C111.542 394.317 111.133 394.44 110.713 394.452C110.559 394.469 110.404 394.469 110.25 394.452C110.143 394.429 110.04 394.393 109.942 394.345L109.74 394.226L109.527 394.084C109.454 394.031 109.387 393.972 109.325 393.906C109.038 393.634 108.809 393.307 108.649 392.945C108.396 392.362 108.267 391.732 108.27 391.095V215.852C108.341 214.581 108.709 213.345 109.346 212.243C109.983 211.141 110.869 210.204 111.934 209.507L349.205 72.346C349.559 72.1002 349.968 71.9438 350.395 71.8901C350.823 71.8364 351.257 71.887 351.66 72.0376C351.772 72.0877 351.879 72.1473 351.981 72.2155C352.074 72.2834 352.155 72.3678 352.218 72.4646C352.26 72.5025 352.296 72.5465 352.325 72.595C352.375 72.6508 352.415 72.7151 352.443 72.7848C352.538 72.9269 352.61 73.083 352.657 73.2473C352.698 73.3541 352.726 73.4657 352.74 73.5794C352.745 73.5905 352.748 73.6027 352.748 73.615C352.748 73.6273 352.745 73.6395 352.74 73.6506C352.772 73.7587 352.792 73.8701 352.799 73.9827C352.846 74.1131 352.858 74.2673 352.858 74.4333Z" fill="#455A64"/>
<path opacity="0.8" d="M350.831 73.0102C350.953 73.0108 351.074 73.035 351.186 73.0814H351.258L351.353 73.2118L351.447 73.3423C351.447 73.3423 351.447 73.3423 351.447 73.4016L351.554 73.7455C351.552 73.7732 351.552 73.8009 351.554 73.8286C351.554 73.9472 351.554 74.0658 351.554 74.1962V250.495C351.489 251.557 351.179 252.589 350.648 253.511C350.117 254.433 349.38 255.219 348.494 255.808L111.306 393.076C111.122 393.195 110.909 393.261 110.689 393.266H110.44H110.357L110.203 393.159V393.1C110.033 392.945 109.899 392.755 109.812 392.542C109.62 392.109 109.523 391.64 109.527 391.167V215.852C109.592 214.789 109.903 213.755 110.436 212.833C110.97 211.911 111.71 211.126 112.599 210.539L349.787 73.3423C350.103 73.1492 350.461 73.0353 350.831 73.0102ZM350.831 71.8242C350.256 71.8418 349.696 72.0095 349.206 72.3105L111.899 209.519C110.836 210.214 109.95 211.15 109.313 212.25C108.677 213.349 108.307 214.583 108.234 215.852V391.024C108.232 391.661 108.361 392.291 108.614 392.874C108.774 393.236 109.003 393.563 109.29 393.835C109.351 393.901 109.419 393.96 109.492 394.013L109.705 394.155L109.907 394.274C110.005 394.322 110.108 394.358 110.215 394.381C110.369 394.398 110.524 394.398 110.678 394.381H110.737C111.157 394.369 111.566 394.246 111.923 394.025L349.206 256.828C350.27 256.134 351.155 255.199 351.79 254.099C352.425 252.998 352.791 251.764 352.859 250.495V74.4334C352.859 74.2674 352.859 74.1132 352.859 73.9709C352.852 73.8583 352.832 73.7469 352.799 73.6388C352.805 73.6277 352.807 73.6155 352.807 73.6032C352.807 73.5909 352.805 73.5788 352.799 73.5676C352.786 73.4539 352.758 73.3423 352.716 73.2356C352.67 73.0712 352.598 72.9151 352.503 72.773C352.475 72.7033 352.435 72.6391 352.384 72.5833C352.355 72.5347 352.319 72.4907 352.278 72.4528C352.214 72.356 352.134 72.2716 352.04 72.2037C351.939 72.1355 351.832 72.076 351.72 72.0258C351.46 71.9057 351.176 71.845 350.89 71.8479L350.831 71.8242Z" fill="#455A64"/>
<g opacity="0.7">
<path opacity="0.7" d="M352.858 74.4333V250.495C352.79 251.764 352.424 252.998 351.79 254.099C351.155 255.199 350.27 256.134 349.205 256.828L111.899 394.096C111.542 394.317 111.133 394.44 110.713 394.452C110.559 394.469 110.404 394.469 110.25 394.452C110.143 394.429 110.04 394.393 109.942 394.345L109.74 394.226L109.527 394.084C109.454 394.031 109.387 393.972 109.325 393.906C109.038 393.634 108.809 393.307 108.649 392.945C108.396 392.362 108.267 391.732 108.27 391.095V215.852C108.341 214.581 108.709 213.345 109.346 212.243C109.983 211.141 110.869 210.204 111.934 209.507L349.205 72.346C349.559 72.1002 349.968 71.9438 350.395 71.8901C350.823 71.8364 351.257 71.887 351.66 72.0376C351.772 72.0877 351.879 72.1473 351.981 72.2155C352.074 72.2834 352.155 72.3678 352.218 72.4646C352.26 72.5025 352.296 72.5465 352.325 72.595C352.375 72.6508 352.415 72.7151 352.443 72.7848C352.538 72.9269 352.61 73.083 352.657 73.2473C352.698 73.3541 352.726 73.4657 352.74 73.5794C352.745 73.5905 352.748 73.6027 352.748 73.615C352.748 73.6273 352.745 73.6395 352.74 73.6506C352.772 73.7587 352.792 73.8701 352.799 73.9827C352.846 74.1131 352.858 74.2673 352.858 74.4333Z" fill="#455A64"/>
</g>
</g>
<path d="M351.661 72.002C351.257 71.8514 350.823 71.8007 350.395 71.8544C349.968 71.9081 349.56 72.0646 349.206 72.3103L111.899 209.519C110.835 210.214 109.95 211.149 109.313 212.249C108.677 213.349 108.307 214.583 108.234 215.852V227.807L103.562 225.067V213.207C103.631 211.941 103.998 210.708 104.633 209.61C105.268 208.512 106.152 207.579 107.214 206.886L344.533 69.6774C344.912 69.3977 345.361 69.2296 345.831 69.1918C346.3 69.1541 346.771 69.2484 347.19 69.4639C347.842 69.8553 350.878 71.5987 351.661 72.002Z" fill="black"/>
<path d="M352.859 74.3978C352.859 72.0969 351.21 71.16 349.206 72.3223L111.887 209.531C110.825 210.223 109.94 211.157 109.306 212.255C108.671 213.353 108.304 214.585 108.234 215.852V227.807L352.859 86.4001V74.3978Z" fill="black"/>
<g opacity="0.4">
<path opacity="0.4" d="M349.206 72.346L111.899 209.531C110.816 210.212 109.929 211.165 109.326 212.294L104.677 209.614C105.282 208.52 106.155 207.597 107.215 206.933L344.533 69.6775C344.913 69.3998 345.361 69.2318 345.83 69.192C346.299 69.1523 346.769 69.2423 347.19 69.4522C347.842 69.8554 350.878 71.587 351.649 72.0021C351.246 71.8513 350.811 71.8038 350.384 71.8638C349.957 71.9239 349.553 72.0897 349.206 72.346Z" fill="white"/>
</g>
<path opacity="0.15" d="M103.562 225.091V213.231C103.613 211.938 103.997 210.68 104.676 209.578L109.337 212.247C108.656 213.342 108.275 214.598 108.234 215.888V227.843L103.562 225.091Z" fill="#474759"/>
<path d="M330.895 88.0131C330.238 88.5353 329.71 89.2016 329.352 89.9605C328.994 90.7194 328.816 91.5505 328.831 92.3894C328.831 94.1447 329.756 95.0342 330.895 94.3819C331.551 93.8597 332.079 93.1933 332.437 92.4344C332.795 91.6755 332.973 90.8444 332.958 90.0055C332.899 88.2503 331.974 87.3608 330.895 88.0131Z" fill="#455A64"/>
<path d="M338.271 83.7198C337.613 84.2389 337.085 84.903 336.727 85.6601C336.369 86.4173 336.191 87.2469 336.207 88.0842C336.207 89.8395 337.132 90.729 338.271 90.0767C338.936 89.5593 339.473 88.8951 339.839 88.1359C340.205 87.3768 340.391 86.5432 340.382 85.7004C340.382 83.9451 339.409 83.02 338.271 83.7198Z" fill="#455A64"/>
<path d="M345.707 79.462C345.049 79.9824 344.519 80.6484 344.161 81.4077C343.803 82.1671 343.626 82.999 343.644 83.8384C343.644 85.5936 344.569 86.4831 345.707 85.819C346.366 85.2986 346.895 84.6326 347.253 83.8733C347.611 83.1139 347.789 82.282 347.771 81.4426C347.771 79.6399 346.846 78.7504 345.707 79.462Z" fill="#455A64"/>
<path opacity="0.9" d="M109.575 394.108L109.124 393.847C108.792 393.645 108.401 393.432 107.938 393.218L107.321 392.874L106.361 392.329C106.052 392.139 105.779 391.985 105.554 391.866C105.329 391.748 105.175 391.653 105.103 391.617C104.861 391.493 104.647 391.319 104.475 391.107C104.274 390.89 104.11 390.642 103.989 390.372C103.703 389.768 103.557 389.107 103.562 388.439V225.079L108.234 227.819V391.036C108.253 391.67 108.382 392.296 108.614 392.886C108.774 393.248 109.003 393.575 109.29 393.847C109.343 393.921 109.412 393.982 109.492 394.025L109.575 394.108Z" fill="#37474F"/>
<path d="M187.566 288.755C187.566 288.755 178.932 283.169 177.817 283.134L153.267 282.363L163.027 287.558V287.985L187.566 288.755Z" fill="#263238"/>
<path d="M145.486 305.585V290.167L187.566 237.852V258.251L163.027 287.51V287.937L187.566 288.708V309.107L145.486 305.585Z" fill="#FAFAFA"/>
<path d="M187.566 237.9L177.817 232.278L135.726 284.593L145.486 290.214L187.566 237.9Z" fill="#455A64"/>
<path d="M135.726 284.593V299.963L145.486 305.585V290.214L135.726 284.593Z" fill="#37474F"/>
<path d="M213.041 299.05L199.995 306.593L232.563 187.222L245.158 179.952L213.041 299.05Z" fill="#FAFAFA"/>
<path d="M245.146 179.952L235.385 174.33L222.79 181.6L232.539 187.222L245.146 179.952Z" fill="#455A64"/>
<path d="M222.79 181.6L232.539 187.222L199.983 306.593L190.223 300.971L222.79 181.6Z" fill="#37474F"/>
<path d="M247.803 242.727L257.552 248.348L282.09 218.817L272.341 213.195L247.803 242.727Z" fill="#263238"/>
<path d="M282.09 218.817L257.552 217.892V197.493L299.631 201.217V216.635L257.552 268.819V248.348L282.09 219.244V218.817Z" fill="#FAFAFA"/>
<path d="M247.803 191.871L257.552 197.493L299.643 201.217L289.882 195.595L247.803 191.871Z" fill="#455A64"/>
<path d="M257.552 197.493V217.892L247.803 212.27V191.871" fill="#37474F"/>
<path d="M247.803 242.727L257.552 248.348V268.748L247.803 263.126V242.727Z" fill="#37474F"/>
<g opacity="0.8">
<path opacity="0.8" d="M429.486 104.794V280.856C429.418 282.127 429.05 283.365 428.413 284.467C427.777 285.57 426.888 286.507 425.821 287.201L324.667 345.552C324.313 345.78 323.902 345.903 323.481 345.908C323.325 345.906 323.17 345.886 323.019 345.849L322.699 345.742L322.509 345.624L322.295 345.481C322.223 345.428 322.155 345.369 322.094 345.303C321.803 345.034 321.573 344.707 321.418 344.343C321.165 343.759 321.035 343.129 321.038 342.492V167.32C321.107 166.05 321.474 164.814 322.108 163.712C322.743 162.61 323.627 161.672 324.691 160.975L425.774 102.683C426.128 102.434 426.538 102.274 426.968 102.218C427.397 102.162 427.834 102.212 428.241 102.363C428.35 102.415 428.453 102.479 428.549 102.553C428.639 102.62 428.719 102.7 428.786 102.79C428.828 102.828 428.864 102.872 428.893 102.92C428.943 102.976 428.984 103.041 429.012 103.11C429.113 103.255 429.189 103.415 429.237 103.585C429.278 103.687 429.306 103.795 429.32 103.905C429.325 103.916 429.328 103.928 429.328 103.94C429.328 103.953 429.325 103.965 429.32 103.976C429.352 104.084 429.372 104.196 429.379 104.308C429.474 104.486 429.486 104.64 429.486 104.794Z" fill="#455A64"/>
<path opacity="0.8" d="M427.446 103.372C427.57 103.37 427.692 103.398 427.802 103.455H427.873L427.98 103.585L428.063 103.728L428.181 104.072C428.187 104.099 428.187 104.127 428.181 104.155C428.188 104.273 428.188 104.392 428.181 104.51V280.857C428.114 281.919 427.801 282.952 427.268 283.874C426.735 284.795 425.997 285.581 425.109 286.17L324.086 344.533C323.902 344.652 323.688 344.718 323.469 344.723H323.22H323.137L322.983 344.628C322.82 344.469 322.691 344.28 322.604 344.07C322.412 343.637 322.315 343.168 322.319 342.695V167.321C322.384 166.259 322.694 165.227 323.225 164.305C323.756 163.383 324.493 162.597 325.379 162.008L426.533 103.716C426.842 103.515 427.197 103.396 427.565 103.372H427.446ZM427.565 102.186C426.989 102.21 426.43 102.381 425.94 102.684L324.786 160.976C323.722 161.673 322.837 162.611 322.203 163.713C321.568 164.815 321.202 166.051 321.133 167.321V342.493C321.13 343.129 321.259 343.759 321.512 344.343C321.668 344.708 321.898 345.035 322.188 345.304C322.25 345.369 322.317 345.429 322.39 345.482L322.604 345.624L322.793 345.743L323.113 345.849C323.265 345.887 323.42 345.907 323.576 345.909C323.997 345.903 324.407 345.779 324.762 345.553L425.774 287.202C426.839 286.506 427.727 285.569 428.363 284.467C429 283.364 429.368 282.128 429.438 280.857V104.795C429.438 104.641 429.438 104.487 429.438 104.332C429.431 104.22 429.411 104.108 429.379 104C429.384 103.989 429.387 103.977 429.387 103.965C429.387 103.952 429.384 103.94 429.379 103.929C429.366 103.819 429.338 103.712 429.296 103.609C429.248 103.439 429.172 103.279 429.071 103.135C429.043 103.065 429.002 103.001 428.952 102.945C428.923 102.896 428.887 102.852 428.845 102.814C428.778 102.724 428.698 102.645 428.608 102.577C428.513 102.503 428.409 102.439 428.3 102.387C428.036 102.267 427.748 102.206 427.458 102.21L427.565 102.186Z" fill="#455A64"/>
<g opacity="0.8">
<path opacity="0.8" d="M429.486 104.794V280.856C429.418 282.127 429.05 283.365 428.413 284.467C427.777 285.57 426.888 286.507 425.821 287.201L324.667 345.552C324.313 345.78 323.902 345.903 323.481 345.908C323.325 345.906 323.17 345.886 323.019 345.849L322.699 345.742L322.509 345.624L322.295 345.481C322.223 345.428 322.155 345.369 322.094 345.303C321.803 345.034 321.573 344.707 321.418 344.343C321.165 343.759 321.035 343.129 321.038 342.492V167.32C321.107 166.05 321.474 164.814 322.108 163.712C322.743 162.61 323.627 161.672 324.691 160.975L425.774 102.683C426.128 102.434 426.538 102.274 426.968 102.218C427.397 102.162 427.834 102.212 428.241 102.363C428.35 102.415 428.453 102.479 428.549 102.553C428.639 102.62 428.719 102.7 428.786 102.79C428.828 102.828 428.864 102.872 428.893 102.92C428.943 102.976 428.984 103.041 429.012 103.11C429.113 103.255 429.189 103.415 429.237 103.585C429.278 103.687 429.306 103.795 429.32 103.905C429.325 103.916 429.328 103.928 429.328 103.94C429.328 103.953 429.325 103.965 429.32 103.976C429.352 104.084 429.372 104.196 429.379 104.308C429.474 104.486 429.486 104.64 429.486 104.794Z" fill="#455A64"/>
</g>
</g>
<path d="M428.288 102.364C427.882 102.213 427.445 102.163 427.015 102.219C426.585 102.275 426.176 102.434 425.821 102.684L324.668 160.976C323.604 161.673 322.719 162.611 322.085 163.713C321.45 164.815 321.084 166.051 321.015 167.321V179.276L316.342 176.536V164.676C316.412 163.41 316.779 162.177 317.413 161.079C318.048 159.981 318.932 159.048 319.995 158.355L421.16 100.051C421.54 99.7774 421.987 99.6128 422.453 99.5752C422.919 99.5376 423.387 99.6283 423.805 99.8376C424.469 100.217 427.506 101.996 428.288 102.364Z" fill="black"/>
<path d="M429.474 104.771C429.474 102.399 427.838 101.522 425.821 102.684L324.668 160.988C323.603 161.682 322.718 162.617 322.083 163.717C321.449 164.818 321.083 166.052 321.015 167.321V179.276L429.474 116.774V104.771Z" fill="black"/>
<g opacity="0.4">
<path opacity="0.4" d="M425.774 102.684L324.632 160.988C323.555 161.655 322.665 162.586 322.046 163.692L317.409 161.011C318.011 159.918 318.886 158.999 319.947 158.343L421.149 100.039C421.53 99.7645 421.979 99.5994 422.447 99.5617C422.915 99.5241 423.385 99.6154 423.805 99.8257C424.469 100.229 427.494 101.949 428.265 102.364C427.856 102.204 427.414 102.15 426.978 102.206C426.543 102.262 426.129 102.426 425.774 102.684Z" fill="white"/>
</g>
<path opacity="0.15" d="M316.342 176.548V164.688C316.394 163.395 316.778 162.137 317.457 161.035L322.106 163.704C321.433 164.802 321.057 166.057 321.015 167.345V179.3L316.342 176.548Z" fill="#474759"/>
<path d="M407.45 118.387C406.793 118.906 406.265 119.57 405.907 120.327C405.549 121.084 405.371 121.914 405.387 122.751C405.387 124.506 406.312 125.396 407.45 124.744C408.107 124.221 408.635 123.555 408.993 122.796C409.35 122.037 409.529 121.206 409.514 120.367C409.514 118.6 408.589 117.722 407.45 118.387Z" fill="#455A64"/>
<path d="M414.887 114.081C414.229 114.603 413.701 115.269 413.343 116.028C412.985 116.787 412.807 117.619 412.823 118.458C412.823 120.213 413.748 121.103 414.887 120.438C415.548 119.92 416.078 119.254 416.437 118.494C416.795 117.735 416.971 116.902 416.951 116.062C416.951 114.307 416.037 113.417 414.887 114.081Z" fill="#455A64"/>
<path d="M422.323 109.776C421.667 110.298 421.139 110.965 420.781 111.724C420.423 112.483 420.245 113.314 420.26 114.152C420.26 115.908 421.185 116.797 422.323 116.133C422.984 115.616 423.515 114.953 423.876 114.196C424.236 113.438 424.415 112.607 424.399 111.769C424.399 110.013 423.474 109.112 422.323 109.776Z" fill="#455A64"/>
<path opacity="0.9" d="M322.355 345.565L321.905 345.304L320.778 344.675L320.161 344.32L319.2 343.774C318.892 343.584 318.607 343.43 318.394 343.311C318.18 343.193 318.014 343.098 317.943 343.062C317.7 342.938 317.486 342.764 317.315 342.552C317.114 342.335 316.95 342.087 316.828 341.817C316.543 341.213 316.397 340.552 316.401 339.884V176.536L321.074 179.276V342.493C321.093 343.127 321.221 343.753 321.454 344.343C321.609 344.708 321.839 345.035 322.13 345.304C322.183 345.378 322.252 345.439 322.331 345.482C322.335 345.511 322.343 345.539 322.355 345.565Z" fill="#37474F"/>
<path d="M329.993 189.203C330.003 188.966 330.068 188.734 330.183 188.527L332.815 183.083C332.839 183.021 332.881 182.968 332.934 182.929V182.869C332.965 182.846 333.002 182.834 333.041 182.834C333.079 182.834 333.117 182.846 333.148 182.869C333.179 182.905 333.203 182.946 333.217 182.991C333.232 183.036 333.236 183.083 333.231 183.13V185.016C333.252 185.205 333.252 185.396 333.231 185.585C333.18 185.756 333.117 185.923 333.041 186.083L331.653 188.954L333.041 190.234C333.122 190.311 333.187 190.404 333.231 190.507C333.255 190.676 333.255 190.848 333.231 191.017V192.844C333.231 192.971 333.203 193.097 333.148 193.211C333.102 193.314 333.028 193.4 332.934 193.46C332.915 193.469 332.895 193.473 332.875 193.473C332.854 193.473 332.834 193.469 332.815 193.46L330.183 191.088C330.117 191.031 330.066 190.96 330.033 190.88C330 190.799 329.986 190.712 329.993 190.626V189.203Z" fill="black"/>
<path d="M339.611 175.528C339.657 175.343 339.725 175.164 339.813 174.994C339.894 174.817 340.032 174.671 340.204 174.579L341.189 174.01C341.202 173.997 341.217 173.986 341.235 173.979C341.252 173.972 341.271 173.968 341.289 173.968C341.308 173.968 341.327 173.972 341.344 173.979C341.361 173.986 341.377 173.997 341.39 174.01C341.424 174.044 341.45 174.085 341.466 174.13C341.483 174.175 341.489 174.223 341.485 174.271C341.495 174.338 341.495 174.406 341.485 174.473L336.978 193.686C336.938 193.867 336.874 194.043 336.788 194.208C336.708 194.392 336.571 194.546 336.397 194.646L335.448 195.192C335.42 195.216 335.385 195.229 335.347 195.229C335.31 195.229 335.275 195.216 335.247 195.192C335.18 195.117 335.146 195.019 335.152 194.919C335.147 194.852 335.147 194.785 335.152 194.718L339.611 175.528Z" fill="black"/>
<path d="M346.585 180.984C346.58 181.22 346.519 181.452 346.407 181.66L343.774 187.103C343.742 187.164 343.702 187.22 343.655 187.269H343.584C343.555 187.291 343.52 187.303 343.483 187.303C343.447 187.303 343.411 187.291 343.383 187.269C343.32 187.193 343.291 187.095 343.299 186.997V185.17C343.278 184.981 343.278 184.79 343.299 184.601C343.344 184.428 343.408 184.261 343.489 184.103L344.877 181.233L343.489 179.964C343.406 179.884 343.341 179.787 343.299 179.679C343.275 179.51 343.275 179.338 343.299 179.169V177.343C343.3 177.215 343.328 177.09 343.383 176.975C343.428 176.876 343.497 176.79 343.584 176.726H343.655C343.655 176.726 343.726 176.726 343.774 176.726L346.407 179.098C346.471 179.158 346.521 179.232 346.551 179.314C346.582 179.396 346.594 179.485 346.585 179.572V180.984Z" fill="black"/>
<path d="M353.891 179.715C353.928 179.686 353.974 179.67 354.021 179.67C354.069 179.67 354.114 179.686 354.152 179.715C354.191 179.76 354.22 179.813 354.239 179.87C354.257 179.927 354.264 179.987 354.259 180.047V182.051C354.258 182.208 354.222 182.362 354.152 182.502C354.101 182.634 354.01 182.746 353.891 182.822L352.705 183.534C352.672 183.566 352.627 183.584 352.58 183.584C352.534 183.584 352.489 183.566 352.456 183.534C352.416 183.491 352.386 183.44 352.367 183.385C352.349 183.33 352.343 183.271 352.349 183.213V181.197C352.35 181.041 352.387 180.887 352.456 180.746C352.506 180.621 352.593 180.514 352.705 180.438L353.891 179.715Z" fill="black"/>
<path d="M358.042 177.331C358.078 177.3 358.124 177.283 358.172 177.283C358.22 177.283 358.266 177.3 358.303 177.331C358.342 177.376 358.371 177.429 358.389 177.486C358.408 177.543 358.415 177.603 358.409 177.663V179.667C358.409 179.824 358.373 179.978 358.303 180.118C358.252 180.25 358.161 180.362 358.042 180.438L356.856 181.15C356.818 181.179 356.772 181.194 356.725 181.194C356.678 181.194 356.632 181.179 356.595 181.15C356.556 181.104 356.526 181.051 356.508 180.994C356.49 180.937 356.483 180.877 356.488 180.818V178.801C356.491 178.645 356.527 178.492 356.595 178.351C356.645 178.222 356.737 178.114 356.856 178.042L358.042 177.331Z" fill="black"/>
<path d="M362.193 174.935C362.226 174.902 362.271 174.884 362.317 174.884C362.364 174.884 362.408 174.902 362.442 174.935C362.481 174.98 362.51 175.033 362.528 175.09C362.547 175.147 362.554 175.207 362.548 175.267V177.271C362.547 177.432 362.511 177.589 362.442 177.734C362.388 177.857 362.302 177.964 362.193 178.042L360.947 178.754C360.913 178.784 360.869 178.801 360.823 178.801C360.777 178.801 360.733 178.784 360.698 178.754C360.659 178.708 360.63 178.656 360.611 178.599C360.593 178.542 360.586 178.482 360.592 178.422V176.406C360.594 176.25 360.631 176.096 360.698 175.955C360.752 175.832 360.838 175.725 360.947 175.647L362.193 174.935Z" fill="black"/>
<path d="M331.107 203.873L391.878 168.792C392.601 168.377 393.183 168.673 393.183 169.444C393.151 169.881 393.016 170.305 392.79 170.68C392.563 171.055 392.25 171.371 391.878 171.602L331.107 206.696C330.384 207.111 329.803 206.815 329.803 206.032C329.835 205.595 329.97 205.172 330.197 204.797C330.424 204.422 330.736 204.105 331.107 203.873Z" fill="black"/>
<path d="M350.605 226.396L411.376 191.302C412.099 190.887 412.681 191.183 412.681 191.966C412.648 192.403 412.513 192.826 412.286 193.201C412.06 193.576 411.748 193.893 411.376 194.125L350.605 229.206C349.882 229.622 349.301 229.325 349.301 228.554C349.332 228.117 349.467 227.693 349.694 227.318C349.921 226.943 350.233 226.627 350.605 226.396Z" fill="#E0E0E0"/>
<path d="M350.605 237.651L379.698 220.869C380.41 220.454 380.991 220.75 380.991 221.533C380.96 221.967 380.826 222.388 380.602 222.761C380.377 223.134 380.067 223.449 379.698 223.68L350.605 240.473C349.882 240.877 349.301 240.592 349.301 239.809C349.333 239.372 349.468 238.949 349.695 238.574C349.922 238.199 350.234 237.883 350.605 237.651Z" fill="#E0E0E0"/>
<path d="M350.605 248.906L379.698 232.124C380.41 231.721 380.991 232.005 380.991 232.788C380.958 233.224 380.824 233.645 380.599 234.02C380.375 234.395 380.066 234.712 379.698 234.947L350.605 251.728C349.882 252.144 349.301 251.847 349.301 251.064C349.333 250.627 349.468 250.204 349.695 249.829C349.922 249.454 350.234 249.138 350.605 248.906Z" fill="#E0E0E0"/>
<path d="M396.919 165.886L421.125 151.808C421.849 151.393 422.43 151.689 422.43 152.46C422.398 152.898 422.264 153.321 422.037 153.696C421.81 154.072 421.498 154.388 421.125 154.619L396.919 168.649C396.195 169.064 395.614 168.768 395.614 167.997C395.653 167.568 395.791 167.154 396.017 166.788C396.244 166.421 396.552 166.112 396.919 165.886Z" fill="black"/>
<path d="M331.107 327.704L391.878 292.622C392.601 292.207 393.183 292.503 393.183 293.274C393.151 293.711 393.016 294.135 392.79 294.51C392.563 294.885 392.25 295.201 391.878 295.433L331.107 330.526C330.384 330.93 329.803 330.645 329.803 329.862C329.835 329.425 329.97 329.002 330.197 328.627C330.424 328.252 330.736 327.936 331.107 327.704Z" fill="black"/>
<path d="M396.919 289.704L421.125 275.674C421.849 275.259 422.43 275.555 422.43 276.338C422.397 276.775 422.262 277.198 422.036 277.573C421.809 277.948 421.497 278.265 421.125 278.497L396.919 292.527C396.195 292.942 395.614 292.645 395.614 291.863C395.647 291.426 395.782 291.002 396.008 290.627C396.235 290.252 396.547 289.936 396.919 289.704Z" fill="black"/>
<path d="M396.919 255.998L421.125 241.944C421.849 241.529 422.43 241.825 422.43 242.596C422.398 243.034 422.264 243.457 422.037 243.832C421.81 244.208 421.498 244.524 421.125 244.755L396.919 258.785C396.195 259.2 395.614 258.904 395.614 258.133C395.649 257.7 395.786 257.281 396.012 256.91C396.239 256.539 396.549 256.227 396.919 255.998Z" fill="black"/>
<path d="M396.919 267.253L421.125 253.223C421.849 252.808 422.43 253.104 422.43 253.875C422.398 254.312 422.264 254.736 422.037 255.111C421.81 255.486 421.498 255.803 421.125 256.034L396.919 270.064C396.195 270.479 395.614 270.183 395.614 269.412C395.646 268.975 395.78 268.551 396.007 268.176C396.234 267.801 396.546 267.484 396.919 267.253Z" fill="black"/>
<path d="M331.107 316.46L391.878 281.367C392.601 280.963 393.183 281.248 393.183 282.031C393.15 282.468 393.015 282.891 392.788 283.266C392.562 283.641 392.25 283.957 391.878 284.189L331.107 319.271C330.384 319.686 329.803 319.39 329.803 318.619C329.834 318.182 329.969 317.758 330.196 317.383C330.422 317.008 330.735 316.692 331.107 316.46Z" fill="#F5F5F5"/>
<path d="M376.27 267.882L389.874 260.03C390.585 259.615 391.167 259.912 391.167 260.683C391.135 261.119 391.002 261.541 390.778 261.916C390.553 262.291 390.243 262.608 389.874 262.841L376.27 270.693C375.547 271.108 374.966 270.823 374.966 270.04C374.997 269.603 375.132 269.179 375.359 268.804C375.586 268.429 375.898 268.113 376.27 267.882Z" fill="black"/>
<path d="M331.107 215.164L366.557 194.682C367.269 194.267 367.85 194.563 367.85 195.334C367.818 195.77 367.685 196.193 367.461 196.568C367.236 196.943 366.927 197.259 366.557 197.493L331.107 217.975C330.384 218.39 329.803 218.094 329.803 217.323C329.834 216.885 329.969 216.462 330.196 216.087C330.422 215.711 330.735 215.395 331.107 215.164Z" fill="black"/>
<path opacity="0.6" d="M331.107 215.164L366.557 194.682C367.269 194.267 367.85 194.563 367.85 195.334C367.818 195.77 367.685 196.193 367.461 196.568C367.236 196.943 366.927 197.259 366.557 197.493L331.107 217.975C330.384 218.39 329.803 218.094 329.803 217.323C329.834 216.885 329.969 216.462 330.196 216.087C330.422 215.711 330.735 215.395 331.107 215.164Z" fill="white"/>
<path d="M331.107 226.396L343.133 219.41C343.845 218.995 344.426 219.291 344.426 220.074C344.393 220.51 344.259 220.931 344.035 221.306C343.81 221.681 343.502 221.998 343.133 222.233L331.107 229.183C330.384 229.598 329.803 229.301 329.803 228.519C329.841 228.088 329.978 227.672 330.205 227.303C330.431 226.935 330.74 226.624 331.107 226.396Z" fill="black"/>
<path opacity="0.6" d="M331.107 226.396L343.133 219.41C343.845 218.995 344.426 219.291 344.426 220.074C344.393 220.51 344.259 220.931 344.035 221.306C343.81 221.681 343.502 221.998 343.133 222.233L331.107 229.183C330.384 229.598 329.803 229.301 329.803 228.519C329.841 228.088 329.978 227.672 330.205 227.303C330.431 226.935 330.74 226.624 331.107 226.396Z" fill="white"/>
<path d="M331.107 237.663L343.133 230.701C343.845 230.286 344.426 230.582 344.426 231.365C344.393 231.8 344.259 232.222 344.035 232.597C343.81 232.972 343.502 233.289 343.133 233.523L331.107 240.473C330.384 240.889 329.803 240.592 329.803 239.809C329.834 239.374 329.969 238.952 330.196 238.578C330.423 238.205 330.735 237.891 331.107 237.663Z" fill="black"/>
<path opacity="0.6" d="M331.107 237.663L343.133 230.701C343.845 230.286 344.426 230.582 344.426 231.365C344.393 231.8 344.259 232.222 344.035 232.597C343.81 232.972 343.502 233.289 343.133 233.523L331.107 240.473C330.384 240.889 329.803 240.592 329.803 239.809C329.834 239.374 329.969 238.952 330.196 238.578C330.423 238.205 330.735 237.891 331.107 237.663Z" fill="white"/>
<path d="M331.107 248.918L343.133 241.944C343.845 241.529 344.426 241.814 344.426 242.596C344.395 243.032 344.262 243.455 344.037 243.83C343.813 244.205 343.503 244.522 343.133 244.755L331.107 251.705C330.384 252.12 329.803 251.823 329.803 251.053C329.838 250.619 329.974 250.201 330.201 249.83C330.427 249.459 330.738 249.147 331.107 248.918Z" fill="black"/>
<path opacity="0.6" d="M331.107 248.918L343.133 241.944C343.845 241.529 344.426 241.814 344.426 242.596C344.395 243.032 344.262 243.455 344.037 243.83C343.813 244.205 343.503 244.522 343.133 244.755L331.107 251.705C330.384 252.12 329.803 251.823 329.803 251.053C329.838 250.619 329.974 250.201 330.201 249.83C330.427 249.459 330.738 249.147 331.107 248.918Z" fill="white"/>
<path d="M331.107 260.173L343.133 253.223C343.845 252.808 344.426 253.104 344.426 253.875C344.395 254.311 344.262 254.734 344.037 255.109C343.813 255.484 343.503 255.8 343.133 256.034L331.107 262.984C330.384 263.399 329.803 263.102 329.803 262.331C329.834 261.894 329.969 261.471 330.196 261.095C330.422 260.72 330.735 260.404 331.107 260.173Z" fill="black"/>
<path opacity="0.6" d="M331.107 260.173L343.133 253.223C343.845 252.808 344.426 253.104 344.426 253.875C344.395 254.311 344.262 254.734 344.037 255.109C343.813 255.484 343.503 255.8 343.133 256.034L331.107 262.984C330.384 263.399 329.803 263.102 329.803 262.331C329.834 261.894 329.969 261.471 330.196 261.095C330.422 260.72 330.735 260.404 331.107 260.173Z" fill="white"/>
<path d="M371.586 191.776L387.004 182.905C387.715 182.49 388.308 182.786 388.308 183.557C388.275 183.994 388.139 184.417 387.913 184.792C387.686 185.167 387.375 185.483 387.004 185.716L371.586 194.587C370.874 195.002 370.293 194.706 370.293 193.935C370.324 193.499 370.457 193.076 370.682 192.701C370.906 192.326 371.216 192.01 371.586 191.776Z" fill="black"/>
<path opacity="0.6" d="M371.586 191.776L387.004 182.905C387.715 182.49 388.308 182.786 388.308 183.557C388.275 183.994 388.139 184.417 387.913 184.792C387.686 185.167 387.375 185.483 387.004 185.716L371.586 194.587C370.874 195.002 370.293 194.706 370.293 193.935C370.324 193.499 370.457 193.076 370.682 192.701C370.906 192.326 371.216 192.01 371.586 191.776Z" fill="white"/>
<path d="M365.288 251.705L400.678 231.27C401.39 230.855 401.971 231.151 401.971 231.934C401.938 232.37 401.804 232.791 401.58 233.166C401.355 233.541 401.047 233.858 400.678 234.093L365.288 254.527C364.576 254.943 363.983 254.646 363.983 253.863C364.016 253.426 364.151 253.003 364.378 252.628C364.604 252.253 364.916 251.937 365.288 251.705Z" fill="#F5F5F5"/>
<path d="M385.676 251.207L421.125 230.724C421.849 230.309 422.43 230.606 422.43 231.377C422.398 231.814 422.264 232.238 422.037 232.613C421.81 232.988 421.498 233.304 421.125 233.535L385.676 254.017C384.964 254.433 384.383 254.136 384.383 253.365C384.414 252.929 384.547 252.507 384.772 252.132C384.996 251.757 385.306 251.44 385.676 251.207Z" fill="#F5F5F5"/>
<path d="M405.719 228.317L421.137 219.446C421.86 219.031 422.441 219.327 422.441 220.11C422.409 220.547 422.274 220.97 422.047 221.345C421.82 221.72 421.509 222.036 421.137 222.268L405.719 231.14C404.995 231.543 404.414 231.258 404.414 230.475C404.447 230.038 404.582 229.615 404.808 229.24C405.035 228.865 405.347 228.549 405.719 228.317Z" fill="#F5F5F5"/>
<path d="M350.605 215.14L386.055 194.658C386.767 194.243 387.348 194.54 387.348 195.322C387.315 195.758 387.181 196.18 386.956 196.554C386.732 196.929 386.423 197.246 386.055 197.481L350.605 217.951C349.882 218.366 349.301 218.082 349.301 217.299C349.333 216.862 349.468 216.439 349.695 216.064C349.922 215.689 350.234 215.372 350.605 215.14Z" fill="black"/>
<path opacity="0.6" d="M350.605 215.14L386.055 194.658C386.767 194.243 387.348 194.54 387.348 195.322C387.315 195.758 387.181 196.18 386.956 196.554C386.732 196.929 386.423 197.246 386.055 197.481L350.605 217.951C349.882 218.366 349.301 218.082 349.301 217.299C349.333 216.862 349.468 216.439 349.695 216.064C349.922 215.689 350.234 215.372 350.605 215.14Z" fill="white"/>
<path d="M391.084 191.752L406.502 182.881C407.225 182.466 407.806 182.763 407.806 183.534C407.775 183.971 407.64 184.394 407.413 184.77C407.187 185.145 406.874 185.461 406.502 185.692L391.084 194.563C390.372 194.978 389.791 194.682 389.791 193.911C389.822 193.475 389.955 193.053 390.18 192.678C390.405 192.303 390.714 191.986 391.084 191.752Z" fill="black"/>
<path opacity="0.6" d="M391.084 191.752L406.502 182.881C407.225 182.466 407.806 182.763 407.806 183.534C407.775 183.971 407.64 184.394 407.413 184.77C407.187 185.145 406.874 185.461 406.502 185.692L391.084 194.563C390.372 194.978 389.791 194.682 389.791 193.911C389.822 193.475 389.955 193.053 390.18 192.678C390.405 192.303 390.714 191.986 391.084 191.752Z" fill="white"/>
<path d="M504.299 113.18V99.6239L492.902 98.6396C492.737 98.6138 492.569 98.6474 492.427 98.7344C491.977 98.9716 481.184 105.151 481.054 105.234C480.946 105.296 480.854 105.382 480.785 105.485C480.715 105.588 480.67 105.706 480.652 105.829C480.633 105.952 480.643 106.077 480.68 106.196C480.716 106.314 480.779 106.423 480.864 106.515L492.949 119.62L504.299 113.18Z" fill="black"/>
<path d="M492.949 119.667L480.864 106.562C480.753 106.437 480.682 106.282 480.659 106.116C480.637 105.95 480.664 105.781 480.738 105.631C480.812 105.481 480.928 105.356 481.073 105.273C481.218 105.189 481.385 105.151 481.552 105.163L492.949 106.159V119.667Z" fill="black"/>
<path d="M504.288 99.624L492.95 106.123L481.517 105.163C481.383 105.138 481.247 105.138 481.113 105.163C482.027 104.629 491.977 98.9361 492.38 98.7226C492.527 98.6375 492.698 98.6041 492.867 98.6278L504.288 99.624Z" fill="black"/>
<path opacity="0.5" d="M504.288 99.624L492.95 106.123L481.517 105.163C481.383 105.138 481.247 105.138 481.113 105.163C482.027 104.629 491.977 98.9361 492.38 98.7226C492.527 98.6375 492.698 98.6041 492.867 98.6278L504.288 99.624Z" fill="white"/>
<path d="M492.974 90.9306C493.053 89.5062 493.466 88.1203 494.179 86.8845C494.892 85.6486 495.884 84.5971 497.077 83.8146L500.422 81.834C501.694 81.1852 503.103 80.847 504.531 80.847C505.96 80.847 507.368 81.1852 508.641 81.834L544.304 102.47C545.502 103.248 546.5 104.298 547.215 105.535C547.93 106.772 548.343 108.16 548.419 109.586V150.788C548.342 152.214 547.929 153.602 547.214 154.839C546.498 156.075 545.501 157.126 544.304 157.904L540.959 159.837C539.685 160.48 538.277 160.815 536.85 160.815C535.422 160.815 534.015 160.48 532.74 159.837L522.22 153.753L508.534 145.878L497.077 139.26C495.882 138.48 494.887 137.43 494.174 136.193C493.461 134.957 493.05 133.569 492.974 132.144V90.9306Z" fill="black"/>
<path opacity="0.2" d="M548.419 150.788C548.341 152.214 547.928 153.602 547.213 154.839C546.498 156.075 545.501 157.126 544.303 157.904L540.959 159.837C539.799 160.419 538.53 160.749 537.235 160.806C535.939 160.863 534.646 160.646 533.439 160.169C535.384 160.893 536.855 159.802 536.855 157.465V116.228C536.813 114.797 536.404 113.4 535.669 112.172L547.209 105.554C547.944 106.783 548.352 108.179 548.395 109.61L548.419 150.788Z" fill="#474759"/>
<path opacity="0.5" d="M493.104 89.7565C493.59 88.0131 495.179 87.4557 497.077 88.5705L532.751 109.112C533.967 109.867 534.964 110.926 535.645 112.184L547.197 105.554C546.515 104.299 545.518 103.245 544.303 102.494L508.652 81.834C507.385 81.2005 505.988 80.8706 504.572 80.8706C503.156 80.8706 501.759 81.2005 500.492 81.834L497.136 83.7672C496.091 84.4374 495.194 85.3146 494.5 86.3446C493.807 87.3747 493.331 88.5358 493.104 89.7565Z" fill="white"/>
<path d="M514.915 105.969L501.335 104.072L503.233 129.132L514.915 144.301V105.969Z" fill="#455A64"/>
<path d="M514.914 105.969L528.494 119.762L526.584 142.617L514.914 144.301V105.969Z" fill="#37474F"/>
<path d="M520.501 138.572L523.62 140.375L514.938 109.788L506.269 130.353L509.376 132.156L511.25 127.697L518.627 131.954L520.501 138.572ZM512.353 125.004L514.915 118.908L517.476 127.969L512.353 125.004Z" fill="#FAFAFA"/>
<path d="M504.299 190.08V176.584L492.902 175.587C492.738 175.574 492.574 175.607 492.428 175.682C491.977 175.919 481.184 182.098 481.054 182.181C480.946 182.245 480.854 182.333 480.785 182.437C480.715 182.541 480.67 182.659 480.652 182.783C480.633 182.906 480.643 183.033 480.68 183.152C480.717 183.272 480.78 183.382 480.864 183.474L492.949 196.52L504.299 190.08Z" fill="black"/>
<path d="M492.95 196.568L480.864 183.522C480.747 183.399 480.669 183.243 480.644 183.074C480.618 182.906 480.644 182.734 480.719 182.581C480.794 182.429 480.914 182.303 481.063 182.221C481.212 182.138 481.383 182.104 481.552 182.122L492.95 183.118V196.568Z" fill="#EBEBEB"/>
<path d="M504.287 176.572L492.949 183.071L481.552 182.075C481.419 182.044 481.281 182.044 481.148 182.075C482.062 181.529 492.012 175.848 492.415 175.623C492.564 175.543 492.734 175.51 492.902 175.528L504.287 176.572Z" fill="black"/>
<path d="M504.287 176.572L492.949 183.071L481.552 182.075C481.419 182.044 481.281 182.044 481.148 182.075C482.062 181.529 492.012 175.848 492.415 175.623C492.564 175.543 492.734 175.51 492.902 175.528L504.287 176.572Z" fill="#F5F5F5"/>
<path d="M492.974 167.831C493.05 166.406 493.461 165.018 494.174 163.782C494.887 162.545 495.882 161.495 497.077 160.715L500.422 158.782C501.694 158.133 503.103 157.795 504.531 157.795C505.96 157.795 507.368 158.133 508.641 158.782L544.304 179.371C545.501 180.149 546.498 181.199 547.214 182.436C547.929 183.672 548.342 185.06 548.419 186.487V227.712C548.343 229.139 547.93 230.527 547.215 231.763C546.5 233 545.502 234.05 544.304 234.828L540.959 236.761C539.686 237.41 538.278 237.748 536.85 237.748C535.421 237.748 534.013 237.41 532.74 236.761L522.22 230.689L508.534 222.778L497.077 216.172C495.883 215.391 494.889 214.34 494.176 213.104C493.464 211.868 493.052 210.481 492.974 209.056V167.831Z" fill="#EBEBEB"/>
<path d="M548.419 227.712C548.342 229.139 547.929 230.527 547.214 231.764C546.499 233 545.502 234.05 544.303 234.828L540.959 236.761C539.8 237.345 538.531 237.677 537.235 237.734C535.939 237.792 534.645 237.573 533.439 237.093C535.384 237.829 536.855 236.737 536.855 234.389V193.164C536.814 191.736 536.406 190.343 535.669 189.12L547.233 182.442C547.969 183.666 548.378 185.059 548.419 186.487V227.712Z" fill="#E0E0E0"/>
<path d="M493.104 166.657C493.59 164.913 495.179 164.356 497.077 165.471L532.751 186.06C533.967 186.815 534.964 187.873 535.645 189.131L547.197 182.466C546.516 181.208 545.518 180.149 544.303 179.394L508.652 158.793C507.378 158.15 505.97 157.815 504.543 157.815C503.115 157.815 501.707 158.15 500.433 158.793L497.077 160.727C496.049 161.396 495.167 162.267 494.484 163.286C493.801 164.305 493.332 165.451 493.104 166.657Z" fill="#F5F5F5"/>
<path d="M514.915 193.021L517.903 187.376L528.494 193.496L514.915 219.03L501.335 177.805L511.914 183.913L514.915 193.021Z" fill="black"/>
<path opacity="0.15" d="M514.915 193.021L517.903 187.376L528.494 193.496L514.915 219.03L501.335 177.805L511.914 183.913L514.915 193.021Z" fill="#474759"/>
<path d="M514.914 193.021L511.914 183.925L507.17 181.197C510.953 192.689 514.891 204.621 514.891 204.621L522.6 190.104L517.856 187.376L514.914 193.021Z" fill="#37474F"/>
<path d="M504.299 266.992V253.484L492.902 252.488C492.738 252.474 492.574 252.507 492.428 252.582L481.054 259.082C480.946 259.146 480.854 259.233 480.785 259.337C480.715 259.441 480.67 259.559 480.652 259.683C480.633 259.807 480.643 259.933 480.68 260.053C480.717 260.172 480.78 260.282 480.864 260.374L492.949 273.42L504.299 266.992Z" fill="black"/>
<path d="M492.95 273.468L480.864 260.422C480.747 260.299 480.669 260.143 480.644 259.975C480.618 259.806 480.644 259.634 480.719 259.482C480.794 259.329 480.914 259.203 481.063 259.121C481.212 259.039 481.383 259.004 481.552 259.022L492.95 260.019V273.468Z" fill="#37474F"/>
<path d="M504.287 253.484L492.949 259.971L481.552 258.975C481.419 258.944 481.281 258.944 481.148 258.975L492.415 252.523C492.566 252.448 492.734 252.416 492.902 252.428L504.287 253.484Z" fill="black"/>
<path d="M504.287 253.484L492.949 259.971L481.552 258.975C481.419 258.944 481.281 258.944 481.148 258.975L492.415 252.523C492.566 252.448 492.734 252.416 492.902 252.428L504.287 253.484Z" fill="#455A64"/>
<path d="M492.974 244.731C493.052 243.306 493.464 241.92 494.176 240.684C494.889 239.447 495.883 238.396 497.077 237.615L500.422 235.682C501.696 235.039 503.104 234.704 504.531 234.704C505.959 234.704 507.366 235.039 508.641 235.682L544.304 256.271C545.5 257.051 546.496 258.101 547.211 259.337C547.926 260.574 548.34 261.961 548.419 263.387V304.577C548.343 306.003 547.93 307.392 547.215 308.628C546.5 309.865 545.502 310.915 544.304 311.693L540.959 313.626C539.686 314.275 538.278 314.613 536.85 314.613C535.421 314.613 534.013 314.275 532.74 313.626L522.22 307.554L508.534 299.643L497.077 293.037C495.882 292.257 494.887 291.206 494.174 289.97C493.461 288.733 493.05 287.346 492.974 285.921V244.731Z" fill="#37474F"/>
<path d="M548.419 304.589C548.342 306.015 547.929 307.403 547.214 308.64C546.499 309.877 545.502 310.927 544.303 311.705L540.959 313.638C539.8 314.222 538.531 314.554 537.235 314.611C535.939 314.668 534.645 314.45 533.439 313.97C535.384 314.705 536.855 313.614 536.855 311.266V270.076C536.813 268.645 536.404 267.248 535.669 266.02L547.233 259.343C547.968 260.571 548.376 261.968 548.419 263.399V304.589Z" fill="#263238"/>
<path d="M493.104 243.569C493.59 241.825 495.179 241.268 497.077 242.383L532.751 262.984C533.966 263.734 534.964 264.789 535.645 266.043L547.197 259.378C546.516 258.12 545.518 257.061 544.303 256.306L508.652 235.706C507.378 235.062 505.97 234.727 504.543 234.727C503.115 234.727 501.707 235.062 500.433 235.706L497.077 237.651C496.049 238.317 495.167 239.185 494.484 240.203C493.801 241.22 493.331 242.365 493.104 243.569Z" fill="#455A64"/>
<path d="M522.849 276.208C523.691 271.938 523.347 268.012 521.663 265.783C521.302 265.259 520.821 264.831 520.259 264.534C519.697 264.236 519.072 264.079 518.437 264.075H518.14C517.006 264.186 515.922 264.595 514.997 265.261C512.625 260.778 510.253 258.026 508.557 258.026H508.308C508.081 258.07 507.866 258.166 507.681 258.305C507.496 258.445 507.346 258.626 507.241 258.833C506.423 260.197 506.375 263.15 506.992 267.028C505.521 266.615 503.952 266.728 502.556 267.348C502.11 267.609 501.744 267.989 501.501 268.446C501.259 268.902 501.147 269.417 501.181 269.934C501.181 272.507 503.446 276.041 506.968 279.422C506.126 283.691 506.47 287.617 508.154 289.847C508.519 290.326 508.974 290.729 509.494 291.033C510.063 291.363 510.71 291.535 511.368 291.531C511.793 291.528 512.216 291.468 512.625 291.353C513.442 291.087 514.207 290.686 514.891 290.167C516.8 293.725 518.71 296.298 520.24 297.188C520.596 297.409 521.006 297.532 521.426 297.544C521.504 297.555 521.584 297.555 521.663 297.544C521.892 297.5 522.108 297.404 522.295 297.265C522.482 297.125 522.635 296.945 522.742 296.737C523.56 295.373 523.596 292.42 522.979 288.518C523.601 288.635 524.232 288.699 524.865 288.708C525.709 288.742 526.548 288.554 527.296 288.162C527.742 287.901 528.106 287.52 528.349 287.064C528.592 286.608 528.704 286.093 528.672 285.577C528.636 283.11 526.371 279.576 522.849 276.208ZM518.781 283.074C518.383 283.789 517.948 284.482 517.476 285.15C516.693 284.77 515.863 284.343 514.986 283.833C514.108 283.324 513.266 282.802 512.471 282.256C512.009 281.07 511.546 279.813 511.107 278.508C510.669 277.204 510.289 275.994 509.921 274.808C510.253 274.073 510.609 273.337 511.012 272.614C511.416 271.89 511.866 271.179 512.305 270.538C513.1 270.918 513.93 271.345 514.808 271.855C515.685 272.365 516.61 272.946 517.452 273.515C517.915 274.701 518.366 275.887 518.816 277.251C519.267 278.615 519.587 279.623 519.907 280.738C519.599 281.509 519.208 282.268 518.781 283.074ZM519.967 277.014C519.706 276.231 519.433 275.46 519.16 274.713C519.955 275.306 520.702 275.899 521.402 276.54C521.188 277.358 520.939 278.2 520.631 279.042C520.394 278.378 520.18 277.702 519.943 277.014H519.967ZM515.009 270.325C514.4 269.977 513.807 269.657 513.23 269.364C513.743 268.727 514.306 268.132 514.914 267.585C515.472 268.712 516.041 269.957 516.61 271.297C516.065 270.965 515.531 270.633 514.986 270.325H515.009ZM509.969 271.369C509.755 271.76 509.542 272.151 509.352 272.555C509.032 271.309 508.759 270.183 508.546 269.056C509.351 269.284 510.143 269.557 510.918 269.874C510.538 270.408 510.23 270.847 509.981 271.369H509.969ZM509.969 278.746C510.242 279.54 510.514 280.311 510.799 281.118C509.957 280.489 509.162 279.837 508.427 279.184C508.658 278.281 508.935 277.391 509.257 276.516C509.494 277.227 509.732 277.975 509.981 278.71L509.969 278.746ZM514.808 285.363C515.413 285.707 515.994 286.016 516.575 286.312C516.087 286.926 515.551 287.501 514.974 288.032C514.428 286.941 513.883 285.755 513.349 284.474C513.847 284.77 514.333 285.079 514.831 285.363H514.808ZM519.848 284.32C520.097 283.881 520.323 283.442 520.536 282.991C520.88 284.296 521.165 285.529 521.39 286.668C520.559 286.432 519.744 286.147 518.947 285.814C519.279 285.34 519.587 284.842 519.872 284.32H519.848ZM518.235 272.46C517.441 270.432 516.61 268.57 515.78 266.897C516.377 266.452 517.047 266.114 517.761 265.901C518.089 265.809 518.428 265.761 518.769 265.759C519.246 265.747 519.718 265.866 520.133 266.103C520.445 266.291 520.719 266.536 520.939 266.826C522.066 268.321 522.374 271.464 521.663 275.128C520.583 274.174 519.454 273.275 518.283 272.436L518.235 272.46ZM511.677 268.676C510.551 268.169 509.39 267.745 508.202 267.407C507.609 263.731 507.68 261.205 508.273 260.22C508.314 260.103 508.383 259.998 508.474 259.913C508.565 259.828 508.675 259.767 508.795 259.734H508.901C509.13 259.747 509.351 259.82 509.542 259.947C510.669 260.6 512.293 262.711 514.061 266.008C513.18 266.801 512.388 267.688 511.7 268.653L511.677 268.676ZM508.569 274.215C508.033 275.477 507.593 276.777 507.253 278.105C504.217 275.164 502.402 272.317 502.402 270.574C502.389 270.251 502.467 269.932 502.626 269.651C502.785 269.37 503.02 269.139 503.303 268.985C503.928 268.674 504.622 268.527 505.32 268.558C505.974 268.566 506.626 268.642 507.265 268.783C507.609 270.408 508.047 272.258 508.593 274.191L508.569 274.215ZM511.665 283.371C512.448 285.316 513.254 287.131 514.037 288.791C513.216 289.442 512.231 289.852 511.19 289.977C510.737 290.022 510.28 289.949 509.865 289.764C509.449 289.578 509.088 289.288 508.818 288.921C507.692 287.415 507.383 284.272 508.095 280.619C509.241 281.594 510.441 282.505 511.689 283.347L511.665 283.371ZM518.093 287.059C519.243 287.586 520.433 288.022 521.651 288.364C522.256 292.052 522.185 294.591 521.592 295.587C521.539 295.692 521.464 295.785 521.371 295.859C521.279 295.932 521.172 295.985 521.058 296.014C519.979 296.203 517.951 293.796 515.733 289.609C516.622 288.835 517.421 287.964 518.117 287.012L518.093 287.059ZM521.271 281.367C521.753 280.15 522.149 278.902 522.457 277.631C525.494 280.572 527.308 283.418 527.308 285.162C527.318 285.484 527.24 285.803 527.081 286.083C526.922 286.363 526.688 286.594 526.407 286.751C525.187 287.251 523.834 287.331 522.564 286.976C522.315 285.221 521.841 283.335 521.295 281.343L521.271 281.367Z" fill="black"/>
<path d="M517.322 279.232C517.322 281.011 516.243 281.829 514.95 281.058C514.222 280.528 513.628 279.835 513.216 279.033C512.804 278.232 512.585 277.346 512.578 276.445C512.578 274.678 513.657 273.859 514.95 274.63C515.677 275.159 516.27 275.851 516.682 276.65C517.094 277.449 517.313 278.333 517.322 279.232Z" fill="black"/>
<g opacity="0.65">
<path opacity="0.65" d="M522.849 276.208C523.691 271.938 523.347 268.012 521.663 265.783C521.302 265.259 520.821 264.831 520.259 264.534C519.697 264.236 519.072 264.079 518.437 264.075H518.14C517.006 264.186 515.922 264.595 514.997 265.261C512.625 260.778 510.253 258.026 508.557 258.026H508.308C508.081 258.07 507.866 258.166 507.681 258.305C507.496 258.445 507.346 258.626 507.241 258.833C506.423 260.197 506.375 263.15 506.992 267.028C505.521 266.615 503.952 266.728 502.556 267.348C502.11 267.609 501.744 267.989 501.501 268.446C501.259 268.902 501.147 269.417 501.181 269.934C501.181 272.507 503.446 276.041 506.968 279.422C506.126 283.691 506.47 287.617 508.154 289.847C508.519 290.326 508.974 290.729 509.494 291.033C510.063 291.363 510.71 291.535 511.368 291.531C511.793 291.528 512.216 291.468 512.625 291.353C513.442 291.087 514.207 290.686 514.891 290.167C516.8 293.725 518.71 296.298 520.24 297.188C520.596 297.409 521.006 297.532 521.426 297.544C521.504 297.555 521.584 297.555 521.663 297.544C521.892 297.5 522.108 297.404 522.295 297.265C522.482 297.125 522.635 296.945 522.742 296.737C523.56 295.373 523.596 292.42 522.979 288.518C523.601 288.635 524.232 288.699 524.865 288.708C525.709 288.742 526.548 288.554 527.296 288.162C527.742 287.901 528.106 287.52 528.349 287.064C528.592 286.608 528.704 286.093 528.672 285.577C528.636 283.11 526.371 279.576 522.849 276.208ZM518.781 283.074C518.383 283.789 517.948 284.482 517.476 285.15C516.693 284.77 515.863 284.343 514.986 283.833C514.108 283.324 513.266 282.802 512.471 282.256C512.009 281.07 511.546 279.813 511.107 278.508C510.669 277.204 510.289 275.994 509.921 274.808C510.253 274.073 510.609 273.337 511.012 272.614C511.416 271.89 511.866 271.179 512.305 270.538C513.1 270.918 513.93 271.345 514.808 271.855C515.685 272.365 516.61 272.946 517.452 273.515C517.915 274.701 518.366 275.887 518.816 277.251C519.267 278.615 519.587 279.623 519.907 280.738C519.599 281.509 519.208 282.268 518.781 283.074ZM519.967 277.014C519.706 276.231 519.433 275.46 519.16 274.713C519.955 275.306 520.702 275.899 521.402 276.54C521.188 277.358 520.939 278.2 520.631 279.042C520.394 278.378 520.18 277.702 519.943 277.014H519.967ZM515.009 270.325C514.4 269.977 513.807 269.657 513.23 269.364C513.743 268.727 514.306 268.132 514.914 267.585C515.472 268.712 516.041 269.957 516.61 271.297C516.065 270.965 515.531 270.633 514.986 270.325H515.009ZM509.969 271.369C509.755 271.76 509.542 272.151 509.352 272.555C509.032 271.309 508.759 270.183 508.546 269.056C509.351 269.284 510.143 269.557 510.918 269.874C510.538 270.408 510.23 270.847 509.981 271.369H509.969ZM509.969 278.746C510.242 279.54 510.514 280.311 510.799 281.118C509.957 280.489 509.162 279.837 508.427 279.184C508.658 278.281 508.935 277.391 509.257 276.516C509.494 277.227 509.732 277.975 509.981 278.71L509.969 278.746ZM514.808 285.363C515.413 285.707 515.994 286.016 516.575 286.312C516.087 286.926 515.551 287.501 514.974 288.032C514.428 286.941 513.883 285.755 513.349 284.474C513.847 284.77 514.333 285.079 514.831 285.363H514.808ZM519.848 284.32C520.097 283.881 520.323 283.442 520.536 282.991C520.88 284.296 521.165 285.529 521.39 286.668C520.559 286.432 519.744 286.147 518.947 285.814C519.279 285.34 519.587 284.842 519.872 284.32H519.848ZM518.235 272.46C517.441 270.432 516.61 268.57 515.78 266.897C516.377 266.452 517.047 266.114 517.761 265.901C518.089 265.809 518.428 265.761 518.769 265.759C519.246 265.747 519.718 265.866 520.133 266.103C520.445 266.291 520.719 266.536 520.939 266.826C522.066 268.321 522.374 271.464 521.663 275.128C520.583 274.174 519.454 273.275 518.283 272.436L518.235 272.46ZM511.677 268.676C510.551 268.169 509.39 267.745 508.202 267.407C507.609 263.731 507.68 261.205 508.273 260.22C508.314 260.103 508.383 259.998 508.474 259.913C508.565 259.828 508.675 259.767 508.795 259.734H508.901C509.13 259.747 509.351 259.82 509.542 259.947C510.669 260.6 512.293 262.711 514.061 266.008C513.18 266.801 512.388 267.688 511.7 268.653L511.677 268.676ZM508.569 274.215C508.033 275.477 507.593 276.777 507.253 278.105C504.217 275.164 502.402 272.317 502.402 270.574C502.389 270.251 502.467 269.932 502.626 269.651C502.785 269.37 503.02 269.139 503.303 268.985C503.928 268.674 504.622 268.527 505.32 268.558C505.974 268.566 506.626 268.642 507.265 268.783C507.609 270.408 508.047 272.258 508.593 274.191L508.569 274.215ZM511.665 283.371C512.448 285.316 513.254 287.131 514.037 288.791C513.216 289.442 512.231 289.852 511.19 289.977C510.737 290.022 510.28 289.949 509.865 289.764C509.449 289.578 509.088 289.288 508.818 288.921C507.692 287.415 507.383 284.272 508.095 280.619C509.241 281.594 510.441 282.505 511.689 283.347L511.665 283.371ZM518.093 287.059C519.243 287.586 520.433 288.022 521.651 288.364C522.256 292.052 522.185 294.591 521.592 295.587C521.539 295.692 521.464 295.785 521.371 295.859C521.279 295.932 521.172 295.985 521.058 296.014C519.979 296.203 517.951 293.796 515.733 289.609C516.622 288.835 517.421 287.964 518.117 287.012L518.093 287.059ZM521.271 281.367C521.753 280.15 522.149 278.902 522.457 277.631C525.494 280.572 527.308 283.418 527.308 285.162C527.318 285.484 527.24 285.803 527.081 286.083C526.922 286.363 526.688 286.594 526.407 286.751C525.187 287.251 523.834 287.331 522.564 286.976C522.315 285.221 521.841 283.335 521.295 281.343L521.271 281.367Z" fill="white"/>
<path opacity="0.65" d="M517.322 279.232C517.322 281.011 516.243 281.829 514.95 281.058C514.222 280.528 513.628 279.835 513.216 279.033C512.804 278.232 512.585 277.346 512.578 276.445C512.578 274.678 513.657 273.859 514.95 274.63C515.677 275.159 516.27 275.851 516.682 276.65C517.094 277.449 517.313 278.333 517.322 279.232Z" fill="white"/>
</g>
<path d="M466.228 325.225C470.865 326.126 472.976 327.704 475.609 334.132C478.242 340.56 482.95 356.215 484.041 360.52C484.539 362.442 472.359 379.662 472.881 379.401C473.035 379.33 468.137 371.099 468.137 371.099L474.126 359.666L469.869 349.253L466.228 325.225Z" fill="#FFA8A7"/>
<path d="M464.663 325.32C464.663 325.32 468.885 324.561 471.684 326.885C474.483 329.21 474.91 330.764 476.808 335.531C478.705 340.299 481.812 350.238 481.812 350.238C481.812 350.238 480.911 355.575 472.218 356.63L464.77 339.848C464.77 339.848 462.172 329.708 464.663 325.32Z" fill="black"/>
<path d="M455.933 463.026C455.673 464.533 455.766 466.08 456.206 467.545C456.976 469.332 458.244 470.86 459.859 471.945C461.029 473.031 462.049 474.268 462.895 475.622C463.721 477.11 464.792 478.449 466.062 479.583C467.046 480.437 469.833 480.52 471.173 479.951C472.514 479.381 472.976 478.883 472.893 476.737C472.81 474.59 466.299 473.855 466.299 473.855L455.933 463.026Z" fill="#455A64"/>
<path d="M472.027 470.344C472.573 470.545 472.715 471.601 472.798 473.712C472.869 475.301 473.534 477.626 471.34 478.622C470.367 479.012 469.3 479.108 468.273 478.897C467.247 478.686 466.304 478.178 465.564 477.436C464.069 475.562 463.061 473.878 460.938 471.637C459.088 469.656 457.179 468.992 456.349 465.031C455.827 462.493 456.242 461.473 457.95 460.702C460.322 459.705 464.01 462.979 465.848 463.489C467.461 463.904 471.494 470.13 472.027 470.344Z" fill="black"/>
<path opacity="0.2" d="M472.027 470.344C472.573 470.545 472.715 471.601 472.798 473.712C472.869 475.301 473.534 477.626 471.34 478.622C470.367 479.012 469.3 479.108 468.273 478.897C467.247 478.686 466.304 478.178 465.564 477.436C464.069 475.562 463.061 473.878 460.938 471.637C459.088 469.656 457.179 468.992 456.349 465.031C455.827 462.493 456.242 461.473 457.95 460.702C460.322 459.705 464.01 462.979 465.848 463.489C467.461 463.904 471.494 470.13 472.027 470.344Z" fill="#474759"/>
<path d="M465.872 463.453L465.564 463.346C464.494 463.403 463.458 463.743 462.563 464.33C461.667 464.918 460.943 465.732 460.464 466.691C460.156 467.391 461.116 467.877 461.65 467.391C462.16 466.461 462.891 465.671 463.778 465.09C464.665 464.509 465.682 464.154 466.738 464.058C466.491 463.802 466.197 463.596 465.872 463.453Z" fill="#FAFAFA"/>
<path d="M467.391 464.651C466.385 464.763 465.423 465.125 464.594 465.706C463.765 466.286 463.096 467.065 462.647 467.972C462.338 468.66 463.299 469.158 463.833 468.66C464.265 467.853 464.87 467.152 465.604 466.605C466.337 466.057 467.182 465.678 468.078 465.493C467.889 465.197 467.64 464.912 467.391 464.651Z" fill="#FAFAFA"/>
<path d="M426.343 495.535C425.987 497.314 426.627 498.239 428.928 499.567C431.948 501.058 435.433 501.301 438.63 500.243C442.425 499.14 444.24 497.492 445.817 497.088C447.394 496.685 451.296 496.661 452.85 496.211C454.404 495.76 454.38 494.953 454.38 493.08L426.343 495.535Z" fill="#455A64"/>
<path d="M452.85 484.042C452.85 484.042 453.585 486.296 454.036 488.253C454.356 489.818 454.807 492.415 454.261 493.59C453.716 494.764 451.581 495.523 448.332 495.499C446.197 495.499 442.852 496.934 440.575 498.203C438.28 499.338 435.68 499.7 433.163 499.235C430.221 498.891 427.233 497.183 426.711 495.973C426.189 494.764 426.106 493.839 433.032 490.885C433.103 490.885 441.073 487.92 444.418 484.22L452.85 484.042Z" fill="black"/>
<g opacity="0.2">
<path opacity="0.2" d="M452.85 484.042C452.85 484.042 453.585 486.296 454.036 488.253C454.356 489.818 454.807 492.415 454.261 493.59C453.716 494.764 451.581 495.523 448.332 495.499C446.197 495.499 442.852 496.934 440.575 498.203C438.28 499.338 435.68 499.7 433.163 499.235C430.221 498.891 427.233 497.183 426.711 495.973C426.189 494.764 426.106 493.839 433.032 490.885C433.103 490.885 441.073 487.92 444.418 484.22L452.85 484.042Z" fill="#474759"/>
</g>
<path d="M439.531 498.666C439.531 498.666 438.938 492.736 434.111 491.016C429.735 489.474 425.927 492.712 426.343 495.535C426.627 497.42 431.952 501.678 439.531 498.666Z" fill="#FAFAFA"/>
<path d="M435.333 489.901C436.564 490.015 437.723 490.532 438.63 491.372C440.03 492.558 440.065 493.317 440.065 493.317C440.173 493.427 440.312 493.502 440.464 493.529C440.616 493.556 440.773 493.534 440.912 493.467C441.051 493.4 441.165 493.291 441.239 493.156C441.313 493.02 441.342 492.865 441.322 492.712C441.322 492.712 441.002 489.711 437.053 489.154C436.724 489.082 436.381 489.115 436.072 489.249C435.763 489.383 435.505 489.611 435.333 489.901Z" fill="#FAFAFA"/>
<path d="M438.096 488.632C439.334 488.641 440.524 489.115 441.428 489.96C442.816 491.146 442.828 492.06 442.828 492.06C442.935 492.17 443.075 492.244 443.227 492.271C443.379 492.298 443.535 492.277 443.674 492.21C443.813 492.143 443.928 492.034 444.002 491.899C444.075 491.763 444.104 491.608 444.085 491.455C444.085 491.455 443.765 488.454 439.815 487.837C439.481 487.77 439.135 487.81 438.825 487.953C438.516 488.096 438.261 488.334 438.096 488.632Z" fill="#FAFAFA"/>
<path d="M440.836 487.007C442.073 486.933 443.292 487.327 444.252 488.11C445.722 489.178 445.793 490.103 445.793 490.103C445.909 490.195 446.05 490.251 446.198 490.262C446.346 490.273 446.494 490.239 446.622 490.165C446.75 490.09 446.853 489.979 446.917 489.845C446.98 489.711 447.002 489.561 446.979 489.415C446.979 489.415 446.446 486.438 442.461 486.094C442.129 486.059 441.794 486.129 441.503 486.292C441.212 486.456 440.979 486.706 440.836 487.007Z" fill="#FAFAFA"/>
<path d="M472.027 466.94V470.972C471.059 471.592 469.94 471.937 468.79 471.968C467.641 471.999 466.505 471.717 465.504 471.15C465.386 470.901 465.065 466.94 465.065 466.94H472.027Z" fill="#FFA8A7"/>
<path d="M452.85 481.255C452.85 481.255 452.85 483.176 452.85 484.268C452.85 485.359 451.569 486.995 448.224 486.877C445.852 486.794 444.239 486.153 444.322 484.22V481.433L452.85 481.255Z" fill="#FFA8A7"/>
<path d="M476.392 432.712C476.179 424.197 474.436 420.461 474.436 420.461C474.436 420.461 475.076 409.953 476.499 397.085C478.646 377.504 477.685 373.709 473.795 364.885C473.795 364.885 440.813 361.552 439.816 375.251C438.559 392.317 438.417 427.031 438.867 433.056C439.318 439.081 439.306 433.519 440.777 445.723C441.963 455.377 444.335 481.433 444.335 481.433C445.662 482.105 447.134 482.44 448.621 482.409C450.108 482.378 451.564 481.981 452.862 481.255C452.862 481.255 455.554 449.375 455.234 442.414C455.201 438.841 454.927 435.275 454.416 431.74C454.416 431.74 458.27 404.236 458.863 399.813C458.863 399.813 459.397 407.735 459.86 413.76C460.322 419.785 460.275 424.647 461.544 437.112C462.54 446.897 464.948 468.019 464.948 468.019C466.108 468.49 467.361 468.687 468.61 468.595C469.858 468.502 471.069 468.123 472.147 467.486C472.147 467.486 476.57 439.591 476.392 432.712Z" fill="#455A64"/>
<path d="M457.463 467.924C457.463 467.924 457.641 463.18 464.01 462.564L464.377 462.765C463.66 461.617 462.546 460.773 461.246 460.393C460.386 460.08 459.448 460.048 458.568 460.302C457.687 460.555 456.91 461.081 456.348 461.805C455.233 463.192 456.36 467.011 457.463 467.924Z" fill="#FAFAFA"/>
<path d="M449.34 320.789L450.894 333.527L462.089 332.519L460.82 318.37L449.34 320.789Z" fill="#FFA8A7"/>
<path d="M473.024 331.38C471.838 328.036 468.968 324.525 464.722 325.32C463.536 325.533 462.611 325.688 461.555 325.901C461.46 328.842 455.922 330.36 450.419 328.581C448.758 329.056 447.24 329.542 445.864 330.028C441.915 331.44 440.338 337.986 440.243 349.004C440.148 360.022 438.559 381.892 438.559 381.892C438.559 381.892 446.861 386.292 462.362 383.481C477.863 380.67 477.614 375.393 477.614 375.393C477.614 375.393 477.305 368.965 470.308 358.172C476.25 342.386 474.85 336.362 473.024 331.38Z" fill="#37474F"/>
<path d="M441.014 304.6C440.339 303.076 440.064 301.406 440.213 299.746C440.363 298.086 440.932 296.491 441.868 295.112C445.628 289.182 452.874 288.198 461.461 290.511C464.457 291.43 467.097 293.251 469.02 295.726C470.943 298.201 472.055 301.209 472.206 304.339C472.621 310.637 455.056 315.286 455.448 319.603L441.014 304.6Z" fill="#263238"/>
<path d="M440.646 306.996C440.646 306.996 438.274 310.815 438.594 311.206C439.184 311.576 439.834 311.837 440.515 311.977L440.646 306.996Z" fill="#F28F8F"/>
<path d="M447.916 294.887C445.544 296.192 441.417 298.611 440.586 307.542C439.732 316.709 441.844 319.829 443.124 320.991C443.99 321.774 448.331 321.952 450.573 321.193C453.383 320.232 459.432 317.042 462.183 312.25C465.421 306.605 465.919 299.204 461.934 296.405C459.917 294.986 457.573 294.102 455.121 293.836C452.669 293.571 450.19 293.932 447.916 294.887Z" fill="#FFA8A7"/>
<path d="M448.035 305.668C446.491 305.092 445.133 304.106 444.107 302.817C443.082 301.528 442.426 299.984 442.211 298.35C441.322 292.527 448.58 290.048 448.58 290.048L448.035 305.668Z" fill="#263238"/>
<path d="M447.205 295.314C447.205 295.314 445.331 303.711 447.999 308.906C447.999 308.906 449.387 305.62 452.198 306.474C455.009 307.328 454.89 311.1 452.72 313.068C452.171 313.634 451.473 314.033 450.706 314.218C449.94 314.403 449.137 314.366 448.391 314.112C449.337 316.488 450.762 318.644 452.577 320.445C452.577 320.445 460.879 324.169 468.161 316.01C474.72 308.597 473.498 295.682 463.417 292.634C453.336 289.586 447.205 295.314 447.205 295.314Z" fill="#263238"/>
<path d="M481.812 328.154C478.788 328.154 475.888 326.954 473.748 324.817C471.609 322.68 470.405 319.781 470.402 316.757V297.686C473.426 297.686 476.326 298.886 478.466 301.024C480.605 303.161 481.809 306.06 481.812 309.083V328.154Z" fill="#263238"/>
<path d="M471.672 295.184C471.426 295.263 471.198 295.39 471.001 295.558C470.804 295.725 470.642 295.93 470.524 296.16C470.406 296.39 470.335 296.641 470.314 296.899C470.293 297.157 470.323 297.416 470.403 297.662L474.151 296.476C474.074 296.228 473.948 295.997 473.782 295.798C473.615 295.598 473.411 295.434 473.181 295.314C472.95 295.193 472.698 295.12 472.439 295.098C472.18 295.075 471.92 295.105 471.672 295.184Z" fill="#263238"/>
<path d="M417.471 350.214C415.847 348.352 415.574 344.284 413.415 341.426C411.257 338.567 411.636 335.757 410.284 337.026C408.932 338.295 409.94 342.956 409.94 342.956C409.94 342.956 407.414 347.64 407.201 350.072C406.987 352.503 413.32 358.48 413.32 358.48L417.471 350.214Z" fill="#FFA8A7"/>
<path d="M410.261 342.6C410.261 342.6 407.687 346.158 396.124 341.509C392.933 340.204 395.092 347.071 399.006 349.917C402.635 352.55 407.165 353.369 410.794 355.848C410.806 355.468 410.261 342.6 410.261 342.6Z" fill="#FFA8A7"/>
<path d="M446.778 329.708C443.493 330.894 440.611 332.175 437.527 337.951C433.578 345.375 426.402 359.915 426.402 359.915L417.472 350.214C417.472 350.214 416.167 348.376 413.748 352.384C411.328 356.393 412.396 357.496 412.396 357.496C412.396 357.496 422.809 371.443 424.718 373.21C426.628 374.978 429.771 373.614 431.834 370.838C433.898 368.063 444.477 348.862 444.477 348.862C444.477 348.862 451.439 336.705 446.778 329.708Z" fill="#FFA8A7"/>
<path d="M448.379 329.174C446.281 329.358 444.263 330.066 442.51 331.232C440.757 332.399 439.325 333.987 438.345 335.852C434.408 342.968 430.257 350.997 430.257 350.997C430.257 350.997 433.115 357.887 440.385 358.409C440.385 357.698 446.315 347.142 448.581 342.624C450.846 338.105 450.609 331.202 448.379 329.174Z" fill="black"/>
<path d="M458.887 399.836L459.515 393.171C463.102 392.638 466.532 391.339 469.573 389.364C469.573 389.364 467.426 392.791 461.555 394.357L460.227 400.868L459.883 413.795L458.887 399.836Z" fill="#37474F"/>
</svg>
