<svg width="731" height="731" viewBox="0 0 731 731" fill="none" xmlns="http://www.w3.org/2000/svg">
<path d="M461.568 587.344C498.638 587.344 528.689 573.022 528.689 555.355C528.689 537.688 498.638 523.367 461.568 523.367C424.499 523.367 394.448 537.688 394.448 555.355C394.448 573.022 424.499 587.344 461.568 587.344Z" fill="#DBDBDB"/>
<path d="M580.472 514.39C609.072 514.39 632.256 503.341 632.256 489.711C632.256 476.082 609.072 465.033 580.472 465.033C551.873 465.033 528.688 476.082 528.688 489.711C528.688 503.341 551.873 514.39 580.472 514.39Z" fill="#DBDBDB"/>
<path d="M211.391 482.796C208.467 467.358 197.765 445.354 184.709 433.088C172.151 421.305 153.51 417.196 146.083 422.635C138.656 428.074 143.525 439.828 157.94 454.156C174.212 470.311 205.455 515.136 211.391 540.531V482.796Z" fill="#FFB13C"/>
<g opacity="0.2">
<path opacity="0.2" d="M211.391 482.796C208.467 467.358 197.765 445.354 184.709 433.088C172.151 421.305 153.51 417.196 146.083 422.635C138.656 428.074 143.525 439.828 157.94 454.156C174.212 470.311 205.455 515.136 211.391 540.531V482.796Z" fill="#474759"/>
</g>
<path d="M211.391 519.946C211.207 519.943 211.032 519.873 210.897 519.749C210.762 519.625 210.677 519.456 210.66 519.273C206.975 480.384 179.782 436.67 153.642 427.562C153.459 427.496 153.31 427.361 153.225 427.186C153.14 427.012 153.127 426.811 153.188 426.626C153.255 426.444 153.389 426.294 153.564 426.21C153.739 426.125 153.94 426.112 154.124 426.173C181.229 435.603 208.35 479.054 212.151 519.142C212.167 519.335 212.108 519.527 211.985 519.677C211.862 519.827 211.686 519.924 211.493 519.946H211.391Z" fill="#363636"/>
<path d="M211.391 559.201C211.391 559.201 206.332 563.236 189.461 561.657C172.589 560.078 163.89 548.016 163.89 542.841C163.89 537.665 179.402 536.774 182.765 523.937C179.344 527.603 174.794 530.017 169.841 530.794C161.069 532.446 154.022 529.639 152.019 513.659C156.342 514.291 160.753 513.926 164.914 512.592C171.858 510.355 173.51 506.539 171.697 505.721C169.885 504.902 160.206 505.721 154.007 503.367C147.808 501.013 152.545 468.732 156.61 466.437C160.674 464.141 179.899 469.551 183.642 472.446C186.975 475.019 191.654 479.478 189.49 488.908C192.053 486.512 194.051 483.575 195.338 480.311C197.151 475.925 198.467 476.948 201.186 478.63C202.819 479.55 204.236 480.809 205.343 482.322C206.45 483.835 207.221 485.567 207.604 487.402C208.262 491.495 207.195 505.618 201.435 510.209C201.435 510.209 206.961 510.911 211.479 501.583C211.479 501.583 220.251 505.121 222.239 510.852C224.227 516.583 226.391 544.639 211.391 559.201Z" fill="#FFB13C"/>
<path d="M212.882 562.388C212.703 562.386 212.531 562.32 212.397 562.202C212.263 562.084 212.175 561.922 212.151 561.744C208.291 530.151 184.271 488.644 160.718 473.06C160.555 472.951 160.442 472.782 160.403 472.59C160.365 472.398 160.405 472.199 160.513 472.036C160.622 471.873 160.79 471.76 160.982 471.722C161.174 471.683 161.374 471.723 161.537 471.831C185.382 487.694 209.783 529.624 213.598 561.569C213.623 561.761 213.571 561.955 213.453 562.108C213.335 562.262 213.161 562.362 212.97 562.388H212.882Z" fill="#363636"/>
<path d="M214.358 566.803C213.485 566.199 212.767 565.399 212.259 564.467C211.751 563.535 211.468 562.498 211.434 561.437V212.151C211.493 211.052 211.812 209.982 212.363 209.029C212.914 208.077 213.683 207.268 214.606 206.668L433.906 80.0299C434.823 79.4549 435.879 79.1407 436.96 79.1211C438.042 79.1015 439.109 79.3771 440.045 79.9184C440.982 80.4597 441.753 81.2462 442.277 82.1932C442.8 83.1402 443.055 84.2119 443.014 85.293L220.498 566.686C219.556 567.187 218.509 567.459 217.442 567.479C216.375 567.499 215.318 567.268 214.358 566.803Z" fill="#E0E0E0"/>
<path d="M217.326 218.788L306.406 160.498L300.47 157.062L214.563 206.668C213.64 207.268 212.871 208.077 212.32 209.029C211.769 209.982 211.45 211.052 211.391 212.151V215.352L217.326 218.788Z" fill="#474759"/>
<path opacity="0.2" d="M217.326 218.788L306.406 160.498L300.47 157.062L214.563 206.668C213.64 207.268 212.871 208.077 212.32 209.029C211.769 209.982 211.45 211.052 211.391 212.151V215.352L217.326 218.788Z" fill="#474759"/>
<path d="M247.078 229.066L212.312 209.066C211.745 210.009 211.428 211.081 211.391 212.18V561.408C211.353 562.488 211.61 563.558 212.134 564.503C212.659 565.447 213.43 566.232 214.367 566.771C215.303 567.311 216.368 567.585 217.449 567.565C218.529 567.545 219.584 567.231 220.499 566.656L247.078 551.379V229.066Z" fill="#263238"/>
<path opacity="0.4" d="M247.078 229.066L212.312 209.066C211.745 210.009 211.428 211.081 211.391 212.18V561.408C211.353 562.488 211.61 563.558 212.134 564.503C212.659 565.447 213.43 566.232 214.367 566.771C215.303 567.311 216.368 567.585 217.449 567.565C218.529 567.545 219.584 567.231 220.499 566.656L247.078 551.379V229.066Z" fill="#263238"/>
<path d="M220.499 566.686L439.799 440.047C440.722 439.448 441.491 438.639 442.042 437.686C442.594 436.734 442.912 435.664 442.972 434.565V85.2931C442.972 83.2755 441.51 82.4568 439.799 83.4656L220.499 210.104C219.576 210.703 218.807 211.512 218.256 212.465C217.705 213.418 217.386 214.487 217.327 215.587V564.858C217.327 566.876 218.745 567.695 220.499 566.686Z" fill="#455A64"/>
<path opacity="0.1" d="M220.499 566.686L439.799 440.047C440.722 439.448 441.491 438.639 442.042 437.686C442.594 436.734 442.912 435.664 442.972 434.565V85.2931C442.972 83.2755 441.51 82.4568 439.799 83.4656L220.499 210.104C219.576 210.703 218.807 211.512 218.256 212.465C217.705 213.418 217.386 214.487 217.327 215.587V564.858C217.327 566.876 218.745 567.695 220.499 566.686Z" fill="#455A64"/>
<path d="M235.543 296.259L288.175 265.85C291.669 263.832 294.505 265.265 294.505 269.052C294.349 271.178 293.695 273.237 292.595 275.063C291.495 276.889 289.981 278.431 288.175 279.563L235.543 309.973C232.034 311.991 229.212 310.558 229.212 306.771C229.365 304.644 230.018 302.584 231.118 300.757C232.218 298.93 233.734 297.389 235.543 296.259Z" fill="#FFB13C"/>
<path d="M235.543 317.839L270.382 297.721C273.876 295.704 276.713 297.137 276.713 300.923C276.557 303.049 275.902 305.109 274.802 306.935C273.703 308.761 272.188 310.303 270.382 311.435L235.543 331.552C232.034 333.57 229.212 332.137 229.212 328.35C229.365 326.223 230.018 324.163 231.118 322.336C232.218 320.509 233.734 318.968 235.543 317.839Z" fill="#FFB13C"/>
<path d="M231.742 354.769L238.555 350.836C240.017 350.032 241.084 350.69 241.084 352.298V360.164C241.036 361.042 240.783 361.897 240.343 362.659C239.904 363.421 239.291 364.069 238.555 364.55L231.742 368.424C230.28 369.243 229.212 368.585 229.212 366.962V359.097C229.27 358.229 229.528 357.386 229.967 356.635C230.406 355.884 231.014 355.245 231.742 354.769Z" fill="#FFB13C"/>
<path opacity="0.2" d="M231.742 354.769L238.555 350.836C240.017 350.032 241.084 350.69 241.084 352.298V360.164C241.036 361.042 240.783 361.897 240.343 362.659C239.904 363.421 239.291 364.069 238.555 364.55L231.742 368.424C230.28 369.243 229.212 368.585 229.212 366.962V359.097C229.27 358.229 229.528 357.386 229.967 356.635C230.406 355.884 231.014 355.245 231.742 354.769Z" fill="#474759"/>
<path d="M231.742 382.211L238.555 378.278C240.017 377.459 241.084 378.117 241.084 379.74V387.606C241.033 388.483 240.778 389.337 240.339 390.098C239.9 390.86 239.289 391.508 238.555 391.992L231.742 395.924C230.28 396.728 229.212 396.071 229.212 394.462V386.597C229.258 385.718 229.51 384.862 229.95 384.1C230.39 383.337 231.004 382.69 231.742 382.211Z" fill="#FFB13C"/>
<g opacity="0.2">
<path opacity="0.2" d="M231.742 382.211L238.555 378.278C240.017 377.459 241.084 378.117 241.084 379.74V387.606C241.033 388.483 240.778 389.337 240.339 390.098C239.9 390.86 239.289 391.508 238.555 391.992L231.742 395.924C230.28 396.728 229.212 396.071 229.212 394.462V386.597C229.258 385.718 229.51 384.862 229.95 384.1C230.39 383.337 231.004 382.69 231.742 382.211Z" fill="#474759"/>
</g>
<path d="M250.192 374.988L291.362 351.202C293.116 350.193 294.535 350.909 294.535 352.81C294.455 353.872 294.126 354.901 293.575 355.813C293.024 356.725 292.266 357.494 291.362 358.058L250.192 381.845C248.438 382.854 247.02 382.138 247.02 380.237C247.099 379.174 247.428 378.146 247.979 377.234C248.53 376.322 249.288 375.553 250.192 374.988Z" fill="#FFB13C"/>
<path opacity="0.2" d="M250.192 374.988L291.362 351.202C293.116 350.193 294.535 350.909 294.535 352.81C294.455 353.872 294.126 354.901 293.575 355.813C293.024 356.725 292.266 357.494 291.362 358.058L250.192 381.845C248.438 382.854 247.02 382.138 247.02 380.237C247.099 379.174 247.428 378.146 247.979 377.234C248.53 376.322 249.288 375.553 250.192 374.988Z" fill="#474759"/>
<path d="M231.742 409.638L238.555 405.705C240.017 404.886 241.084 405.544 241.084 407.167V415.032C241.034 415.91 240.779 416.764 240.34 417.526C239.901 418.287 239.289 418.936 238.555 419.418L231.742 423.351C230.28 424.155 229.212 423.497 229.212 421.889V414.024C229.258 413.145 229.51 412.289 229.95 411.527C230.39 410.764 231.004 410.117 231.742 409.638Z" fill="#E0E0E0"/>
<path d="M250.192 402.416L291.362 378.658C293.116 377.649 294.535 378.366 294.535 380.266C294.457 381.329 294.13 382.359 293.578 383.271C293.027 384.184 292.267 384.952 291.362 385.515L250.192 409.302C248.438 410.31 247.02 409.594 247.02 407.693C247.095 406.626 247.421 405.591 247.972 404.674C248.524 403.757 249.284 402.983 250.192 402.416Z" fill="#F0F0F0"/>
<path d="M231.742 437.138L238.555 433.205C240.017 432.387 241.084 433.044 241.084 434.667V442.533C241.034 443.411 240.779 444.265 240.34 445.026C239.901 445.788 239.289 446.436 238.555 446.919L231.742 450.852C230.28 451.656 229.212 450.998 229.212 449.39V441.524C229.258 440.645 229.51 439.789 229.95 439.027C230.39 438.265 231.004 437.617 231.742 437.138Z" fill="#E0E0E0"/>
<path d="M250.192 429.916L291.362 406.144C293.116 405.12 294.535 405.851 294.535 407.737C294.457 408.802 294.13 409.834 293.578 410.749C293.027 411.663 292.268 412.435 291.362 413L250.192 436.773C248.438 437.781 247.02 437.065 247.02 435.164C247.099 434.102 247.428 433.073 247.979 432.161C248.53 431.249 249.288 430.48 250.192 429.916Z" fill="#F0F0F0"/>
<path d="M231.742 464.565L238.555 460.633C240.017 459.814 241.084 460.472 241.084 462.095V469.96C241.034 470.838 240.779 471.692 240.34 472.453C239.901 473.215 239.289 473.863 238.555 474.346L231.742 478.279C230.28 479.083 229.212 478.425 229.212 476.817V468.951C229.258 468.072 229.51 467.217 229.95 466.454C230.39 465.692 231.004 465.045 231.742 464.565Z" fill="#E0E0E0"/>
<path d="M250.192 457.343L291.362 433.571C293.116 432.547 294.535 433.278 294.535 435.164C294.457 436.229 294.13 437.261 293.578 438.176C293.027 439.09 292.268 439.862 291.362 440.428L250.192 464.2C248.438 465.208 247.02 464.492 247.02 462.591C247.099 461.529 247.428 460.5 247.979 459.588C248.53 458.676 249.288 457.907 250.192 457.343Z" fill="#F0F0F0"/>
<path d="M232.37 491.553L261.61 474.638C263.365 473.629 264.783 474.346 264.783 476.246C264.703 477.309 264.375 478.338 263.824 479.25C263.272 480.161 262.514 480.931 261.61 481.495L232.37 498.41C230.631 499.419 229.212 498.703 229.212 496.817C229.289 495.753 229.615 494.723 230.164 493.808C230.712 492.894 231.468 492.122 232.37 491.553Z" fill="#FFB13C"/>
<path d="M232.37 505.267L291.362 471.217C293.116 470.208 294.535 470.925 294.535 472.811C294.457 473.876 294.13 474.908 293.579 475.822C293.027 476.737 292.268 477.508 291.362 478.074L232.37 512.124C230.631 513.133 229.212 512.416 229.212 510.53C229.289 509.467 229.615 508.436 230.164 507.522C230.712 506.608 231.468 505.835 232.37 505.267Z" fill="#FFB13C"/>
<path opacity="0.8" d="M232.37 505.267L291.362 471.217C293.116 470.208 294.535 470.925 294.535 472.811C294.457 473.876 294.13 474.908 293.579 475.822C293.027 476.737 292.268 477.508 291.362 478.074L232.37 512.124C230.631 513.133 229.212 512.416 229.212 510.53C229.289 509.467 229.615 508.436 230.164 507.522C230.712 506.608 231.468 505.835 232.37 505.267Z" fill="#363636"/>
<path d="M232.37 505.267L273.555 481.495C275.295 480.486 276.713 481.203 276.713 483.103C276.634 484.164 276.307 485.192 275.758 486.103C275.21 487.015 274.455 487.785 273.555 488.352L232.37 512.124C230.631 513.133 229.212 512.416 229.212 510.53C229.289 509.467 229.615 508.436 230.164 507.522C230.712 506.608 231.468 505.835 232.37 505.267Z" fill="#FFB13C"/>
<path d="M232.37 519.01L261.61 502.095C263.365 501.086 264.783 501.802 264.783 503.703C264.703 504.765 264.375 505.794 263.824 506.706C263.272 507.618 262.514 508.387 261.61 508.951L232.37 525.867C230.631 526.876 229.212 526.159 229.212 524.273C229.289 523.21 229.615 522.179 230.164 521.265C230.712 520.351 231.468 519.578 232.37 519.01Z" fill="#FFB13C"/>
<path d="M250.192 347.547L291.362 323.774C293.116 322.766 294.535 323.482 294.535 325.383C294.455 326.445 294.126 327.474 293.575 328.386C293.024 329.298 292.266 330.067 291.362 330.631L250.192 354.403C248.438 355.412 247.02 354.696 247.02 352.81C247.097 351.745 247.424 350.713 247.976 349.798C248.527 348.884 249.286 348.112 250.192 347.547Z" fill="#FFB13C"/>
<path opacity="0.2" d="M250.192 347.547L291.362 323.774C293.116 322.766 294.535 323.482 294.535 325.383C294.455 326.445 294.126 327.474 293.575 328.386C293.024 329.298 292.266 330.067 291.362 330.631L250.192 354.403C248.438 355.412 247.02 354.696 247.02 352.81C247.097 351.745 247.424 350.713 247.976 349.798C248.527 348.884 249.286 348.112 250.192 347.547Z" fill="#474759"/>
<path d="M232.37 519.01L261.61 502.095C263.365 501.086 264.783 501.802 264.783 503.703C264.703 504.765 264.375 505.794 263.824 506.706C263.272 507.618 262.514 508.387 261.61 508.951L232.37 525.867C230.631 526.876 229.212 526.159 229.212 524.273C229.289 523.21 229.615 522.179 230.164 521.265C230.712 520.351 231.468 519.578 232.37 519.01Z" fill="#FFB13C"/>
<path d="M232.37 532.68L291.362 498.63C293.116 497.621 294.535 498.337 294.535 500.223C294.457 501.288 294.13 502.32 293.579 503.235C293.027 504.149 292.268 504.921 291.362 505.487L232.37 539.478C230.631 540.501 229.212 539.77 229.212 537.884C229.298 536.831 229.628 535.812 230.176 534.909C230.724 534.005 231.476 533.242 232.37 532.68Z" fill="#FFB13C"/>
<path opacity="0.8" d="M232.37 532.68L291.362 498.63C293.116 497.621 294.535 498.337 294.535 500.223C294.457 501.288 294.13 502.32 293.579 503.235C293.027 504.149 292.268 504.921 291.362 505.487L232.37 539.478C230.631 540.501 229.212 539.77 229.212 537.884C229.298 536.831 229.628 535.812 230.176 534.909C230.724 534.005 231.476 533.242 232.37 532.68Z" fill="#363636"/>
<path d="M232.37 532.679L285.426 501.977C287.181 500.969 288.599 501.685 288.599 503.586C288.519 504.648 288.191 505.677 287.64 506.589C287.088 507.501 286.33 508.27 285.426 508.834L232.37 539.536C230.631 540.56 229.212 539.829 229.212 537.943C229.289 536.879 229.615 535.849 230.164 534.934C230.712 534.02 231.468 533.248 232.37 532.679Z" fill="#FFB13C"/>
<path d="M439.828 83.4655L306.406 160.498V517.08L439.828 440.062C440.752 439.462 441.52 438.653 442.071 437.701C442.623 436.748 442.941 435.679 443.001 434.579V85.293C442.986 83.3339 441.524 82.4567 439.828 83.4655Z" fill="#EBEBEB"/>
<path opacity="0.6" d="M439.828 83.4655L306.406 160.498V517.08L439.828 440.062C440.752 439.462 441.52 438.653 442.071 437.701C442.623 436.748 442.941 435.679 443.001 434.579V85.293C442.986 83.3339 441.524 82.4567 439.828 83.4655Z" fill="#FAFAFA"/>
<path d="M306.406 174.212V201.639L294.535 215.353H306.406V242.78L431.115 170.776V102.208L306.406 174.212Z" fill="#FFB13C"/>
<g opacity="0.6">
<path opacity="0.6" d="M322.722 175.162L373.249 145.922C375.69 144.46 377.635 145.659 377.635 148.481C377.554 150.014 377.115 151.507 376.354 152.84C375.592 154.173 374.529 155.309 373.249 156.156L322.722 185.323C320.266 186.785 318.336 185.586 318.336 182.765C318.424 181.243 318.867 179.764 319.628 178.444C320.39 177.124 321.449 176 322.722 175.162Z" fill="#363636"/>
</g>
<path d="M319.871 197.37L417.664 140.907C418.541 140.41 419.243 140.761 419.243 141.711C419.205 142.243 419.043 142.759 418.768 143.216C418.494 143.673 418.116 144.059 417.664 144.343L319.871 200.732C318.994 201.23 318.292 200.879 318.292 199.928C318.341 199.409 318.509 198.908 318.783 198.465C319.056 198.021 319.429 197.646 319.871 197.37Z" fill="#FFB13C"/>
<path d="M319.871 197.37L417.664 140.907C418.541 140.41 419.243 140.761 419.243 141.711C419.205 142.243 419.043 142.759 418.768 143.216C418.494 143.673 418.116 144.059 417.664 144.343L319.871 200.732C318.994 201.23 318.292 200.879 318.292 199.928C318.341 199.409 318.509 198.908 318.783 198.465C319.056 198.021 319.429 197.646 319.871 197.37Z" fill="#FFB13C"/>
<path opacity="0.6" d="M319.871 197.37L417.664 140.907C418.541 140.41 419.243 140.761 419.243 141.711C419.205 142.243 419.043 142.759 418.768 143.216C418.494 143.673 418.116 144.059 417.664 144.343L319.871 200.732C318.994 201.23 318.292 200.879 318.292 199.928C318.341 199.409 318.509 198.908 318.783 198.465C319.056 198.021 319.429 197.646 319.871 197.37Z" fill="#363636"/>
<path d="M319.871 207.604L417.664 151.141C418.541 150.63 419.243 150.995 419.243 151.945C419.205 152.475 419.043 152.989 418.768 153.444C418.494 153.899 418.115 154.282 417.664 154.562L319.871 211.025C318.994 211.537 318.292 211.171 318.292 210.221C318.33 209.691 318.492 209.177 318.767 208.723C319.041 208.268 319.42 207.884 319.871 207.604Z" fill="#FFB13C"/>
<path opacity="0.6" d="M319.871 207.604L417.664 151.141C418.541 150.63 419.243 150.995 419.243 151.945C419.205 152.475 419.043 152.989 418.768 153.444C418.494 153.899 418.115 154.282 417.664 154.562L319.871 211.025C318.994 211.537 318.292 211.171 318.292 210.221C318.33 209.691 318.492 209.177 318.767 208.723C319.041 208.268 319.42 207.884 319.871 207.604Z" fill="#363636"/>
<path opacity="0.6" d="M319.871 217.838L417.664 161.376C418.541 160.879 419.243 161.229 419.243 162.18C419.205 162.712 419.043 163.227 418.768 163.684C418.494 164.142 418.116 164.528 417.664 164.811L319.871 221.274C318.994 221.771 318.292 221.42 318.292 220.47C318.33 219.938 318.492 219.422 318.767 218.965C319.041 218.508 319.419 218.122 319.871 217.838Z" fill="#363636"/>
<path d="M323.555 246.639L330.412 242.692C331.874 241.873 332.941 242.531 332.941 244.154V252.02C332.893 252.898 332.638 253.752 332.199 254.514C331.76 255.276 331.148 255.924 330.412 256.406L323.599 260.338C322.137 261.143 321.07 260.485 321.07 258.876V251.025C321.11 250.15 321.356 249.297 321.788 248.535C322.22 247.773 322.825 247.124 323.555 246.639Z" fill="#FFB13C"/>
<path opacity="0.2" d="M323.555 246.639L330.412 242.692C331.874 241.873 332.941 242.531 332.941 244.154V252.02C332.893 252.898 332.638 253.752 332.199 254.514C331.76 255.276 331.148 255.924 330.412 256.406L323.599 260.338C322.137 261.143 321.07 260.485 321.07 258.876V251.025C321.11 250.15 321.356 249.297 321.788 248.535C322.22 247.773 322.825 247.124 323.555 246.639Z" fill="#363636"/>
<path d="M342.006 239.417L383.176 215.63C384.93 214.622 386.349 215.338 386.349 217.238C386.269 218.301 385.94 219.33 385.389 220.242C384.838 221.154 384.08 221.923 383.176 222.487L342.006 246.274C340.252 247.283 338.833 246.566 338.833 244.666C338.913 243.603 339.242 242.574 339.793 241.662C340.344 240.75 341.102 239.981 342.006 239.417Z" fill="#FFB13C"/>
<path opacity="0.8" d="M342.006 239.417L383.176 215.63C384.93 214.622 386.349 215.338 386.349 217.238C386.269 218.301 385.94 219.33 385.389 220.242C384.838 221.154 384.08 221.923 383.176 222.487L342.006 246.274C340.252 247.283 338.833 246.566 338.833 244.666C338.913 243.603 339.242 242.574 339.793 241.662C340.344 240.75 341.102 239.981 342.006 239.417Z" fill="#363636"/>
<path d="M322.605 271.201L426.407 211.259C427.285 210.747 427.986 211.113 427.986 212.048C427.95 212.581 427.787 213.097 427.513 213.554C427.239 214.011 426.86 214.397 426.407 214.68L322.605 274.622C321.728 275.134 321.026 274.768 321.026 273.818C321.064 273.288 321.227 272.775 321.501 272.32C321.776 271.865 322.154 271.482 322.605 271.201Z" fill="#FFB13C"/>
<path d="M322.605 281.479L426.407 221.537C427.285 221.04 427.986 221.391 427.986 222.341C427.949 222.873 427.786 223.388 427.512 223.845C427.237 224.303 426.859 224.689 426.407 224.972L322.605 284.914C321.728 285.412 321.026 285.061 321.026 284.11C321.064 283.578 321.227 283.063 321.501 282.606C321.776 282.149 322.154 281.762 322.605 281.479Z" fill="#FFB13C"/>
<path d="M322.605 291.771L426.407 231.829C427.285 231.318 427.986 231.683 427.986 232.619C427.95 233.151 427.787 233.667 427.513 234.124C427.239 234.582 426.86 234.968 426.407 235.25L322.605 295.192C321.728 295.704 321.026 295.339 321.026 294.403C321.063 293.871 321.225 293.355 321.5 292.897C321.774 292.44 322.153 292.054 322.605 291.771Z" fill="#FFB13C"/>
<path d="M322.605 302.078L426.407 242.136C427.285 241.639 427.986 241.99 427.986 242.94C427.949 243.472 427.786 243.988 427.512 244.445C427.237 244.902 426.859 245.288 426.407 245.572L322.605 305.514C321.728 306.011 321.026 305.66 321.026 304.71C321.064 304.178 321.227 303.663 321.501 303.205C321.776 302.748 322.154 302.362 322.605 302.078Z" fill="#FFB13C"/>
<path d="M322.605 271.201L426.407 211.259C427.285 210.747 427.986 211.113 427.986 212.048C427.95 212.581 427.787 213.097 427.513 213.554C427.239 214.011 426.86 214.397 426.407 214.68L322.605 274.622C321.728 275.134 321.026 274.768 321.026 273.818C321.064 273.288 321.227 272.775 321.501 272.32C321.776 271.865 322.154 271.482 322.605 271.201Z" fill="#E0E0E0"/>
<path d="M322.605 281.479L426.407 221.537C427.285 221.04 427.986 221.391 427.986 222.341C427.949 222.873 427.786 223.388 427.512 223.845C427.237 224.303 426.859 224.689 426.407 224.972L322.605 284.914C321.728 285.412 321.026 285.061 321.026 284.11C321.064 283.578 321.227 283.063 321.501 282.606C321.776 282.149 322.154 281.762 322.605 281.479Z" fill="#E0E0E0"/>
<path d="M322.605 291.771L426.407 231.829C427.285 231.318 427.986 231.683 427.986 232.619C427.95 233.151 427.787 233.667 427.513 234.124C427.239 234.582 426.86 234.968 426.407 235.25L322.605 295.192C321.728 295.704 321.026 295.339 321.026 294.403C321.063 293.871 321.225 293.355 321.5 292.897C321.774 292.44 322.153 292.054 322.605 291.771Z" fill="#E0E0E0"/>
<path d="M322.605 302.078L426.407 242.136C427.285 241.639 427.986 241.99 427.986 242.94C427.949 243.472 427.786 243.988 427.512 244.445C427.237 244.902 426.859 245.288 426.407 245.572L322.605 305.514C321.728 306.011 321.026 305.66 321.026 304.71C321.064 304.178 321.227 303.663 321.501 303.205C321.776 302.748 322.154 302.362 322.605 302.078Z" fill="#E0E0E0"/>
<path opacity="0.8" d="M322.605 271.201L426.407 211.259C427.285 210.747 427.986 211.113 427.986 212.048C427.95 212.581 427.787 213.097 427.513 213.554C427.239 214.011 426.86 214.397 426.407 214.68L322.605 274.622C321.728 275.134 321.026 274.768 321.026 273.818C321.064 273.288 321.227 272.775 321.501 272.32C321.776 271.865 322.154 271.482 322.605 271.201Z" fill="#E0E0E0"/>
<path opacity="0.8" d="M322.605 281.479L426.407 221.537C427.285 221.04 427.986 221.391 427.986 222.341C427.949 222.873 427.786 223.388 427.512 223.845C427.237 224.303 426.859 224.689 426.407 224.972L322.605 284.914C321.728 285.412 321.026 285.061 321.026 284.11C321.064 283.578 321.227 283.063 321.501 282.606C321.776 282.149 322.154 281.762 322.605 281.479Z" fill="#E0E0E0"/>
<path opacity="0.8" d="M322.605 291.771L426.407 231.829C427.285 231.318 427.986 231.683 427.986 232.619C427.95 233.151 427.787 233.667 427.513 234.124C427.239 234.582 426.86 234.968 426.407 235.25L322.605 295.192C321.728 295.704 321.026 295.339 321.026 294.403C321.063 293.871 321.225 293.355 321.5 292.897C321.774 292.44 322.153 292.054 322.605 291.771Z" fill="#E0E0E0"/>
<path opacity="0.8" d="M322.605 302.078L426.407 242.136C427.285 241.639 427.986 241.99 427.986 242.94C427.949 243.472 427.786 243.988 427.512 244.445C427.237 244.902 426.859 245.288 426.407 245.572L322.605 305.514C321.728 306.011 321.026 305.66 321.026 304.71C321.064 304.178 321.227 303.663 321.501 303.205C321.776 302.748 322.154 302.362 322.605 302.078Z" fill="#E0E0E0"/>
<path d="M322.605 345.763L426.407 285.821C427.285 285.309 427.986 285.675 427.986 286.61C427.95 287.143 427.787 287.659 427.513 288.116C427.239 288.573 426.86 288.959 426.407 289.242L322.605 349.184C321.728 349.696 321.026 349.33 321.026 348.38C321.064 347.85 321.227 347.337 321.501 346.882C321.776 346.427 322.154 346.044 322.605 345.763Z" fill="#E0E0E0"/>
<path d="M322.605 356.041L426.407 296.099C427.285 295.602 427.986 295.953 427.986 296.903C427.949 297.435 427.786 297.95 427.512 298.407C427.237 298.865 426.859 299.251 426.407 299.534L322.605 359.476C321.728 359.974 321.026 359.623 321.026 358.672C321.064 358.14 321.227 357.625 321.501 357.168C321.776 356.711 322.154 356.324 322.605 356.041Z" fill="#E0E0E0"/>
<path d="M322.605 366.333L426.407 306.391C427.285 305.88 427.986 306.245 427.986 307.181C427.95 307.713 427.787 308.229 427.513 308.686C427.239 309.144 426.86 309.53 426.407 309.812L322.605 369.754C321.728 370.266 321.026 369.901 321.026 368.965C321.063 368.433 321.225 367.917 321.5 367.459C321.774 367.002 322.153 366.616 322.605 366.333Z" fill="#E0E0E0"/>
<path d="M322.605 376.64L426.407 316.698C427.285 316.201 427.986 316.552 427.986 317.502C427.949 318.034 427.786 318.55 427.512 319.007C427.237 319.464 426.859 319.85 426.407 320.134L322.605 380.076C321.728 380.573 321.026 380.222 321.026 379.272C321.064 378.74 321.227 378.225 321.501 377.767C321.776 377.31 322.154 376.924 322.605 376.64Z" fill="#E0E0E0"/>
<path opacity="0.8" d="M322.605 345.763L426.407 285.821C427.285 285.309 427.986 285.675 427.986 286.61C427.95 287.143 427.787 287.659 427.513 288.116C427.239 288.573 426.86 288.959 426.407 289.242L322.605 349.184C321.728 349.696 321.026 349.33 321.026 348.38C321.064 347.85 321.227 347.337 321.501 346.882C321.776 346.427 322.154 346.044 322.605 345.763Z" fill="#E0E0E0"/>
<path opacity="0.8" d="M322.605 356.041L426.407 296.099C427.285 295.602 427.986 295.953 427.986 296.903C427.949 297.435 427.786 297.95 427.512 298.407C427.237 298.865 426.859 299.251 426.407 299.534L322.605 359.476C321.728 359.974 321.026 359.623 321.026 358.672C321.064 358.14 321.227 357.625 321.501 357.168C321.776 356.711 322.154 356.324 322.605 356.041Z" fill="#E0E0E0"/>
<path opacity="0.8" d="M322.605 366.333L426.407 306.391C427.285 305.88 427.986 306.245 427.986 307.181C427.95 307.713 427.787 308.229 427.513 308.686C427.239 309.144 426.86 309.53 426.407 309.812L322.605 369.754C321.728 370.266 321.026 369.901 321.026 368.965C321.063 368.433 321.225 367.917 321.5 367.459C321.774 367.002 322.153 366.616 322.605 366.333Z" fill="#E0E0E0"/>
<path opacity="0.8" d="M322.605 376.64L426.407 316.698C427.285 316.201 427.986 316.552 427.986 317.502C427.949 318.034 427.786 318.55 427.512 319.007C427.237 319.464 426.859 319.85 426.407 320.134L322.605 380.076C321.728 380.573 321.026 380.222 321.026 379.272C321.064 378.74 321.227 378.225 321.501 377.767C321.776 377.31 322.154 376.924 322.605 376.64Z" fill="#E0E0E0"/>
<path d="M322.605 421.787L426.407 361.845C427.285 361.333 427.986 361.699 427.986 362.634C427.95 363.167 427.787 363.683 427.513 364.14C427.239 364.597 426.86 364.983 426.407 365.266L322.605 425.208C321.728 425.72 321.026 425.354 321.026 424.404C321.064 423.874 321.227 423.361 321.501 422.906C321.776 422.451 322.154 422.067 322.605 421.787Z" fill="#E0E0E0"/>
<path d="M322.605 432.065L426.407 372.123C427.285 371.626 427.986 371.977 427.986 372.927C427.949 373.459 427.786 373.974 427.512 374.431C427.237 374.889 426.859 375.275 426.407 375.558L322.605 435.5C321.728 435.998 321.026 435.647 321.026 434.696C321.064 434.164 321.227 433.649 321.501 433.192C321.776 432.735 322.154 432.348 322.605 432.065Z" fill="#E0E0E0"/>
<path d="M322.605 442.357L426.407 382.415C427.285 381.904 427.986 382.269 427.986 383.205C427.95 383.737 427.787 384.253 427.513 384.71C427.239 385.168 426.86 385.554 426.407 385.836L322.605 445.778C321.728 446.29 321.026 445.924 321.026 444.989C321.063 444.457 321.225 443.941 321.5 443.483C321.774 443.026 322.153 442.64 322.605 442.357Z" fill="#E0E0E0"/>
<path d="M322.605 452.664L426.407 392.722C427.285 392.225 427.986 392.576 427.986 393.526C427.949 394.058 427.786 394.574 427.512 395.031C427.237 395.488 426.859 395.874 426.407 396.158L322.605 456.1C321.728 456.597 321.026 456.246 321.026 455.296C321.064 454.764 321.227 454.249 321.501 453.791C321.776 453.334 322.154 452.948 322.605 452.664Z" fill="#E0E0E0"/>
<path opacity="0.8" d="M322.605 421.787L426.407 361.845C427.285 361.333 427.986 361.699 427.986 362.634C427.95 363.167 427.787 363.683 427.513 364.14C427.239 364.597 426.86 364.983 426.407 365.266L322.605 425.208C321.728 425.72 321.026 425.354 321.026 424.404C321.064 423.874 321.227 423.361 321.501 422.906C321.776 422.451 322.154 422.067 322.605 421.787Z" fill="#E0E0E0"/>
<path opacity="0.8" d="M322.605 432.065L426.407 372.123C427.285 371.626 427.986 371.977 427.986 372.927C427.949 373.459 427.786 373.974 427.512 374.431C427.237 374.889 426.859 375.275 426.407 375.558L322.605 435.5C321.728 435.998 321.026 435.647 321.026 434.696C321.064 434.164 321.227 433.649 321.501 433.192C321.776 432.735 322.154 432.348 322.605 432.065Z" fill="#E0E0E0"/>
<path opacity="0.8" d="M322.605 442.357L426.407 382.415C427.285 381.904 427.986 382.269 427.986 383.205C427.95 383.737 427.787 384.253 427.513 384.71C427.239 385.168 426.86 385.554 426.407 385.836L322.605 445.778C321.728 446.29 321.026 445.924 321.026 444.989C321.063 444.457 321.225 443.941 321.5 443.483C321.774 443.026 322.153 442.64 322.605 442.357Z" fill="#E0E0E0"/>
<path opacity="0.8" d="M322.605 452.664L426.407 392.722C427.285 392.225 427.986 392.576 427.986 393.526C427.949 394.058 427.786 394.574 427.512 395.031C427.237 395.488 426.859 395.874 426.407 396.158L322.605 456.1C321.728 456.597 321.026 456.246 321.026 455.296C321.064 454.764 321.227 454.249 321.501 453.791C321.776 453.334 322.154 452.948 322.605 452.664Z" fill="#E0E0E0"/>
<path d="M323.555 322.064L330.412 318.131C331.874 317.327 332.941 317.985 332.941 319.593V327.488C332.896 328.367 332.643 329.223 332.204 329.985C331.764 330.747 331.15 331.395 330.412 331.874L323.599 335.807C322.137 336.611 321.07 335.968 321.07 334.345V326.479C321.107 325.599 321.351 324.741 321.783 323.974C322.215 323.206 322.822 322.552 323.555 322.064Z" fill="#FFB13C"/>
<path opacity="0.2" d="M323.555 322.064L330.412 318.131C331.874 317.327 332.941 317.985 332.941 319.593V327.488C332.896 328.367 332.643 329.223 332.204 329.985C331.764 330.747 331.15 331.395 330.412 331.874L323.599 335.807C322.137 336.611 321.07 335.968 321.07 334.345V326.479C321.107 325.599 321.351 324.741 321.783 323.974C322.215 323.206 322.822 322.552 323.555 322.064Z" fill="#363636"/>
<path d="M342.006 314.841L383.176 291.069C384.93 290.06 386.349 290.777 386.349 292.663C386.271 293.728 385.944 294.76 385.392 295.674C384.841 296.589 384.082 297.36 383.176 297.926L342.006 321.64C340.252 322.648 338.833 321.932 338.833 320.046C338.92 318.991 339.251 317.971 339.802 317.067C340.353 316.164 341.108 315.401 342.006 314.841Z" fill="#FFB13C"/>
<path opacity="0.8" d="M342.006 314.841L383.176 291.069C384.93 290.06 386.349 290.777 386.349 292.663C386.271 293.728 385.944 294.76 385.392 295.674C384.841 296.589 384.082 297.36 383.176 297.926L342.006 321.64C340.252 322.648 338.833 321.932 338.833 320.046C338.92 318.991 339.251 317.971 339.802 317.067C340.353 316.164 341.108 315.401 342.006 314.841Z" fill="#363636"/>
<path d="M323.555 397.503L330.412 393.57C331.874 392.752 332.941 393.41 332.941 395.032V402.898C332.895 403.777 332.642 404.632 332.202 405.394C331.763 406.156 331.149 406.804 330.412 407.284L323.599 411.217C322.137 412.021 321.07 411.363 321.07 409.755V401.889C321.11 401.014 321.356 400.161 321.788 399.399C322.22 398.637 322.825 397.987 323.555 397.503Z" fill="#FFB13C"/>
<path opacity="0.2" d="M323.555 397.503L330.412 393.57C331.874 392.752 332.941 393.41 332.941 395.032V402.898C332.895 403.777 332.642 404.632 332.202 405.394C331.763 406.156 331.149 406.804 330.412 407.284L323.599 411.217C322.137 412.021 321.07 411.363 321.07 409.755V401.889C321.11 401.014 321.356 400.161 321.788 399.399C322.22 398.637 322.825 397.987 323.555 397.503Z" fill="#363636"/>
<path d="M342.006 390.354L383.176 366.567C384.93 365.559 386.349 366.275 386.349 368.176C386.27 369.24 385.942 370.272 385.391 371.186C384.84 372.1 384.081 372.872 383.176 373.439L342.006 397.211C340.252 398.22 338.833 397.503 338.833 395.603C338.913 394.54 339.242 393.511 339.793 392.599C340.344 391.688 341.102 390.918 342.006 390.354Z" fill="#FFB13C"/>
<path opacity="0.8" d="M342.006 390.354L383.176 366.567C384.93 365.559 386.349 366.275 386.349 368.176C386.27 369.24 385.942 370.272 385.391 371.186C384.84 372.1 384.081 372.872 383.176 373.439L342.006 397.211C340.252 398.22 338.833 397.503 338.833 395.603C338.913 394.54 339.242 393.511 339.793 392.599C340.344 391.688 341.102 390.918 342.006 390.354Z" fill="#363636"/>
<path d="M333.248 463.907L340.061 459.975C341.523 459.17 342.605 459.828 342.605 461.437V469.302C342.557 470.182 342.302 471.038 341.86 471.8C341.418 472.563 340.801 473.21 340.061 473.688L333.248 477.621C331.86 478.44 330.719 477.782 330.719 476.159V468.293C330.77 467.416 331.025 466.562 331.464 465.801C331.904 465.039 332.514 464.391 333.248 463.907Z" fill="#FFB13C"/>
<path d="M322.605 490.633L350.72 474.404C351.597 473.907 352.299 474.258 352.299 475.209C352.261 475.74 352.098 476.256 351.824 476.713C351.549 477.17 351.171 477.556 350.72 477.84L322.605 494.068C321.728 494.565 321.026 494.215 321.026 493.264C321.064 492.732 321.227 492.217 321.501 491.76C321.776 491.302 322.154 490.916 322.605 490.633Z" fill="#E0E0E0"/>
<path d="M371.07 442.065L377.883 438.132C379.272 437.328 380.412 437.986 380.412 439.594V447.46C380.365 448.338 380.111 449.193 379.672 449.955C379.232 450.717 378.62 451.365 377.883 451.846L371.07 455.779C369.608 456.583 368.526 455.939 368.526 454.317V446.451C368.575 445.571 368.831 444.716 369.273 443.954C369.715 443.192 370.331 442.544 371.07 442.065Z" fill="#FFB13C"/>
<path d="M360.412 468.79L388.527 452.562C389.404 452.051 390.106 452.416 390.106 453.366C390.068 453.896 389.905 454.41 389.631 454.865C389.356 455.32 388.978 455.703 388.527 455.983L360.412 472.226C359.535 472.738 358.833 472.372 358.833 471.437C358.868 470.902 359.029 470.383 359.304 469.923C359.578 469.463 359.958 469.075 360.412 468.79Z" fill="#E0E0E0"/>
<path d="M408.878 420.223L415.691 416.29C417.08 415.471 418.22 416.129 418.22 417.752V425.617C418.17 426.495 417.916 427.349 417.476 428.111C417.037 428.872 416.426 429.521 415.691 430.003L408.878 433.936C407.416 434.74 406.349 434.082 406.349 432.474V424.609C406.394 423.73 406.647 422.874 407.086 422.112C407.526 421.349 408.14 420.702 408.878 420.223Z" fill="#FFB13C"/>
<path opacity="0.2" d="M333.248 463.907L340.061 459.975C341.523 459.17 342.605 459.828 342.605 461.437V469.302C342.557 470.182 342.302 471.038 341.86 471.8C341.418 472.563 340.801 473.21 340.061 473.688L333.248 477.621C331.86 478.44 330.719 477.782 330.719 476.159V468.293C330.77 467.416 331.025 466.562 331.464 465.801C331.904 465.039 332.514 464.391 333.248 463.907Z" fill="#363636"/>
<path opacity="0.2" d="M371.07 442.065L377.883 438.132C379.272 437.328 380.412 437.986 380.412 439.594V447.46C380.365 448.338 380.111 449.193 379.672 449.955C379.232 450.717 378.62 451.365 377.883 451.846L371.07 455.779C369.608 456.583 368.526 455.939 368.526 454.317V446.451C368.575 445.571 368.831 444.716 369.273 443.954C369.715 443.192 370.331 442.544 371.07 442.065Z" fill="#363636"/>
<path opacity="0.2" d="M408.878 420.223L415.691 416.29C417.08 415.471 418.22 416.129 418.22 417.752V425.617C418.17 426.495 417.916 427.349 417.476 428.111C417.037 428.872 416.426 429.521 415.691 430.003L408.878 433.936C407.416 434.74 406.349 434.082 406.349 432.474V424.609C406.394 423.73 406.647 422.874 407.086 422.112C407.526 421.349 408.14 420.702 408.878 420.223Z" fill="#363636"/>
<path d="M398.22 446.948L426.334 430.72C427.211 430.208 427.913 430.574 427.913 431.509C427.876 432.042 427.714 432.558 427.44 433.015C427.165 433.472 426.786 433.858 426.334 434.141L398.22 450.369C397.357 450.881 396.641 450.515 396.641 449.565C396.682 449.036 396.846 448.524 397.12 448.07C397.394 447.615 397.771 447.231 398.22 446.948Z" fill="#E0E0E0"/>
<path d="M258.906 203.013C242.502 212.253 229.212 235.28 229.212 254.432C229.212 273.584 242.502 281.45 258.906 271.976C275.309 262.502 288.599 239.49 288.599 220.543C288.599 201.595 275.295 193.759 258.906 203.013Z" fill="#FAFAFA"/>
<path d="M273.292 262.034L249.52 268.408C249.11 268.542 248.674 268.571 248.251 268.494C247.827 268.416 247.43 268.234 247.094 267.964C246.759 267.694 246.496 267.344 246.33 266.947C246.164 266.55 246.099 266.117 246.142 265.689V225.221C246.226 221.871 247.345 218.63 249.345 215.941C251.345 213.253 254.128 211.25 257.312 210.206L265.441 208.028C271.625 206.376 276.64 210.411 276.64 217.034V257.516C276.613 258.522 276.278 259.495 275.679 260.304C275.08 261.112 274.246 261.716 273.292 262.034Z" fill="#474759"/>
<path d="M274.432 272.502L271.932 261.464C271.932 261.464 271.932 246.566 269.812 245.192C267.692 243.818 267.078 243.555 267.078 243.555C269.797 242.619 275.528 241.917 277.312 247.151C279.023 252.093 281.581 264.271 282.795 270.265L274.432 272.502Z" fill="#F28F8F"/>
<path d="M274.228 272.561L265.748 243.686C269.505 242.224 274.33 241.011 276.669 244.885C278.774 248.365 282.137 266.596 282.795 270.266L274.228 272.561Z" fill="#FFB13C"/>
<g opacity="0.4">
<path opacity="0.4" d="M274.228 272.561L265.748 243.686C269.505 242.224 274.33 241.011 276.669 244.885C278.774 248.365 282.137 266.596 282.795 270.266L274.228 272.561Z" fill="#474759"/>
</g>
<path d="M275.368 272.254L267.034 274.49C267.37 272.097 268.159 269.79 269.359 267.692C271.027 265.289 273.427 263.489 276.201 262.561C275.6 265.756 275.321 269.003 275.368 272.254Z" fill="#FFB13C"/>
<path d="M275.368 272.254L267.034 274.49C267.37 272.097 268.159 269.79 269.359 267.692C271.027 265.289 273.427 263.489 276.201 262.561C275.6 265.756 275.321 269.003 275.368 272.254Z" fill="#FFB13C"/>
<g opacity="0.7">
<path opacity="0.7" d="M275.368 272.254L267.034 274.49C267.37 272.097 268.159 269.79 269.359 267.692C271.027 265.289 273.427 263.489 276.201 262.561C275.6 265.756 275.321 269.003 275.368 272.254Z" fill="#474759"/>
</g>
<path d="M273.584 272.736L250.192 278.979L247.619 271.011C247.619 271.011 254.446 255.031 246.011 250.923C247.078 250.119 256.069 246.61 256.069 246.61L265.733 243.686C267.575 243.189 275.017 246.493 276.903 253.818C277.575 256.405 277.341 258.73 273.555 272.21C273.599 272.385 273.584 272.56 273.584 272.736Z" fill="#FFB13C"/>
<path d="M271.654 212.999C273.263 213.583 275.251 217.385 275.061 226.551C274.9 234.329 272.561 236.785 271.391 237.721C269.64 238.598 267.707 239.054 265.748 239.051V243.686C265.748 243.686 268.789 246.61 268.599 248.832C268.409 251.054 264.213 252.633 261.377 251.318C259.305 250.15 257.514 248.543 256.128 246.61V235.937C255.914 236.183 255.654 236.385 255.362 236.529C255.07 236.673 254.752 236.758 254.427 236.779C254.102 236.799 253.776 236.755 253.468 236.648C253.16 236.541 252.877 236.374 252.634 236.157C252.177 235.844 251.788 235.443 251.489 234.978C251.19 234.512 250.988 233.991 250.894 233.446C250.8 232.901 250.816 232.342 250.942 231.803C251.067 231.264 251.3 230.756 251.625 230.309C253.087 228.393 255.646 228.116 256.64 230.031C257.877 227.027 260.092 224.529 262.926 222.94C267.546 220.133 270.061 217.633 271.654 212.999Z" fill="#FFA8A7"/>
<path d="M267.02 226.771C267.026 227.048 266.947 227.321 266.792 227.551C266.638 227.781 266.416 227.958 266.157 228.058C266.047 228.096 265.93 228.106 265.815 228.089C265.7 228.071 265.591 228.026 265.497 227.957C265.404 227.888 265.328 227.797 265.278 227.692C265.227 227.587 265.203 227.472 265.207 227.356C265.201 227.079 265.28 226.806 265.434 226.576C265.589 226.346 265.811 226.169 266.07 226.069C266.179 226.031 266.297 226.02 266.412 226.038C266.527 226.056 266.636 226.101 266.73 226.17C266.823 226.239 266.898 226.33 266.949 226.435C267 226.539 267.024 226.655 267.02 226.771Z" fill="#474759"/>
<path d="M267.254 233.262L269.359 233.408C269.297 233.729 269.13 234.02 268.883 234.235C268.637 234.45 268.326 234.576 267.999 234.593C267.414 234.549 267.078 233.92 267.254 233.262Z" fill="#F28F8F"/>
<path d="M274.447 221.8L272.619 220.937C272.728 220.655 272.937 220.422 273.207 220.284C273.477 220.147 273.788 220.114 274.081 220.192C274.212 220.272 274.325 220.378 274.415 220.503C274.504 220.628 274.568 220.769 274.602 220.919C274.636 221.069 274.639 221.224 274.613 221.375C274.586 221.526 274.53 221.671 274.447 221.8Z" fill="#474759"/>
<path d="M264.388 225.221L266.216 223.365C266.119 223.266 266.002 223.189 265.873 223.139C265.744 223.089 265.606 223.066 265.468 223.073C265.33 223.08 265.195 223.116 265.072 223.179C264.949 223.242 264.84 223.33 264.754 223.438C264.5 223.65 264.326 223.942 264.259 224.266C264.193 224.59 264.238 224.926 264.388 225.221Z" fill="#474759"/>
<path d="M274.022 224.198C274.031 224.476 273.952 224.749 273.798 224.98C273.643 225.21 273.42 225.387 273.16 225.484C273.049 225.523 272.93 225.534 272.814 225.515C272.697 225.497 272.588 225.451 272.494 225.38C272.4 225.309 272.325 225.216 272.275 225.109C272.226 225.003 272.203 224.886 272.21 224.768C272.205 224.491 272.286 224.22 272.44 223.99C272.594 223.76 272.815 223.583 273.072 223.482C273.183 223.443 273.302 223.432 273.418 223.451C273.535 223.469 273.645 223.515 273.738 223.586C273.832 223.657 273.907 223.75 273.957 223.857C274.006 223.963 274.029 224.08 274.022 224.198Z" fill="#474759"/>
<path d="M269.753 224.782L269.885 230.586L272.765 228.861L269.753 224.782Z" fill="#F28F8F"/>
<path d="M265.748 239.051C263.438 239.344 258.672 239.154 257.926 237.341C258.197 238.231 258.791 238.988 259.593 239.461C261.055 240.396 265.748 240.601 265.748 240.601V239.051Z" fill="#F28F8F"/>
<path d="M250.324 278.964L249.344 275.484L251.917 278.54L250.324 278.964Z" fill="#FFB13C"/>
<path d="M248.408 279.476C247.358 274.474 245.936 269.558 244.154 264.768C241.698 258.029 244.446 252.21 246.098 250.923C247.75 249.637 256.157 246.61 256.157 246.61C259.198 255.265 260.031 266.859 260.104 276.347L248.408 279.476Z" fill="#FFB13C"/>
<path opacity="0.4" d="M248.408 279.476C247.358 274.474 245.936 269.558 244.154 264.768C241.698 258.029 244.446 252.21 246.098 250.923C247.75 249.637 256.157 246.61 256.157 246.61C259.198 255.265 260.031 266.859 260.104 276.347L248.408 279.476Z" fill="#474759"/>
<path d="M244.256 280.587L235.908 282.824C235.675 282.667 235.455 282.491 235.25 282.297C235.25 282.297 239.198 267.063 240.455 262.005C241.713 256.946 242.677 253.467 246.069 250.923C252.166 254.885 249.344 265.894 249.344 265.894L244.256 280.587Z" fill="#FFB13C"/>
<path opacity="0.4" d="M244.256 280.587L235.908 282.824C235.675 282.667 235.455 282.491 235.25 282.297C235.25 282.297 239.198 267.063 240.455 262.005C241.713 256.946 242.677 253.467 246.069 250.923C252.166 254.885 249.344 265.894 249.344 265.894L244.256 280.587Z" fill="#474759"/>
<path d="M550.604 187.18L539.303 180.674L545.516 179.358L551.7 183.671L550.604 187.18Z" fill="#E0E0E0"/>
<path d="M530.823 128.948C530.823 111.404 520.077 103.261 506.876 110.878L487.372 122.135C474.214 129.752 463.439 150.279 463.439 167.881C463.439 168.598 463.439 169.343 463.439 169.972C463.439 170.367 463.439 170.703 463.439 171.083C463.439 171.463 463.513 171.77 463.542 172.107C463.571 172.443 463.63 172.881 463.688 173.262C463.982 175.339 464.502 177.379 465.238 179.344C465.545 180.075 465.866 180.806 466.217 181.42C466.379 181.759 466.565 182.086 466.773 182.399L466.963 182.706C467.288 183.23 467.665 183.72 468.089 184.168C468.323 184.431 468.542 184.709 468.79 184.958L469.551 185.689C469.814 185.893 470.062 186.142 470.34 186.346C470.603 186.558 470.881 186.749 471.173 186.917L472.036 187.414C473.153 188.017 474.364 188.427 475.618 188.627C475.714 188.604 475.814 188.604 475.91 188.627C476.247 188.627 476.554 188.7 476.89 188.7C477.245 188.73 477.602 188.73 477.957 188.7C478.897 188.711 479.834 188.607 480.75 188.393C481.297 188.284 481.839 188.148 482.372 187.984C484.081 187.461 485.72 186.734 487.255 185.82L506.759 174.563C508.095 173.787 509.375 172.917 510.589 171.96C510.589 171.726 510.589 171.522 510.589 171.303C510.589 171.083 510.589 170.615 510.589 170.352C510.589 169.767 510.589 169.168 510.589 168.569C510.545 153.612 519.551 135.966 530.823 128.948Z" fill="#E0E0E0"/>
<path d="M534.112 116.302L522.782 109.782C522.855 109.782 523.937 117.662 523.937 117.662L532.343 118.656L534.112 116.302Z" fill="#E0E0E0"/>
<path d="M481.758 192.926L471.291 186.99L477.592 184.285L481.758 192.926Z" fill="#E0E0E0"/>
<path d="M487.372 185.996C487.298 190.328 485.906 194.536 483.381 198.057C482.913 198.671 483.63 199.212 484.156 198.935C486.545 197.695 488.663 195.99 490.384 193.92C493.691 190.012 496.003 185.362 497.124 180.367L487.372 185.996Z" fill="#E0E0E0"/>
<path d="M483.498 198.905L494.829 205.426C494.829 205.426 501.188 200.06 501.188 189.198L488.893 188.364C488.893 188.364 488.6 195.44 483.498 198.905Z" fill="#E0E0E0"/>
<path d="M513.674 166.946C513.674 167.492 513.674 168.018 513.674 168.525C513.674 168.817 513.674 169.066 513.674 169.344C513.674 169.621 513.674 169.855 513.762 170.118C513.849 170.382 513.762 170.703 513.864 170.996C514.033 172.291 514.337 173.565 514.77 174.797C514.833 175.021 514.911 175.241 515.004 175.455C515.111 175.748 515.233 176.036 515.37 176.317C515.484 176.589 515.615 176.853 515.764 177.107C515.88 177.362 516.017 177.606 516.174 177.838L516.32 178.072C516.578 178.474 516.861 178.86 517.168 179.227C517.328 179.44 517.504 179.64 517.694 179.826L518.25 180.367C518.439 180.545 518.64 180.711 518.849 180.864C519.049 181.019 519.259 181.161 519.478 181.288C519.697 181.42 519.902 181.551 520.136 181.668L520.808 181.99L521.51 182.238C521.938 182.368 522.372 182.475 522.811 182.56H523.031C523.274 182.582 523.518 182.582 523.762 182.56C524.024 182.59 524.289 182.59 524.551 182.56C525.18 182.56 525.807 182.496 526.422 182.37C526.916 182.286 527.404 182.174 527.884 182.034C529.168 181.64 530.4 181.096 531.554 180.411L546.174 171.961C547.478 171.208 548.707 170.332 549.844 169.344C550.253 168.993 550.662 168.613 551.072 168.232C551.809 167.546 552.507 166.819 553.162 166.054L554.098 165.206C554.347 164.914 554.581 164.607 554.829 164.3C554.89 164.193 554.963 164.095 555.048 164.007C556.022 162.72 556.92 161.378 557.738 159.987C557.958 159.621 558.162 159.241 558.382 158.861C558.601 158.481 558.806 158.101 559.01 157.706C559.215 157.311 559.405 156.917 559.61 156.536L560.165 155.338C560.355 154.943 560.531 154.519 560.706 154.139C561.013 153.437 561.291 152.677 561.54 152.004C561.54 151.873 561.642 151.741 561.686 151.61C561.847 151.2 561.978 150.791 562.11 150.381C562.373 149.592 562.607 148.803 562.841 147.984C563.355 146.062 563.741 144.109 563.996 142.136C563.996 141.8 564.069 141.478 564.113 141.142C564.157 140.805 564.113 140.571 564.186 140.279C564.259 139.987 564.186 139.694 564.186 139.402C564.186 138.856 564.186 138.315 564.186 137.779C564.186 124.621 556.13 118.466 546.218 124.182L531.598 132.647C521.729 138.335 513.674 153.729 513.674 166.946Z" fill="#E0E0E0"/>
<path d="M569.464 129.797L558.221 123.334L553.981 126.332L567.095 134.27L569.464 129.797Z" fill="#E0E0E0"/>
<path d="M530.867 187.794L519.565 181.288L528.425 178.642L530.867 187.794Z" fill="#E0E0E0"/>
<path d="M518.191 117.384L498.674 128.656C485.516 136.273 474.755 156.799 474.755 174.387C474.755 175.118 474.755 175.849 474.755 176.493C474.755 176.887 474.755 177.224 474.755 177.604C474.755 177.984 474.828 178.276 474.872 178.613C474.916 178.949 474.96 179.417 475.019 179.782C475.282 181.852 475.773 183.887 476.481 185.849C476.788 186.595 477.109 187.311 477.46 187.94C477.621 188.275 477.807 188.597 478.016 188.905C478.077 189.012 478.145 189.114 478.22 189.212C478.538 189.765 478.91 190.284 479.331 190.762C479.565 191.025 479.799 191.317 480.048 191.551L480.793 192.282C481.057 192.487 481.32 192.735 481.583 192.94C481.848 193.148 482.126 193.339 482.416 193.51L483.293 194.007C484.406 194.608 485.612 195.018 486.861 195.221C486.956 195.189 487.058 195.189 487.153 195.221C487.489 195.221 487.811 195.221 488.133 195.221C488.488 195.243 488.844 195.243 489.2 195.221C490.139 195.225 491.076 195.122 491.992 194.914C492.54 194.805 493.082 194.668 493.615 194.504C495.319 193.977 496.958 193.256 498.498 192.355C498.426 196.686 497.028 200.891 494.492 204.402C494.025 205.031 494.741 205.572 495.282 205.294C497.674 204.053 499.793 202.342 501.51 200.265C504.808 196.357 507.119 191.714 508.25 186.727L506.788 187.531L517.943 181.098C519.022 180.476 520.062 179.787 521.057 179.037C520.971 178.665 520.908 178.289 520.867 177.911C520.867 177.662 520.779 177.297 520.75 176.917C520.697 176.592 520.663 176.265 520.648 175.937V175.762C520.633 175.518 520.633 175.274 520.648 175.031C520.648 174.475 520.648 173.89 520.648 173.305C520.648 158.51 529.42 141.829 540.706 135.293L541.949 134.562C541.832 117.647 531.203 109.869 518.191 117.384Z" fill="#F0F0F0"/>
<path d="M557.592 130.659L542.972 139.109C533.075 144.84 525.004 160.235 525.004 173.452C525.004 173.993 525.004 174.519 525.004 175.031C525.004 175.542 525.004 175.572 525.004 175.849C525.004 176.127 525.004 176.361 525.077 176.624C525.101 176.914 525.14 177.202 525.194 177.487C525.355 178.788 525.659 180.068 526.101 181.303C526.157 181.529 526.235 181.749 526.335 181.96C526.434 182.25 526.551 182.533 526.686 182.808C526.803 183.083 526.934 183.352 527.08 183.613C527.201 183.868 527.343 184.112 527.504 184.344C527.539 184.427 527.583 184.505 527.636 184.577C527.914 184.987 528.192 185.367 528.484 185.732C528.653 185.942 528.833 186.142 529.025 186.332L529.58 186.873C529.77 187.051 529.97 187.217 530.18 187.37C530.373 187.528 530.578 187.669 530.794 187.794C531.013 187.925 531.218 188.057 531.452 188.174L532.124 188.496L532.826 188.744C533.254 188.874 533.688 188.981 534.127 189.066H534.347C534.59 189.088 534.834 189.088 535.078 189.066C535.344 189.103 535.615 189.103 535.882 189.066C536.51 189.069 537.137 189.011 537.753 188.89C538.246 188.806 538.734 188.693 539.215 188.554C540.5 188.166 541.733 187.621 542.885 186.931L547.826 184.095C548.512 185.369 549.522 186.439 550.754 187.196C551.987 187.954 553.398 188.372 554.844 188.408C557.084 188.785 559.385 188.399 561.379 187.311C561.905 186.975 562.037 185.981 561.569 185.849C558.221 185.25 555.312 182.063 555.312 179.724L557.534 178.437C558.836 177.681 560.064 176.805 561.203 175.82C561.613 175.469 562.022 175.089 562.417 174.709C563.159 174.023 563.862 173.295 564.522 172.531C564.785 172.224 565.049 171.931 565.312 171.58C565.575 171.229 565.794 170.995 566.043 170.688L566.262 170.396C567.236 169.109 568.134 167.767 568.952 166.376L569.61 165.25C569.829 164.87 570.034 164.49 570.239 164.095C570.443 163.7 570.619 163.305 570.823 162.925L571.394 161.726C571.584 161.317 571.745 160.908 571.92 160.528C572.227 159.826 572.519 159.066 572.768 158.393L572.899 157.998C573.06 157.589 573.207 157.18 573.323 156.77C573.601 155.966 573.821 155.191 574.069 154.373C574.584 152.451 574.969 150.497 575.224 148.525C575.224 148.188 575.297 147.867 575.326 147.53C575.356 147.194 575.326 146.946 575.4 146.668C575.473 146.39 575.4 146.083 575.4 145.791C575.4 145.25 575.4 144.694 575.4 144.153C575.56 131.039 567.49 124.942 557.592 130.659Z" fill="#F0F0F0"/>
<path d="M440.135 324.052C434.609 322.327 428.936 326.801 425.223 335.836C421.509 344.871 413.717 367.854 412.562 373.979C411.407 380.105 437.547 393.439 436.816 393.088C436.085 392.737 440.135 324.052 440.135 324.052Z" fill="#263238"/>
<path d="M427.986 536.715C427.196 537.007 427.006 538.498 426.889 541.452C426.801 543.688 426.319 547.592 428.936 548.367C431.553 549.142 435.398 548.747 437.079 546.642C439.17 544.01 440.588 541.7 443.571 538.484C446.173 535.706 448.965 533.104 450.018 529.2C450.968 525.662 450.179 524.142 447.767 523.118C444.462 521.656 439.258 526.305 436.67 527.036C434.433 527.665 428.761 536.422 427.986 536.715Z" fill="#263238"/>
<path d="M427.986 533.981V537.607C429.347 538.477 430.92 538.96 432.535 539.004C434.15 539.048 435.746 538.651 437.153 537.855C437.313 537.504 438.103 532.665 438.103 532.665L427.986 533.981Z" fill="#FFA8A7"/>
<path d="M457.357 557.621C457.357 557.621 456.319 560.779 455.764 563.469C455.311 565.662 454.682 569.317 455.442 570.984C456.202 572.65 459.214 573.703 463.849 573.659C466.86 573.659 471.553 575.691 474.755 577.475C477.957 579.259 484.989 580.063 488.483 579.653C492.606 579.171 496.89 576.729 497.562 575.063C498.235 573.396 497.343 571.569 487.606 567.416C487.518 567.416 474.068 563.03 469.346 557.811L457.357 557.621Z" fill="#263238"/>
<path d="M457.357 553.703C457.357 553.703 457.357 556.393 457.357 557.928C457.357 559.463 459.17 561.759 463.878 561.598C467.182 561.481 469.477 560.589 469.346 557.87V553.937L457.357 553.703Z" fill="#FFA8A7"/>
<path d="M425.617 485.837C426.426 479.411 427.86 473.08 429.901 466.934C429.901 466.934 428.614 450.632 427.986 435.179C427.313 418.483 427.986 397.489 427.708 393.337C427.708 393.337 481.583 382.43 482.548 401.728C483.512 421.027 480.413 470.15 479.784 478.63C479.156 487.109 477.679 494.609 475.925 508.352C474.17 522.095 469.346 553.937 469.346 553.937C467.482 554.887 465.413 555.362 463.322 555.322C461.231 555.281 459.182 554.725 457.357 553.703C457.357 553.703 453.571 515.107 453.966 505.326C454.274 498.061 455.522 490.866 457.679 483.922L455.764 454.17C454.857 440.325 453.907 433.702 453.688 427.664L452.533 427.079C452.533 427.079 451.349 450.969 450.72 459.448C450.091 467.928 448.732 476.057 446.334 491.802C444.199 505.457 437.869 534.361 437.869 534.361C431.714 537.694 428.044 533.937 428.044 533.937C428.044 533.937 423.98 497.679 425.617 485.837Z" fill="#455A64"/>
<path d="M453.688 427.708C453.688 427.708 440.617 421.261 434.082 415.457C434.082 415.457 440.149 424.009 448.132 427.81C448.132 427.81 450.968 457.474 450.954 456.89L452.591 427.65L453.688 427.708Z" fill="#474759"/>
<path d="M465.325 317.941L462.138 335.485L446.29 334.33L449.609 314.432L465.325 317.941Z" fill="#FFA8A7"/>
<path d="M429.55 333.043C431.115 328.277 437.167 323.087 443.22 324.271C452.222 325.794 461.093 328.009 469.755 330.894C475.296 332.868 480.34 337.663 480.808 355.909L483.615 410.237L476.904 411.699L474.565 399.389L473.483 411.699C466.466 413.454 454.287 412.006 446.29 410.237C429.623 406.597 427.62 399.682 427.62 399.682C427.62 399.682 427.401 369.111 427.898 355.909C428.366 344.623 428.468 336.26 429.55 333.043Z" fill="#474759"/>
<path d="M477.05 297.151C477.05 297.151 480.895 302.839 480.398 303.438C479.51 304.037 478.518 304.468 477.474 304.71L477.05 297.151Z" fill="#FFA8A7"/>
<path d="M465.325 279.14C469.024 281.011 475.413 284.461 477.167 297.985C478.98 311.874 476.597 316.348 474.726 318.19C473.454 319.432 466.553 319.506 463.103 318.467C458.717 317.166 449.038 313.467 444.594 306.333C439.36 297.941 438.19 286.698 444.097 282.224C452.386 275.938 462.196 277.561 465.325 279.14Z" fill="#FFA8A7"/>
<path d="M477.942 283.789C476.729 287.122 474.682 295.28 466.173 298.687C466.173 298.687 464.96 293.482 460.588 294.037C456.217 294.593 455.471 300.163 458.161 303.628C460.851 307.093 463.454 305.836 463.454 305.836C463.454 305.836 464.039 313.292 459.068 316.669C459.068 316.669 453.059 320.47 446.699 317.546C443.775 316.231 439.784 309.374 437.415 303.745C432.386 291.844 431.67 282.298 439.258 279.286C440.193 273.876 442.635 271.844 447.533 270.836C458.074 268.657 466.041 275.587 474.901 274.374C479.536 273.73 479.331 279.988 477.942 283.789Z" fill="#474759"/>
<path d="M439.082 281.099L434.111 278.028C434.304 277.684 434.564 277.382 434.877 277.141C435.189 276.9 435.547 276.724 435.929 276.625C436.311 276.526 436.709 276.506 437.1 276.564C437.49 276.623 437.864 276.761 438.2 276.968C438.536 277.175 438.826 277.449 439.053 277.771C439.281 278.094 439.44 278.459 439.523 278.845C439.605 279.231 439.609 279.63 439.533 280.017C439.457 280.404 439.304 280.772 439.082 281.099Z" fill="#474759"/>
<path d="M464.155 324.33L465.968 329.579C465.968 329.579 464.638 331.918 458.98 332.035C453.322 332.152 447.284 330.353 445.412 327.941C444.986 327.469 444.671 326.908 444.489 326.298C444.307 325.689 444.263 325.046 444.36 324.418C444.36 324.418 446.611 319.447 448.746 319.666L448.395 321.83C448.395 321.83 448.877 323.599 454.009 324.959C461.992 327.079 464.155 324.33 464.155 324.33Z" fill="#455A64"/>
<path d="M509.624 359.213C511.904 356.596 512.782 350.792 515.822 346.815C518.863 342.839 519.989 339.929 521.188 341.669C522.782 343.964 519.185 348.57 519.989 348.979C520.793 349.388 523.761 355.5 524.068 358.862C524.375 362.225 515.457 370.704 515.457 370.704L509.624 359.213Z" fill="#FFA8A7"/>
<path d="M464.156 324.33C464.524 324.323 464.886 324.415 465.206 324.598C465.525 324.781 465.789 325.047 465.969 325.368C466.863 326.982 467.663 328.647 468.366 330.353L465.969 329.579L464.156 324.33Z" fill="#455A64"/>
<path d="M519.741 348.512C519.741 348.512 530.516 347.576 532.08 348.512C533.644 349.447 533.177 354.111 532.08 356.977C530.984 359.842 525.486 361.699 520.384 365.149C520.384 364.623 519.741 348.512 519.741 348.512Z" fill="#FFA8A7"/>
<path d="M468.366 330.412C473.001 332.035 477.051 333.892 481.378 342.02C486.934 352.459 497.46 369.155 497.46 369.155L509.58 358.468C509.58 358.468 511.408 356.699 514.814 362.328C515.812 363.843 516.444 365.569 516.66 367.371C516.875 369.173 516.669 371 516.057 372.708C516.057 372.708 502.065 389.126 499.39 391.626C496.714 394.126 492.285 392.182 489.404 388.249C486.524 384.316 468.322 361.582 468.322 361.582C468.322 361.582 458.439 348.453 468.366 330.412Z" fill="#474759"/>
<path d="M593.382 303.116H558.864C557.561 303.116 556.311 302.599 555.39 301.677C554.469 300.756 553.951 299.507 553.951 298.204V243.364C553.951 239.049 555.666 234.91 558.717 231.858C561.769 228.807 565.908 227.092 570.223 227.092H582.066C586.374 227.104 590.501 228.823 593.543 231.874C596.586 234.924 598.294 239.056 598.294 243.364V298.204C598.294 299.507 597.776 300.756 596.855 301.677C595.934 302.599 594.684 303.116 593.382 303.116Z" fill="#474759"/>
<path d="M553.045 284.402C549.697 294.271 544.083 322.663 544.083 322.663C544.083 322.663 532.387 336.961 528.571 340.426C526.481 342.356 521.773 345.821 521.773 345.821L530.326 352.108C538.048 346.168 545.301 339.643 552.022 332.59C553.516 330.999 554.565 329.043 555.063 326.917L560.911 301.829C560.911 301.829 560.911 281.654 563.995 279.008C567.08 276.361 567.972 275.806 567.972 275.806C564.01 275.513 555.677 276.639 553.045 284.402Z" fill="#F28F8F"/>
<path d="M569.8 275.514C564.346 274.885 557.358 275.002 553.952 281.098C550.545 287.195 544.873 318.716 544.873 318.716C544.873 318.716 550.238 322.882 556.028 322.809L569.8 275.514Z" fill="#FFB13C"/>
<path d="M554.639 304.885C555.621 309.584 555.999 314.389 555.765 319.184C555.341 325.499 550.984 336.523 550.984 336.523C550.984 336.523 554.39 340.266 563.996 338.76C571.817 337.546 569.054 313.906 564.566 309.374C561.948 306.669 558.398 305.064 554.639 304.885Z" fill="#FFB13C"/>
<path opacity="0.3" d="M554.639 304.885C555.621 309.584 555.999 314.389 555.765 319.184C555.341 325.499 550.984 336.523 550.984 336.523C550.984 336.523 554.39 340.266 563.996 338.76C571.817 337.546 569.054 313.906 564.566 309.374C561.948 306.669 558.398 305.064 554.639 304.885Z" fill="#474759"/>
<path d="M572.709 471.846C572.771 472.924 572.501 473.996 571.934 474.916C570.488 477.305 568.787 479.531 566.861 481.553C564.157 484.477 560.107 487.913 557.197 490.442C555.589 491.904 555.531 493.98 557.841 494.726C562.146 495.774 566.69 495.142 570.545 492.957C573.469 491.407 577.534 484.185 579.931 483.161C582.695 481.919 584.23 481.305 585.165 480.033C585.873 479.31 586.315 478.368 586.418 477.362C586.522 476.356 586.281 475.344 585.736 474.492C584.434 472.065 582.475 468.337 581.671 468.761L581.92 469.521C581.291 471.495 575.911 473.79 573.148 473.249L572.709 471.846Z" fill="#474759"/>
<path d="M600.882 389.36C602.125 376.202 605.692 355.032 602.037 339.359L553.498 341.933C552.153 357.386 550.574 405.632 552.27 411.158C554.229 417.679 571.73 462.811 572.738 471.89C572.808 472.955 572.536 474.015 571.963 474.916C570.519 477.311 568.818 479.542 566.89 481.568C565.575 483.03 563.966 484.492 562.27 485.954C562.128 486.163 562.043 486.405 562.022 486.656C562.022 488.118 565.706 488.571 567.87 487.943C570.568 486.99 572.893 485.203 574.507 482.84C575.75 481.188 578.542 478.016 580.355 475.632C580.96 474.897 581.476 474.092 581.89 473.235C582.375 472.164 582.458 470.955 582.124 469.828L582.007 469.463C581.059 466.503 580.47 463.44 580.253 460.34C579.581 450.384 577.87 427.386 576.291 421.261C575.195 416.797 573.529 412.492 571.335 408.454L576.876 365.339C576.876 365.339 577.461 403.351 579.186 413.044C580.545 420.807 581.072 430.515 582.665 443.834C584.127 456.583 585.823 479.039 585.823 479.039C585.867 479.047 585.911 479.047 585.955 479.039V489.77H595.034V483.542C595.034 480.73 595.269 477.923 595.736 475.15C597.198 466.67 600.239 447.27 600.867 440.705C601.861 430.296 598.104 417.211 598.104 417.211C598.104 417.211 599.668 402.196 600.882 389.36Z" fill="#FFA8A7"/>
<path d="M583.776 275.967C583.776 275.967 596.832 277.429 598.396 278.175C586.145 286.786 596.072 305.953 596.072 305.953L591.379 320.675C596.598 327.356 601.101 331.333 603.893 338.658C606.993 346.845 609.741 359.023 609.01 383.98C597.314 392.752 561.729 391.801 547.87 383.98C547.87 383.98 550.209 361.947 552.972 344.827C554.8 333.526 559.112 321.216 558.381 317.049C552.884 300.148 552.533 297.107 553.528 293.336C556.261 282.721 567.08 275.543 569.741 275.543L583.776 275.967Z" fill="#FFB13C"/>
<path opacity="0.6" d="M583.776 275.967C583.776 275.967 596.832 277.429 598.396 278.175C586.145 286.786 596.072 305.953 596.072 305.953L591.379 320.675C596.598 327.356 601.101 331.333 603.893 338.658C606.993 346.845 609.741 359.023 609.01 383.98C597.314 392.752 561.729 391.801 547.87 383.98C547.87 383.98 550.209 361.947 552.972 344.827C554.8 333.526 559.112 321.216 558.381 317.049C552.884 300.148 552.533 297.107 553.528 293.336C556.261 282.721 567.08 275.543 569.741 275.543L583.776 275.967Z" fill="#363636"/>
<path d="M585.867 485.223V483.922C584.726 488.294 582.446 492.284 579.259 495.486C576.335 498.133 572.387 501.203 571.364 504.171C570.34 507.139 576.057 508.469 579.829 508.089C583.484 507.642 586.851 505.88 589.303 503.133C591.7 500.384 591.656 498.513 592.768 496.992C593.879 495.472 596.466 493.805 597.066 492.051C597.253 490.414 597.073 488.756 596.54 487.197C596.116 485.574 595.648 483.776 595.078 483.922V484.931C593.762 485.966 592.131 486.518 590.458 486.495C589.186 486.524 585.852 486.247 585.867 485.223Z" fill="#474759"/>
<path d="M595.034 484.901C593.718 485.936 592.087 486.489 590.414 486.466C589.069 486.466 585.794 486.246 585.808 485.223V483.922C584.668 488.294 582.387 492.284 579.2 495.486L576.992 497.46C575.443 499.185 575.881 500.691 579.522 500.998C583.162 501.305 586.364 499.112 589.113 495.735C591.456 492.338 593.44 488.708 595.034 484.901Z" fill="#FFA8A7"/>
<path d="M561.233 236.054C558.893 237.443 555.999 243.364 556.276 255.674C556.525 266.142 559.917 268.73 561.627 269.475C563.338 270.221 566.613 269.768 569.8 269.242V275.514C569.8 275.514 565.414 280.645 565.662 283.525C565.911 286.405 572.037 287.078 576.174 284.271C579.161 281.955 581.732 279.146 583.777 275.967L583.703 261.537C583.703 261.537 585.589 263.35 588.777 260.572C591.408 258.277 592.285 254.388 590.239 252.312C589.707 251.812 589.064 251.447 588.363 251.246C587.661 251.045 586.922 251.015 586.207 251.158C585.491 251.302 584.821 251.614 584.25 252.068C583.68 252.523 583.227 253.108 582.929 253.774C582.929 253.774 581.16 248.847 573.806 246.464C567.168 244.256 563.557 241.756 561.233 236.054Z" fill="#FFA8A7"/>
<path d="M567.972 253.057C567.972 253.315 568.048 253.567 568.191 253.782C568.333 253.997 568.535 254.165 568.772 254.266C569.009 254.368 569.27 254.397 569.524 254.351C569.777 254.304 570.012 254.185 570.198 254.006C570.384 253.828 570.514 253.599 570.571 253.348C570.628 253.097 570.61 252.834 570.52 252.593C570.429 252.352 570.269 252.143 570.061 251.991C569.852 251.84 569.604 251.753 569.346 251.742C569.17 251.738 568.994 251.769 568.829 251.833C568.665 251.897 568.514 251.993 568.387 252.115C568.259 252.237 568.157 252.383 568.086 252.545C568.015 252.707 567.976 252.881 567.972 253.057Z" fill="#474759"/>
<path d="M567.621 261.917L564.566 262.897C564.62 263.1 564.714 263.291 564.843 263.458C564.973 263.625 565.135 263.763 565.319 263.866C565.503 263.968 565.707 264.032 565.916 264.054C566.126 264.076 566.338 264.055 566.54 263.993C566.952 263.852 567.295 263.558 567.496 263.172C567.698 262.785 567.743 262.336 567.621 261.917Z" fill="#F28F8F"/>
<path d="M557.183 249.007L559.844 247.165C559.731 246.985 559.583 246.83 559.409 246.709C559.235 246.588 559.038 246.504 558.83 246.462C558.622 246.419 558.408 246.42 558.2 246.463C557.992 246.506 557.795 246.591 557.621 246.712C557.265 246.963 557.02 247.343 556.938 247.771C556.856 248.199 556.944 248.643 557.183 249.007Z" fill="#474759"/>
<path d="M571.802 250.002L569.127 248.16C569.24 247.98 569.387 247.825 569.561 247.704C569.735 247.583 569.931 247.498 570.139 247.454C570.346 247.411 570.56 247.409 570.768 247.45C570.976 247.491 571.174 247.573 571.349 247.692C571.703 247.948 571.947 248.329 572.031 248.757C572.115 249.186 572.033 249.631 571.802 250.002Z" fill="#474759"/>
<path d="M557.796 252.093C557.794 252.351 557.867 252.604 558.008 252.821C558.148 253.038 558.349 253.209 558.586 253.312C558.823 253.415 559.085 253.446 559.339 253.402C559.594 253.357 559.829 253.239 560.017 253.061C560.204 252.884 560.336 252.655 560.394 252.403C560.452 252.152 560.435 251.888 560.345 251.646C560.255 251.404 560.095 251.194 559.887 251.042C559.678 250.89 559.429 250.803 559.171 250.791C558.816 250.783 558.473 250.916 558.216 251.159C557.959 251.403 557.808 251.738 557.796 252.093Z" fill="#474759"/>
<path d="M563.995 251.347L563.791 259.271L559.624 257.984L563.995 251.347Z" fill="#F28F8F"/>
<path d="M569.8 269.242C573.162 268.789 580.034 266.8 581.174 264.066C580.74 265.451 579.893 266.67 578.747 267.561C576.671 269.33 569.8 271.333 569.8 271.333V269.242Z" fill="#F28F8F"/>
<path d="M593.645 312.648L584.42 325.134L591.379 320.675L593.645 312.648Z" fill="#FFB13C"/>
<path d="M520.969 345.821C518.995 348.365 517.782 353.307 516.744 354.974C515.705 356.64 514.463 358.088 516.744 358.395C519.024 358.702 522.358 354.243 523.6 351.538C524.23 350.012 525.416 348.784 526.919 348.102C525.852 347.737 526.407 343.453 525.662 342.854C525.662 342.854 521.773 344.447 520.969 345.821Z" fill="#F28F8F"/>
<path d="M520.384 365.12C522.446 363.585 522.519 361.699 522.914 358.702C523.308 355.705 531.569 352.459 531.832 354.696C532.095 356.933 532.841 358.804 530.37 361.523C527.899 364.243 524.156 367.137 520.384 365.12Z" fill="#F28F8F"/>
<path d="M583.776 275.967C583.776 275.967 595.999 277.034 598.396 278.174C600.794 279.315 604.785 286.215 601.218 296.23C597.651 306.245 594.405 318.029 594.77 320.397C595.136 322.765 603.659 335.017 603.659 335.017C601.308 336.753 598.649 338.028 595.823 338.774L591.437 329.242L592.461 339.374C588.055 340.445 583.528 340.936 578.996 340.836C578.996 340.836 574.858 301.917 583.776 275.967Z" fill="#FFB13C"/>
<path d="M613.894 323.701C614.873 317.941 613.894 316.055 611.876 310.412L601.642 317.034C602.481 319.165 602.975 321.415 603.104 323.701C603.016 325.368 600.75 341.888 598.63 347.649C598.248 348.673 597.497 349.518 596.525 350.017C594.417 351.304 592.506 352.89 590.852 354.725C589.288 356.187 588.031 356.45 588.192 356.947C588.433 357.486 588.865 357.917 589.405 358.157C589.944 358.397 590.553 358.43 591.116 358.248C592.389 357.835 593.611 357.275 594.756 356.582C593.741 358.732 592.388 360.706 590.75 362.43C586.993 366.435 586.656 369.038 593.674 369.579C598.06 369.915 601.73 367.459 605.692 358.029C606.92 354.572 607.93 351.042 608.718 347.459C610.853 339.286 612.929 329.505 613.894 323.701Z" fill="#FFA8A7"/>
<path d="M598.397 278.175C603.324 280.382 604.727 284.739 606.555 291.143C608.382 297.546 614.113 316.757 614.113 316.757C614.113 316.757 609.201 322.605 602.417 320.968L593.645 299.666C593.645 299.666 589.551 285.763 598.397 278.175Z" fill="#FFB13C"/>
</svg>
