<svg width="32" height="32" viewBox="0 0 32 32" fill="none" xmlns="http://www.w3.org/2000/svg">
<g clip-path="url(#clip0)">
<path d="M26.6699 0H5.33691C3.92389 0.00448288 2.57002 0.56779 1.57086 1.56695C0.571697 2.56611 0.00838913 3.91998 0.00390625 5.333V26.666C0.00390625 29.598 2.40491 31.999 5.33691 31.999H26.6699C29.6019 31.999 32.0029 29.598 32.0029 26.666V5.333C32.0029 2.401 29.6019 0 26.6699 0ZM23.7529 22.474C23.4865 23.1164 23.0641 23.6821 22.5239 24.12C21.9609 24.573 21.2529 24.948 20.3779 25.214C19.5079 25.485 18.4719 25.62 17.2689 25.62H8.69591V6.953H17.7639C19.4409 6.953 20.7849 7.328 21.7899 8.099C22.8059 8.87 23.3059 10.026 23.3059 11.578C23.3059 12.521 23.0769 13.323 22.6179 13.989C22.1589 14.655 21.4979 15.171 20.6439 15.531V15.594C21.7849 15.834 22.6649 16.375 23.2429 17.214C23.8209 18.053 24.1229 19.115 24.1229 20.396C24.1237 21.0944 23.9874 21.7861 23.7219 22.432L23.7529 22.468V22.474ZM20.0499 17.875C19.5079 17.375 18.7369 17.13 17.7479 17.13H11.9819V22.953H17.7629C18.7469 22.953 19.5229 22.698 20.0699 22.182C20.6169 21.666 20.8929 20.932 20.8929 19.994C20.8829 19.072 20.6169 18.359 20.0699 17.874H20.0439L20.0499 17.875ZM19.2529 14.109C19.7789 13.661 20.0389 13.02 20.0389 12.182C20.0389 11.244 19.8049 10.578 19.3309 10.198C18.8619 9.818 18.1849 9.62 17.2949 9.62H11.9619V14.771H17.2949C18.0709 14.771 18.7379 14.542 19.2479 14.11L19.2529 14.109Z" fill="#716FFF"/>
</g>
<defs>
<clipPath id="clip0">
<rect width="32" height="32" fill="white"/>
</clipPath>
</defs>
</svg>
