<svg width="32" height="32" viewBox="0 0 32 32" fill="none" xmlns="http://www.w3.org/2000/svg">
<path d="M14.859 0H20.093V24.219C17.411 24.729 15.437 24.933 13.296 24.933C6.91103 24.933 3.58203 22.048 3.58203 16.506C3.58203 11.173 7.11303 7.709 12.582 7.709C13.431 7.709 14.077 7.777 14.858 7.98L14.859 0ZM14.859 12.193C14.2906 12.0002 13.6932 11.9069 13.093 11.917C10.442 11.917 8.91603 13.547 8.91603 16.407C8.91603 19.193 10.374 20.72 13.062 20.72C13.64 20.72 14.114 20.689 14.859 20.585V12.189V12.193ZM28.417 8.078V20.208C28.417 24.385 28.115 26.396 27.198 28.125C26.349 29.792 25.224 30.844 22.917 32L18.058 29.687C20.365 28.598 21.49 27.651 22.204 26.187C22.949 24.692 23.188 22.958 23.188 18.406V8.078H28.417ZM23.188 0.026H28.417V5.396H23.188V0.026Z" fill="#716FFF"/>
</svg>
