<svg width="32" height="32" viewBox="0 0 32 32" fill="none" xmlns="http://www.w3.org/2000/svg">
<path d="M21.135 11.9747H15.0177V0H21.135C24.4363 0 27.1217 2.68533 27.1217 5.98667C27.1217 9.288 24.4363 11.9747 21.135 11.9747V11.9747ZM16.979 10.0133H21.135C23.355 10.0133 25.1603 8.20667 25.1603 5.988C25.1603 3.76933 23.3537 1.96267 21.135 1.96267H16.979V10.0133V10.0133ZM16.979 11.9747H10.863C7.56167 11.9747 4.87633 9.28933 4.87633 5.988C4.87633 2.68667 7.56167 0 10.863 0H16.9803V11.9747H16.979ZM10.863 1.96133C8.643 1.96133 6.83767 3.768 6.83767 5.98667C6.83767 8.20533 8.643 10.0133 10.863 10.0133H15.019V1.96133H10.863ZM16.979 21.9867H10.863C7.56167 21.9867 4.87633 19.3013 4.87633 16C4.87633 12.6987 7.56167 10.0133 10.863 10.0133H16.9803V21.9867H16.979ZM10.863 11.9747C8.643 11.9747 6.83767 13.7813 6.83767 16C6.83767 18.2187 8.64433 20.0253 10.863 20.0253H15.019V11.9747H10.863ZM10.895 32C7.57633 32 4.875 29.3147 4.875 26.0133C4.875 22.712 7.56033 20.0267 10.8617 20.0267H16.979V25.948C16.979 29.2853 14.2497 32 10.895 32V32ZM10.863 21.9867C9.79585 21.9881 8.77281 22.4126 8.01822 23.1672C7.26363 23.9218 6.83908 24.9449 6.83767 26.012C6.83767 28.232 8.65767 30.0373 10.8963 30.0373C13.1697 30.0373 15.0203 28.2027 15.0203 25.9467V21.9867H10.863V21.9867ZM21.135 21.9867H21.0043C17.703 21.9867 15.0177 19.3013 15.0177 16C15.0177 12.6987 17.703 10.0133 21.0043 10.0133H21.135C24.4363 10.0133 27.1217 12.6987 27.1217 16C27.1217 19.3013 24.4363 21.9867 21.135 21.9867V21.9867ZM21.0057 11.9747C18.7857 11.9747 16.9803 13.7813 16.9803 16C16.9803 18.2187 18.787 20.0253 21.0057 20.0253H21.1363C23.3563 20.0253 25.1617 18.2187 25.1617 16C25.1617 13.7813 23.355 11.9747 21.1363 11.9747H21.0057V11.9747Z" fill="#716FFF"/>
</svg>
