<svg width="32" height="32" viewBox="0 0 32 32" fill="none" xmlns="http://www.w3.org/2000/svg">
<g clip-path="url(#clip0)">
<path d="M5.18788 20.8962L8.33887 0.61516C8.44287 -0.0728399 9.36987 -0.22884 9.69287 0.38616L13.0839 6.74516L5.18788 20.8962ZM27.5779 25.8182L24.5779 7.15116C24.5551 7.02072 24.4971 6.899 24.4101 6.79921C24.3231 6.69941 24.2104 6.62535 24.0843 6.58506C23.9581 6.54477 23.8234 6.53979 23.6946 6.57065C23.5659 6.60152 23.448 6.66706 23.3539 6.76016L4.42188 25.8172L14.8959 31.7232C15.5519 32.0932 16.3539 32.0932 17.0109 31.7232L27.5779 25.8182ZM19.0679 9.53116L16.6409 4.88516C16.5794 4.76854 16.4873 4.67091 16.3744 4.6028C16.2615 4.5347 16.1322 4.4987 16.0004 4.4987C15.8685 4.4987 15.7392 4.5347 15.6263 4.6028C15.5135 4.67091 15.4213 4.76854 15.3599 4.88516L4.70888 23.9792L19.0679 9.53116Z" fill="#716FFF"/>
</g>
<defs>
<clipPath id="clip0">
<rect width="32" height="32" fill="white"/>
</clipPath>
</defs>
</svg>
