<svg width="32" height="32" viewBox="0 0 32 32" fill="none" xmlns="http://www.w3.org/2000/svg">
<path d="M2 0L4.51874 28.7154L15.9981 32L27.4316 28.7154L30 0H2ZM24.7068 6.81154L24.5236 8.62692L24.4588 9.37692H11.0484L11.3613 13H24.1496L24.0237 13.9346L23.2147 23.25L23.1498 23.8731L16.0134 25.8577V25.8692H15.9676L15.9561 25.8731V25.8692H15.9523L8.7548 23.8692L8.31975 18.3077H11.7964L12.0444 21.1231L15.9523 22.1885H15.9676L19.8602 21.1269L20.2952 16.5654H15.9561V16.5615H8.13657L7.26646 6.81154L7.20158 5.87692H24.7679L24.7068 6.81154V6.81154Z" fill="#716FFF"/>
</svg>
