<svg width="32" height="32" viewBox="0 0 32 32" fill="none" xmlns="http://www.w3.org/2000/svg">
<path d="M16 26C21 26 25.5453 21.4947 25.024 20.5C24.5 19.5 22 23 16 23C10 23 8 19.5 7.5 20.5C7 21.5 11 26 16 26ZM21.5 10C22.3307 10 23 10.6693 23 11.5V13.5C23 14.3307 22.3307 15 21.5 15C21.3029 15.0004 21.1077 14.9618 20.9256 14.8865C20.7434 14.8113 20.5779 14.7008 20.4386 14.5614C20.2992 14.4221 20.1887 14.2566 20.1135 14.0744C20.0382 13.8923 19.9996 13.6971 20 13.5V11.5C20 10.6693 20.6693 10 21.5 10ZM10.5 10C11.3307 10 12 10.6693 12 11.5V13.5C12 14.3307 11.3307 15 10.5 15C10.3029 15.0004 10.1077 14.9618 9.92556 14.8865C9.74341 14.8113 9.57791 14.7008 9.43856 14.5614C9.2992 14.4221 9.18872 14.2566 9.11347 14.0744C9.03821 13.8923 8.99965 13.6971 9 13.5V11.5C9 10.6693 9.66933 10 10.5 10ZM16 0C7.17467 0 0 7.17467 0 16C0 24.8253 7.17467 32 16 32C24.8253 32 32 24.8253 32 16C32 7.17467 24.8253 0 16 0ZM16 2C23.744 2 30 8.256 30 16C30 23.744 23.744 30 16 30C8.256 30 2 23.744 2 16C2 8.256 8.256 2 16 2Z" fill="#716FFF"/>
</svg>
