<svg width="32" height="32" viewBox="0 0 32 32" fill="none" xmlns="http://www.w3.org/2000/svg">
<g clip-path="url(#clip0)">
<path d="M17.756 23.922C25.6566 17.9178 20.2316 5.49096 13.4115 6.55571C0.582209 8.55853 3.79115 26.3887 8.06546 29.7034C1.37765 26.3992 -1.4016 18.2008 0.676272 11.2335C2.32258 5.71396 7.45546 0.247401 15.2318 0.0379011C27.5047 -1.08147 31.1613 22.7982 17.756 23.922ZM13.703 8.13728C6.68421 8.49528 5.17033 15.5847 5.74733 20.7069C6.58902 28.1805 11.325 33.0329 18.7194 31.8122C30.0805 29.9365 39.4634 11.8918 23.497 1.81121C29.3788 8.66271 29.4334 22.5433 19.7705 25.0068C10.8341 27.7007 6.76571 13.274 13.703 8.13728V8.13728Z" fill="#716FFF"/>
</g>
<defs>
<clipPath id="clip0">
<rect width="32" height="32" fill="white"/>
</clipPath>
</defs>
</svg>
