<svg width="32" height="32" viewBox="0 0 32 32" fill="none" xmlns="http://www.w3.org/2000/svg">
<g clip-path="url(#clip0)">
<path d="M28.4099 0.000347591H3.59377C1.69583 -0.0140274 0.0271406 1.4711 0.00195312 3.59216V28.4083C0.0272031 30.5293 1.69583 32.0144 3.59377 32.0001H28.4099C30.8646 31.9651 31.9593 30.1112 32.0019 28.4083V3.59216C31.9594 1.88922 30.8647 0.0352226 28.4099 0.000347591ZM9.74477 25.9584C9.49489 27.8139 8.33408 29.0253 6.20227 29.0853C4.54095 29.1322 3.19189 28.4148 2.35364 26.833L4.36545 25.6085C4.36577 25.6091 4.89583 26.5652 5.4642 26.762C5.76452 26.866 6.39358 26.9041 6.80358 26.6362C7.17808 26.3917 7.29564 25.7397 7.29564 25.7397V16.9053H9.74477V25.9583V25.9584ZM17.7796 28.6013C15.8187 29.4714 12.3389 29.1543 11.1443 26.5268L13.1123 25.3897C14.0963 27.2594 16.6485 27.2549 17.1495 26.0235C17.6388 24.8212 16.1627 24.351 14.3309 23.5387C13.5342 23.1278 12.3014 22.4808 11.9313 20.8996C11.6521 19.7065 11.9013 17.9035 13.7682 17.0801L13.7684 17.0802C16.3578 16.13 18.3459 17.3427 18.929 18.7421L17.0484 19.9667C16.7703 19.465 16.1778 18.9519 15.4937 18.9152C14.8733 18.8819 14.2966 19.2062 14.2781 20.0452C14.315 21.2677 15.9225 21.2676 17.8502 22.4887C19.2624 23.3833 19.5268 24.067 19.6575 25.3029C19.7542 26.2189 19.5818 27.8016 17.7796 28.6013ZM27.3261 29.0197L24.9645 24.8212L22.6028 29.0197H20.1974L23.6086 22.7657L20.416 16.8178H22.8653L24.9645 20.7101L27.0637 16.8177H29.4691L26.3202 22.7657L29.7315 29.0197H27.3261Z" fill="#716FFF"/>
</g>
<defs>
<clipPath id="clip0">
<rect width="32" height="32" fill="white"/>
</clipPath>
</defs>
</svg>
