<svg width="32" height="32" viewBox="0 0 32 32" fill="none" xmlns="http://www.w3.org/2000/svg">
<path d="M15.9925 0C15.5363 0 15.08 0.110769 14.6863 0.332308L2.3 7.37231C1.5 7.82769 1 8.68923 1 9.6V22.3754C1 23.2985 1.5 24.1477 2.3 24.6031L5.55 26.4492C7.125 27.2123 7.6875 27.2123 8.4 27.2123C10.7375 27.2123 12.075 25.8215 12.075 23.4092V10.2277C12.075 10.133 12.0368 10.0422 11.9688 9.97531C11.9008 9.90837 11.8086 9.87077 11.7125 9.87077H10.15C10.1022 9.87011 10.0548 9.87889 10.0105 9.89659C9.9662 9.91429 9.92597 9.94056 9.89217 9.97383C9.85838 10.0071 9.8317 10.0467 9.81372 10.0903C9.79574 10.1339 9.78683 10.1806 9.7875 10.2277V23.3969C9.7875 24.48 8.65 25.5385 6.8125 24.64L3.4125 22.7077C3.35153 22.6756 3.30065 22.6276 3.2654 22.569C3.23014 22.5104 3.21185 22.4435 3.2125 22.3754V9.61231C3.2125 9.46462 3.2875 9.34154 3.4125 9.26769L15.8 2.22769C15.858 2.19159 15.9252 2.17243 15.9937 2.17243C16.0623 2.17243 16.1295 2.19159 16.1875 2.22769L28.575 9.26769C28.7 9.34154 28.775 9.46462 28.775 9.6V22.3754C28.775 22.5108 28.7 22.6462 28.5875 22.7077L16.1875 29.76C16.1275 29.7902 16.0611 29.806 15.9937 29.806C15.9264 29.806 15.86 29.7902 15.8 29.76L12.6125 27.9015C12.5697 27.8705 12.519 27.8518 12.466 27.8475C12.4131 27.8431 12.3599 27.8533 12.3125 27.8769C11.425 28.3692 11.2625 28.4308 10.4375 28.7138C10.2375 28.7754 9.925 28.8985 10.55 29.2431L14.6875 31.6554C15.0875 31.8769 15.5375 32 15.9875 32C16.45 32 16.9 31.8769 17.3 31.6554L29.7 24.6031C30.5 24.1477 31 23.2985 31 22.3754V9.61231C31 8.68923 30.5 7.84 29.7 7.38462L17.3 0.332308C16.905 0.110769 16.45 0 15.9925 0V0ZM19.325 9.85354C15.7875 9.85354 13.675 11.3305 13.675 13.792C13.675 16.4628 15.775 17.1988 19.175 17.5311C23.2375 17.9249 23.55 18.5182 23.55 19.3058C23.55 20.6597 22.4375 21.2382 19.825 21.2382C16.5375 21.2382 15.8125 20.4246 15.575 18.8246C15.5629 18.742 15.5207 18.6665 15.4564 18.6122C15.392 18.5578 15.3098 18.5284 15.225 18.5292H13.6125C13.5197 18.5292 13.4306 18.5655 13.365 18.6302C13.2994 18.6948 13.2625 18.7824 13.2625 18.8738C13.2625 20.9292 14.4 23.3785 19.825 23.3785C23.75 23.3785 26 21.8523 26 19.1938C26 16.56 24.1875 15.8585 20.3875 15.3538C16.525 14.8615 16.1375 14.6031 16.1375 13.7169C16.1375 12.9785 16.475 12.0062 19.325 12.0062C21.8625 12.0062 22.8125 12.5477 23.2 14.2338C23.2375 14.3938 23.375 14.5169 23.55 14.5169H25.1625C25.2625 14.5169 25.35 14.4677 25.425 14.3938C25.459 14.3579 25.4845 14.315 25.4996 14.2681C25.5148 14.2213 25.5192 14.1718 25.5125 14.1231C25.2625 11.2185 23.3 9.85231 19.325 9.85231V9.85354Z" fill="#716FFF"/>
</svg>
