<svg width="32" height="32" viewBox="0 0 32 32" fill="none" xmlns="http://www.w3.org/2000/svg">
<path d="M18.7939 15.9267C18.7939 13.7364 16.4223 12.3601 14.5352 13.4552C12.6482 14.5503 12.6482 17.303 14.5352 18.3981C16.4223 19.4932 18.7939 18.1169 18.7939 15.9267ZM25.2945 10.6661C27.1733 1.68543 23.04 -1.13282 16.0133 5.36781C9.39991 -0.832194 4.69041 1.12174 6.69441 10.6284C-2.54684 13.4144 -1.93459 18.6588 6.7696 21.3376C4.7781 30.0928 8.4981 33.2867 16.0133 26.6734C23.303 33.2116 27.1719 30.1504 25.1818 21.3001C34.676 18.0811 33.8243 13.4217 25.2945 10.6661V10.6661ZM24.017 10.3279C22.5275 9.99187 21.0863 9.74731 19.6205 9.61387C18.8483 8.48468 17.9488 7.35668 16.9151 6.30724C22.5487 0.903493 25.869 2.59193 24.017 10.3279ZM9.4751 17.6551C10.0324 18.845 10.7652 19.9347 11.3163 20.8491C10.4189 20.7572 9.4521 20.6179 8.42291 20.4357C8.75272 19.5126 9.10379 18.5857 9.47504 17.6551H9.4751ZM9.39991 14.4236C8.98991 13.4394 8.61585 12.4896 8.31023 11.6054C9.3726 11.3851 10.4137 11.1852 11.3163 11.1169C10.6445 12.1721 10.0065 13.2754 9.39991 14.4236ZM10.189 16.0769C11.1079 14.2367 12.0799 12.4899 13.1575 10.929C15.0696 10.819 16.9614 10.8287 18.8315 10.9666C19.8803 12.428 20.8592 14.1747 21.8 16.0769C21.096 17.5317 20.0963 19.2084 18.9442 20.9994C17.0206 21.145 15.0482 21.1249 13.0448 20.9994C12.0294 19.4437 11.0757 17.8052 10.189 16.0769ZM22.5139 17.6551C22.8788 18.5405 23.216 19.4429 23.5285 20.3606C22.5848 20.5592 21.6316 20.7098 20.6727 20.8115C21.3161 19.8146 21.9264 18.7562 22.5139 17.6551ZM20.6727 11.1169C21.6972 11.2571 22.687 11.4322 23.6412 11.6429C23.324 12.5872 22.9603 13.5152 22.5515 14.4236C21.9699 13.2764 21.3454 12.1724 20.6727 11.1169L20.6727 11.1169ZM17.7794 9.46356C16.609 9.41762 15.4185 9.41912 14.2096 9.46356C14.7389 8.76749 15.3287 8.04043 15.9757 7.28418C16.6062 7.96468 17.2035 8.69718 17.7794 9.46356ZM15.0739 6.30718C14.0402 7.35662 13.1407 8.44706 12.3684 9.57624C10.9026 9.70968 9.42385 9.95424 7.93447 10.2902C6.16835 2.43681 9.44029 0.903368 15.0739 6.30718ZM7.10779 20.0976C-0.720525 17.7428 -0.344775 14.0729 7.0326 11.9061C7.48391 13.2754 8.03022 14.6662 8.64841 16.0018C8.04779 17.3831 7.51597 18.8016 7.10779 20.0976ZM8.08473 21.6757C9.41241 22.0014 10.8194 22.1577 12.2933 22.3146C13.18 23.5661 14.0984 24.7296 15.0739 25.7339C9.33729 31.2326 6.13935 29.2348 8.08473 21.6758V21.6757ZM15.9757 24.7946C15.2959 24.0906 14.6612 23.293 14.0594 22.4273C15.401 22.4556 16.6968 22.4587 17.9297 22.4273C17.3396 23.265 16.6864 24.0564 15.9757 24.7946ZM16.9151 25.7339C17.9618 24.5967 18.8845 23.4439 19.6957 22.277C21.0803 22.1751 22.4832 21.9624 23.9042 21.6382C25.8672 29.6841 22.303 30.8721 16.9151 25.734V25.7339ZM24.8436 20.0224C24.4411 18.7265 23.9329 17.3831 23.3406 16.0018C23.9434 14.6802 24.4703 13.3253 24.9187 11.9436C32.1208 14.123 32.697 17.6051 24.8436 20.0224Z" fill="#716FFF"/>
</svg>
