<svg width="32" height="32" viewBox="0 0 32 32" fill="none" xmlns="http://www.w3.org/2000/svg">
<g clip-path="url(#clip0)">
<path d="M15.9157 0.0185547C14.5777 0.0223789 13.2454 0.191664 11.949 0.522555C5.709 2.07322 0.758332 7.72522 0.122332 14.1359C-0.664335 20.1999 2.401 26.5159 7.64767 29.6479C12.7957 32.8719 19.7717 32.7412 24.813 29.3506C29.3423 26.4092 32.1623 21.0466 31.9943 15.6372C31.917 10.2826 28.9143 5.08255 24.3143 2.33055C21.8077 0.785221 18.8597 0.00788802 15.917 0.019888L15.9157 0.0185547ZM15.8317 2.27989C22.425 2.27055 28.8837 7.36389 29.541 14.1786C30.801 21.7252 24.537 29.3959 16.8903 29.6186C9.61833 30.3439 2.59167 24.1786 2.38367 16.8759C1.84233 10.9639 5.73966 5.09589 11.3143 3.14255C12.7516 2.57051 14.2848 2.27817 15.8317 2.28122V2.27989ZM22.6197 6.57855C19.037 9.35855 15.6063 12.3226 12.101 15.1879C13.705 15.2106 15.317 15.2092 16.929 15.2012C18.809 12.3146 20.7423 9.46789 22.6197 6.57855ZM15.0663 16.7839C13.1863 19.6719 11.253 22.5292 9.373 25.4159C12.9637 22.6426 16.3797 19.6559 19.909 16.8079C18.2949 16.7884 16.6806 16.7804 15.0663 16.7839V16.7839Z" fill="#716FFF"/>
</g>
<defs>
<clipPath id="clip0">
<rect width="32" height="32" fill="white"/>
</clipPath>
</defs>
</svg>
