<svg width="32" height="32" viewBox="0 0 32 32" fill="none" xmlns="http://www.w3.org/2000/svg">
<g clip-path="url(#clip0)">
<path d="M16.002 6.3999C11.7353 6.3999 9.06862 8.53324 8.00195 12.7999C9.60195 10.6666 11.4686 9.86657 13.602 10.3999C14.8193 10.7039 15.6886 11.5866 16.6526 12.5652C18.222 14.1572 20.0366 15.9999 24.002 15.9999C28.2686 15.9999 30.9353 13.8666 32.002 9.5999C30.402 11.7332 28.5353 12.5332 26.402 11.9999C25.1846 11.6959 24.3153 10.8132 23.3513 9.83457C21.7833 8.24257 19.9686 6.3999 16.002 6.3999ZM8.00195 15.9999C3.73529 15.9999 1.06862 18.1332 0.00195312 22.3999C1.60195 20.2666 3.46862 19.4666 5.60195 19.9999C6.81929 20.3039 7.68862 21.1866 8.65262 22.1652C10.222 23.7572 12.0366 25.5999 16.002 25.5999C20.2686 25.5999 22.9353 23.4666 24.002 19.1999C22.402 21.3332 20.5353 22.1332 18.402 21.5999C17.1846 21.2959 16.3153 20.4132 15.3513 19.4346C13.7833 17.8426 11.9686 15.9999 8.00195 15.9999Z" fill="#716FFF"/>
</g>
<defs>
<clipPath id="clip0">
<rect width="32" height="32" fill="white"/>
</clipPath>
</defs>
</svg>
