
<svg width="391" height="757" viewBox="0 0 391 757" fill="none" xmlns="http://www.w3.org/2000/svg">
    <g clipPath="url(#clip0)">
        <path d="M195.761 82.761C197.286 82.761 198.522 81.5248 198.522 80C198.522 78.4752 197.286 77.239 195.761 77.239C194.236 77.239 193 78.4752 193 80C193 81.5248 194.236 82.761 195.761 82.761Z" fill="#6E6E6E"/>
        <path d="M198.522 79.8422H289.239" stroke="#737373" strokeWidth="0.4"/>
        <path d="M292 82.761C293.525 82.761 294.761 81.5248 294.761 80C294.761 78.4752 293.525 77.239 292 77.239C290.475 77.239 289.239 78.4752 289.239 80C289.239 81.5248 290.475 82.761 292 82.761Z" fill="#6E6E6E"/>
        <path d="M198.522 80C198.522 78.4752 197.286 77.239 195.761 77.239C194.236 77.239 193 78.4752 193 80C193 81.5248 194.236 82.761 195.761 82.761C197.286 82.761 198.522 81.5248 198.522 80Z" fill="#6E6E6E"/>
        <path d="M195.603 77.239V-13.4781" stroke="#737373" strokeWidth="0.4"/>
        <path d="M294.761 80C294.761 78.4752 293.525 77.239 292 77.239C290.475 77.239 289.239 78.4752 289.239 80C289.239 81.5248 290.475 82.761 292 82.761C293.525 82.761 294.761 81.5248 294.761 80Z" fill="#6E6E6E"/>
        <path d="M291.842 77.239V-13.4781" stroke="#737373" strokeWidth="0.4"/>
        <path d="M292 82.761C293.525 82.761 294.761 81.5248 294.761 80C294.761 78.4752 293.525 77.239 292 77.239C290.475 77.239 289.239 78.4752 289.239 80C289.239 81.5248 290.475 82.761 292 82.761Z" fill="#6E6E6E"/>
        <path d="M294.761 79.8422H385.478" stroke="#737373" strokeWidth="0.4"/>
        <path d="M388.239 82.761C389.764 82.761 391 81.5248 391 80C391 78.4752 389.764 77.239 388.239 77.239C386.714 77.239 385.478 78.4752 385.478 80C385.478 81.5248 386.714 82.761 388.239 82.761Z" fill="#6E6E6E"/>
        <path d="M294.761 80C294.761 78.4752 293.525 77.239 292 77.239C290.475 77.239 289.239 78.4752 289.239 80C289.239 81.5248 290.475 82.761 292 82.761C293.525 82.761 294.761 81.5248 294.761 80Z" fill="#6E6E6E"/>
        <path d="M291.842 77.239V-13.4781" stroke="#737373" strokeWidth="0.4"/>
        <path d="M391 80C391 78.4752 389.764 77.239 388.239 77.239C386.714 77.239 385.478 78.4752 385.478 80C385.478 81.5248 386.714 82.761 388.239 82.761C389.764 82.761 391 81.5248 391 80Z" fill="#6E6E6E"/>
        <path d="M388.081 77.239V-13.4781" stroke="#737373" strokeWidth="0.4"/>
        <path d="M292 82.761C293.525 82.761 294.761 81.5248 294.761 80C294.761 78.4752 293.525 77.239 292 77.239C290.475 77.239 289.239 78.4752 289.239 80C289.239 81.5248 290.475 82.761 292 82.761Z" fill="#6E6E6E"/>
        <path d="M294.761 79.8422H385.478" stroke="#737373" strokeWidth="0.4"/>
        <path d="M388.239 82.761C389.764 82.761 391 81.5248 391 80C391 78.4752 389.764 77.239 388.239 77.239C386.714 77.239 385.478 78.4752 385.478 80C385.478 81.5248 386.714 82.761 388.239 82.761Z" fill="#6E6E6E"/>
        <path d="M292 179C293.525 179 294.761 177.764 294.761 176.239C294.761 174.714 293.525 173.478 292 173.478C290.475 173.478 289.239 174.714 289.239 176.239C289.239 177.764 290.475 179 292 179Z" fill="#6E6E6E"/>
        <path d="M294.761 176.081H385.478" stroke="#737373" strokeWidth="0.4"/>
        <path d="M388.239 179C389.764 179 391 177.764 391 176.239C391 174.714 389.764 173.478 388.239 173.478C386.714 173.478 385.478 174.714 385.478 176.239C385.478 177.764 386.714 179 388.239 179Z" fill="#6E6E6E"/>
        <path d="M294.761 176.239C294.761 174.714 293.525 173.478 292 173.478C290.475 173.478 289.239 174.714 289.239 176.239C289.239 177.764 290.475 179 292 179C293.525 179 294.761 177.764 294.761 176.239Z" fill="#6E6E6E"/>
        <path d="M291.842 173.478V82.761" stroke="#737373" strokeWidth="0.4"/>
        <path d="M294.761 80C294.761 78.4752 293.525 77.239 292 77.239C290.475 77.239 289.239 78.4752 289.239 80C289.239 81.5248 290.475 82.761 292 82.761C293.525 82.761 294.761 81.5248 294.761 80Z" fill="#6E6E6E"/>
        <path d="M391 176.239C391 174.714 389.764 173.478 388.239 173.478C386.714 173.478 385.478 174.714 385.478 176.239C385.478 177.764 386.714 179 388.239 179C389.764 179 391 177.764 391 176.239Z" fill="#6E6E6E"/>
        <path d="M388.081 173.478V82.761" stroke="#737373" strokeWidth="0.4"/>
        <path d="M391 80C391 78.4752 389.764 77.239 388.239 77.239C386.714 77.239 385.478 78.4752 385.478 80C385.478 81.5248 386.714 82.761 388.239 82.761C389.764 82.761 391 81.5248 391 80Z" fill="#6E6E6E"/>
        <path d="M195.761 82.761C197.286 82.761 198.522 81.5248 198.522 80C198.522 78.4752 197.286 77.239 195.761 77.239C194.236 77.239 193 78.4752 193 80C193 81.5248 194.236 82.761 195.761 82.761Z" fill="#6E6E6E"/>
        <path d="M198.522 79.8422H289.239" stroke="#737373" strokeWidth="0.4"/>
        <path d="M292 82.761C293.525 82.761 294.761 81.5248 294.761 80C294.761 78.4752 293.525 77.239 292 77.239C290.475 77.239 289.239 78.4752 289.239 80C289.239 81.5248 290.475 82.761 292 82.761Z" fill="#6E6E6E"/>
        <path d="M195.761 179C197.286 179 198.522 177.764 198.522 176.239C198.522 174.714 197.286 173.478 195.761 173.478C194.236 173.478 193 174.714 193 176.239C193 177.764 194.236 179 195.761 179Z" fill="#6E6E6E"/>
        <path d="M198.522 176.081H289.239" stroke="#737373" strokeWidth="0.4"/>
        <path d="M292 179C293.525 179 294.761 177.764 294.761 176.239C294.761 174.714 293.525 173.478 292 173.478C290.475 173.478 289.239 174.714 289.239 176.239C289.239 177.764 290.475 179 292 179Z" fill="#6E6E6E"/>
        <path d="M198.522 176.239C198.522 174.714 197.286 173.478 195.761 173.478C194.236 173.478 193 174.714 193 176.239C193 177.764 194.236 179 195.761 179C197.286 179 198.522 177.764 198.522 176.239Z" fill="#6E6E6E"/>
        <path d="M195.603 173.478V82.761" stroke="#737373" strokeWidth="0.4"/>
        <path d="M198.522 80C198.522 78.4752 197.286 77.239 195.761 77.239C194.236 77.239 193 78.4752 193 80C193 81.5248 194.236 82.761 195.761 82.761C197.286 82.761 198.522 81.5248 198.522 80Z" fill="#6E6E6E"/>
        <path d="M294.761 176.239C294.761 174.714 293.525 173.478 292 173.478C290.475 173.478 289.239 174.714 289.239 176.239C289.239 177.764 290.475 179 292 179C293.525 179 294.761 177.764 294.761 176.239Z" fill="#6E6E6E"/>
        <path d="M291.842 173.478V82.761" stroke="#737373" strokeWidth="0.4"/>
        <path d="M294.761 80C294.761 78.4752 293.525 77.239 292 77.239C290.475 77.239 289.239 78.4752 289.239 80C289.239 81.5248 290.475 82.761 292 82.761C293.525 82.761 294.761 81.5248 294.761 80Z" fill="#6E6E6E"/>
        <path d="M3.26096 82.761C4.78579 82.761 6.02191 81.5248 6.02191 80C6.02191 78.4752 4.78579 77.239 3.26096 77.239C1.73612 77.239 0.5 78.4752 0.5 80C0.5 81.5248 1.73612 82.761 3.26096 82.761Z" fill="#6E6E6E"/>
        <path d="M6.02191 79.8422H96.739" stroke="#737373" strokeWidth="0.4"/>
        <path d="M99.5 82.761C101.025 82.761 102.261 81.5248 102.261 80C102.261 78.4752 101.025 77.239 99.5 77.239C97.9752 77.239 96.739 78.4752 96.739 80C96.739 81.5248 97.9752 82.761 99.5 82.761Z" fill="#6E6E6E"/>
        <path d="M6.02191 80C6.02191 78.4752 4.78579 77.239 3.26096 77.239C1.73612 77.239 0.5 78.4752 0.5 80C0.5 81.5248 1.73612 82.761 3.26096 82.761C4.78579 82.761 6.02191 81.5248 6.02191 80Z" fill="#6E6E6E"/>
        <path d="M3.1032 77.239V-13.4781" stroke="#737373" strokeWidth="0.4"/>
        <path d="M102.261 80C102.261 78.4752 101.025 77.239 99.5 77.239C97.9752 77.239 96.739 78.4752 96.739 80C96.739 81.5248 97.9752 82.761 99.5 82.761C101.025 82.761 102.261 81.5248 102.261 80Z" fill="#6E6E6E"/>
        <path d="M99.3422 77.239V-13.4781" stroke="#737373" strokeWidth="0.4"/>
        <path d="M99.5 82.761C101.025 82.761 102.261 81.5248 102.261 80C102.261 78.4752 101.025 77.239 99.5 77.239C97.9752 77.239 96.739 78.4752 96.739 80C96.739 81.5248 97.9752 82.761 99.5 82.761Z" fill="#6E6E6E"/>
        <path d="M102.261 79.8422H192.978" stroke="#737373" strokeWidth="0.4"/>
        <path d="M195.739 82.761C197.264 82.761 198.5 81.5248 198.5 80C198.5 78.4752 197.264 77.239 195.739 77.239C194.214 77.239 192.978 78.4752 192.978 80C192.978 81.5248 194.214 82.761 195.739 82.761Z" fill="#6E6E6E"/>
        <path d="M102.261 80C102.261 78.4752 101.025 77.239 99.5 77.239C97.9752 77.239 96.739 78.4752 96.739 80C96.739 81.5248 97.9752 82.761 99.5 82.761C101.025 82.761 102.261 81.5248 102.261 80Z" fill="#6E6E6E"/>
        <path d="M99.3422 77.239V-13.4781" stroke="#737373" strokeWidth="0.4"/>
        <path d="M198.5 80C198.5 78.4752 197.264 77.239 195.739 77.239C194.214 77.239 192.978 78.4752 192.978 80C192.978 81.5248 194.214 82.761 195.739 82.761C197.264 82.761 198.5 81.5248 198.5 80Z" fill="#6E6E6E"/>
        <path d="M195.581 77.239V-13.4781" stroke="#737373" strokeWidth="0.4"/>
        <path d="M99.5 82.761C101.025 82.761 102.261 81.5248 102.261 80C102.261 78.4752 101.025 77.239 99.5 77.239C97.9752 77.239 96.739 78.4752 96.739 80C96.739 81.5248 97.9752 82.761 99.5 82.761Z" fill="#6E6E6E"/>
        <path d="M102.261 79.8422H192.978" stroke="#737373" strokeWidth="0.4"/>
        <path d="M195.739 82.761C197.264 82.761 198.5 81.5248 198.5 80C198.5 78.4752 197.264 77.239 195.739 77.239C194.214 77.239 192.978 78.4752 192.978 80C192.978 81.5248 194.214 82.761 195.739 82.761Z" fill="#6E6E6E"/>
        <path d="M99.5 179C101.025 179 102.261 177.764 102.261 176.239C102.261 174.714 101.025 173.478 99.5 173.478C97.9752 173.478 96.739 174.714 96.739 176.239C96.739 177.764 97.9752 179 99.5 179Z" fill="#6E6E6E"/>
        <path d="M102.261 176.081H192.978" stroke="#737373" strokeWidth="0.4"/>
        <path d="M195.739 179C197.264 179 198.5 177.764 198.5 176.239C198.5 174.714 197.264 173.478 195.739 173.478C194.214 173.478 192.978 174.714 192.978 176.239C192.978 177.764 194.214 179 195.739 179Z" fill="#6E6E6E"/>
        <path d="M102.261 176.239C102.261 174.714 101.025 173.478 99.5 173.478C97.9752 173.478 96.739 174.714 96.739 176.239C96.739 177.764 97.9752 179 99.5 179C101.025 179 102.261 177.764 102.261 176.239Z" fill="#6E6E6E"/>
        <path d="M99.3422 173.478V82.761" stroke="#737373" strokeWidth="0.4"/>
        <path d="M102.261 80C102.261 78.4752 101.025 77.239 99.5 77.239C97.9752 77.239 96.739 78.4752 96.739 80C96.739 81.5248 97.9752 82.761 99.5 82.761C101.025 82.761 102.261 81.5248 102.261 80Z" fill="#6E6E6E"/>
        <path d="M198.5 176.239C198.5 174.714 197.264 173.478 195.739 173.478C194.214 173.478 192.978 174.714 192.978 176.239C192.978 177.764 194.214 179 195.739 179C197.264 179 198.5 177.764 198.5 176.239Z" fill="#6E6E6E"/>
        <path d="M195.581 173.478V82.761" stroke="#737373" strokeWidth="0.4"/>
        <path d="M198.5 80C198.5 78.4752 197.264 77.239 195.739 77.239C194.214 77.239 192.978 78.4752 192.978 80C192.978 81.5248 194.214 82.761 195.739 82.761C197.264 82.761 198.5 81.5248 198.5 80Z" fill="#6E6E6E"/>
        <path d="M3.26096 82.761C4.78579 82.761 6.02191 81.5248 6.02191 80C6.02191 78.4752 4.78579 77.239 3.26096 77.239C1.73612 77.239 0.5 78.4752 0.5 80C0.5 81.5248 1.73612 82.761 3.26096 82.761Z" fill="#6E6E6E"/>
        <path d="M6.02191 79.8422H96.739" stroke="#737373" strokeWidth="0.4"/>
        <path d="M99.5 82.761C101.025 82.761 102.261 81.5248 102.261 80C102.261 78.4752 101.025 77.239 99.5 77.239C97.9752 77.239 96.739 78.4752 96.739 80C96.739 81.5248 97.9752 82.761 99.5 82.761Z" fill="#6E6E6E"/>
        <path d="M3.26096 179C4.78579 179 6.02191 177.764 6.02191 176.239C6.02191 174.714 4.78579 173.478 3.26096 173.478C1.73612 173.478 0.5 174.714 0.5 176.239C0.5 177.764 1.73612 179 3.26096 179Z" fill="#6E6E6E"/>
        <path d="M6.02191 176.081H96.739" stroke="#737373" strokeWidth="0.4"/>
        <path d="M99.5 179C101.025 179 102.261 177.764 102.261 176.239C102.261 174.714 101.025 173.478 99.5 173.478C97.9752 173.478 96.739 174.714 96.739 176.239C96.739 177.764 97.9752 179 99.5 179Z" fill="#6E6E6E"/>
        <path d="M6.02191 176.239C6.02191 174.714 4.78579 173.478 3.26096 173.478C1.73612 173.478 0.5 174.714 0.5 176.239C0.5 177.764 1.73612 179 3.26096 179C4.78579 179 6.02191 177.764 6.02191 176.239Z" fill="#6E6E6E"/>
        <path d="M3.1032 173.478V82.761" stroke="#737373" strokeWidth="0.4"/>
        <path d="M6.02191 80C6.02191 78.4752 4.78579 77.239 3.26096 77.239C1.73612 77.239 0.5 78.4752 0.5 80C0.5 81.5248 1.73612 82.761 3.26096 82.761C4.78579 82.761 6.02191 81.5248 6.02191 80Z" fill="#6E6E6E"/>
        <path d="M102.261 176.239C102.261 174.714 101.025 173.478 99.5 173.478C97.9752 173.478 96.739 174.714 96.739 176.239C96.739 177.764 97.9752 179 99.5 179C101.025 179 102.261 177.764 102.261 176.239Z" fill="#6E6E6E"/>
        <path d="M99.3422 173.478V82.761" stroke="#737373" strokeWidth="0.4"/>
        <path d="M102.261 80C102.261 78.4752 101.025 77.239 99.5 77.239C97.9752 77.239 96.739 78.4752 96.739 80C96.739 81.5248 97.9752 82.761 99.5 82.761C101.025 82.761 102.261 81.5248 102.261 80Z" fill="#6E6E6E"/>
        <path d="M3.26096 179.022C4.78579 179.022 6.02191 177.786 6.02191 176.261C6.02191 174.736 4.78579 173.5 3.26096 173.5C1.73612 173.5 0.5 174.736 0.5 176.261C0.5 177.786 1.73612 179.022 3.26096 179.022Z" fill="#6E6E6E"/>
        <path d="M6.02191 176.103H96.739" stroke="#737373" strokeWidth="0.4"/>
        <path d="M99.5 179.022C101.025 179.022 102.261 177.786 102.261 176.261C102.261 174.736 101.025 173.5 99.5 173.5C97.9752 173.5 96.739 174.736 96.739 176.261C96.739 177.786 97.9752 179.022 99.5 179.022Z" fill="#6E6E6E"/>
        <path d="M3.26096 275.261C4.78579 275.261 6.02191 274.025 6.02191 272.5C6.02191 270.975 4.78579 269.739 3.26096 269.739C1.73612 269.739 0.5 270.975 0.5 272.5C0.5 274.025 1.73612 275.261 3.26096 275.261Z" fill="#6E6E6E"/>
        <path d="M6.02191 272.342H96.739" stroke="#737373" strokeWidth="0.4"/>
        <path d="M99.5 275.261C101.025 275.261 102.261 274.025 102.261 272.5C102.261 270.975 101.025 269.739 99.5 269.739C97.9752 269.739 96.739 270.975 96.739 272.5C96.739 274.025 97.9752 275.261 99.5 275.261Z" fill="#6E6E6E"/>
        <path d="M6.02191 272.5C6.02191 270.975 4.78579 269.739 3.26096 269.739C1.73612 269.739 0.5 270.975 0.5 272.5C0.5 274.025 1.73612 275.261 3.26096 275.261C4.78579 275.261 6.02191 274.025 6.02191 272.5Z" fill="#6E6E6E"/>
        <path d="M3.1032 269.739V179.022" stroke="#737373" strokeWidth="0.4"/>
        <path d="M6.02191 176.261C6.02191 174.736 4.78579 173.5 3.26096 173.5C1.73612 173.5 0.5 174.736 0.5 176.261C0.5 177.786 1.73612 179.022 3.26096 179.022C4.78579 179.022 6.02191 177.786 6.02191 176.261Z" fill="#6E6E6E"/>
        <path d="M102.261 272.5C102.261 270.975 101.025 269.739 99.5 269.739C97.9752 269.739 96.739 270.975 96.739 272.5C96.739 274.025 97.9752 275.261 99.5 275.261C101.025 275.261 102.261 274.025 102.261 272.5Z" fill="#6E6E6E"/>
        <path d="M99.3422 269.739V179.022" stroke="#737373" strokeWidth="0.4"/>
        <path d="M102.261 176.261C102.261 174.736 101.025 173.5 99.5 173.5C97.9752 173.5 96.739 174.736 96.739 176.261C96.739 177.786 97.9752 179.022 99.5 179.022C101.025 179.022 102.261 177.786 102.261 176.261Z" fill="#6E6E6E"/>
        <path d="M99.5 179.022C101.025 179.022 102.261 177.786 102.261 176.261C102.261 174.736 101.025 173.5 99.5 173.5C97.9752 173.5 96.739 174.736 96.739 176.261C96.739 177.786 97.9752 179.022 99.5 179.022Z" fill="#6E6E6E"/>
        <path d="M102.261 176.103H192.978" stroke="#737373" strokeWidth="0.4"/>
        <path d="M195.739 179.022C197.264 179.022 198.5 177.786 198.5 176.261C198.5 174.736 197.264 173.5 195.739 173.5C194.214 173.5 192.978 174.736 192.978 176.261C192.978 177.786 194.214 179.022 195.739 179.022Z" fill="#6E6E6E"/>
        <path d="M99.5 275.261C101.025 275.261 102.261 274.025 102.261 272.5C102.261 270.975 101.025 269.739 99.5 269.739C97.9752 269.739 96.739 270.975 96.739 272.5C96.739 274.025 97.9752 275.261 99.5 275.261Z" fill="#6E6E6E"/>
        <path d="M102.261 272.342H192.978" stroke="#737373" strokeWidth="0.4"/>
        <path d="M195.739 275.261C197.264 275.261 198.5 274.025 198.5 272.5C198.5 270.975 197.264 269.739 195.739 269.739C194.214 269.739 192.978 270.975 192.978 272.5C192.978 274.025 194.214 275.261 195.739 275.261Z" fill="#6E6E6E"/>
        <path d="M102.261 272.5C102.261 270.975 101.025 269.739 99.5 269.739C97.9752 269.739 96.739 270.975 96.739 272.5C96.739 274.025 97.9752 275.261 99.5 275.261C101.025 275.261 102.261 274.025 102.261 272.5Z" fill="#6E6E6E"/>
        <path d="M99.3422 269.739V179.022" stroke="#737373" strokeWidth="0.4"/>
        <path d="M102.261 176.261C102.261 174.736 101.025 173.5 99.5 173.5C97.9752 173.5 96.739 174.736 96.739 176.261C96.739 177.786 97.9752 179.022 99.5 179.022C101.025 179.022 102.261 177.786 102.261 176.261Z" fill="#6E6E6E"/>
        <path d="M198.5 272.5C198.5 270.975 197.264 269.739 195.739 269.739C194.214 269.739 192.978 270.975 192.978 272.5C192.978 274.025 194.214 275.261 195.739 275.261C197.264 275.261 198.5 274.025 198.5 272.5Z" fill="#6E6E6E"/>
        <path d="M195.581 269.739V179.022" stroke="#737373" strokeWidth="0.4"/>
        <path d="M198.5 176.261C198.5 174.736 197.264 173.5 195.739 173.5C194.214 173.5 192.978 174.736 192.978 176.261C192.978 177.786 194.214 179.022 195.739 179.022C197.264 179.022 198.5 177.786 198.5 176.261Z" fill="#6E6E6E"/>
        <path d="M99.5 275.261C101.025 275.261 102.261 274.025 102.261 272.5C102.261 270.975 101.025 269.739 99.5 269.739C97.9752 269.739 96.739 270.975 96.739 272.5C96.739 274.025 97.9752 275.261 99.5 275.261Z" fill="#6E6E6E"/>
        <path d="M102.261 272.342H192.978" stroke="#737373" strokeWidth="0.4"/>
        <path d="M195.739 275.261C197.264 275.261 198.5 274.025 198.5 272.5C198.5 270.975 197.264 269.739 195.739 269.739C194.214 269.739 192.978 270.975 192.978 272.5C192.978 274.025 194.214 275.261 195.739 275.261Z" fill="#6E6E6E"/>
        <path d="M99.5 371.5C101.025 371.5 102.261 370.264 102.261 368.739C102.261 367.214 101.025 365.978 99.5 365.978C97.9752 365.978 96.739 367.214 96.739 368.739C96.739 370.264 97.9752 371.5 99.5 371.5Z" fill="#6E6E6E"/>
        <path d="M102.261 368.581H192.978" stroke="#737373" strokeWidth="0.4"/>
        <path d="M195.739 371.5C197.264 371.5 198.5 370.264 198.5 368.739C198.5 367.214 197.264 365.978 195.739 365.978C194.214 365.978 192.978 367.214 192.978 368.739C192.978 370.264 194.214 371.5 195.739 371.5Z" fill="#6E6E6E"/>
        <path d="M102.261 368.739C102.261 367.214 101.025 365.978 99.5 365.978C97.9752 365.978 96.739 367.214 96.739 368.739C96.739 370.264 97.9752 371.5 99.5 371.5C101.025 371.5 102.261 370.264 102.261 368.739Z" fill="#6E6E6E"/>
        <path d="M99.3422 365.978V275.261" stroke="#737373" strokeWidth="0.4"/>
        <path d="M102.261 272.5C102.261 270.975 101.025 269.739 99.5 269.739C97.9752 269.739 96.739 270.975 96.739 272.5C96.739 274.025 97.9752 275.261 99.5 275.261C101.025 275.261 102.261 274.025 102.261 272.5Z" fill="#6E6E6E"/>
        <path d="M198.5 368.739C198.5 367.214 197.264 365.978 195.739 365.978C194.214 365.978 192.978 367.214 192.978 368.739C192.978 370.264 194.214 371.5 195.739 371.5C197.264 371.5 198.5 370.264 198.5 368.739Z" fill="#6E6E6E"/>
        <path d="M195.581 365.978V275.261" stroke="#737373" strokeWidth="0.4"/>
        <path d="M198.5 272.5C198.5 270.975 197.264 269.739 195.739 269.739C194.214 269.739 192.978 270.975 192.978 272.5C192.978 274.025 194.214 275.261 195.739 275.261C197.264 275.261 198.5 274.025 198.5 272.5Z" fill="#6E6E6E"/>
        <path d="M3.26096 275.261C4.78579 275.261 6.02191 274.025 6.02191 272.5C6.02191 270.975 4.78579 269.739 3.26096 269.739C1.73612 269.739 0.5 270.975 0.5 272.5C0.5 274.025 1.73612 275.261 3.26096 275.261Z" fill="#6E6E6E"/>
        <path d="M6.02191 272.342H96.739" stroke="#737373" strokeWidth="0.4"/>
        <path d="M99.5 275.261C101.025 275.261 102.261 274.025 102.261 272.5C102.261 270.975 101.025 269.739 99.5 269.739C97.9752 269.739 96.739 270.975 96.739 272.5C96.739 274.025 97.9752 275.261 99.5 275.261Z" fill="#6E6E6E"/>
        <path d="M3.26096 371.5C4.78579 371.5 6.02191 370.264 6.02191 368.739C6.02191 367.214 4.78579 365.978 3.26096 365.978C1.73612 365.978 0.5 367.214 0.5 368.739C0.5 370.264 1.73612 371.5 3.26096 371.5Z" fill="#6E6E6E"/>
        <path d="M6.02191 368.581H96.739" stroke="#737373" strokeWidth="0.4"/>
        <path d="M99.5 371.5C101.025 371.5 102.261 370.264 102.261 368.739C102.261 367.214 101.025 365.978 99.5 365.978C97.9752 365.978 96.739 367.214 96.739 368.739C96.739 370.264 97.9752 371.5 99.5 371.5Z" fill="#6E6E6E"/>
        <path d="M6.02191 368.739C6.02191 367.214 4.78579 365.978 3.26096 365.978C1.73612 365.978 0.5 367.214 0.5 368.739C0.5 370.264 1.73612 371.5 3.26096 371.5C4.78579 371.5 6.02191 370.264 6.02191 368.739Z" fill="#6E6E6E"/>
        <path d="M3.1032 365.978V275.261" stroke="#737373" strokeWidth="0.4"/>
        <path d="M6.02191 272.5C6.02191 270.975 4.78579 269.739 3.26096 269.739C1.73612 269.739 0.5 270.975 0.5 272.5C0.5 274.025 1.73612 275.261 3.26096 275.261C4.78579 275.261 6.02191 274.025 6.02191 272.5Z" fill="#6E6E6E"/>
        <path d="M102.261 368.739C102.261 367.214 101.025 365.978 99.5 365.978C97.9752 365.978 96.739 367.214 96.739 368.739C96.739 370.264 97.9752 371.5 99.5 371.5C101.025 371.5 102.261 370.264 102.261 368.739Z" fill="#6E6E6E"/>
        <path d="M99.3422 365.978V275.261" stroke="#737373" strokeWidth="0.4"/>
        <path d="M102.261 272.5C102.261 270.975 101.025 269.739 99.5 269.739C97.9752 269.739 96.739 270.975 96.739 272.5C96.739 274.025 97.9752 275.261 99.5 275.261C101.025 275.261 102.261 274.025 102.261 272.5Z" fill="#6E6E6E"/>
        <path d="M195.761 179.022C197.286 179.022 198.522 177.786 198.522 176.261C198.522 174.736 197.286 173.5 195.761 173.5C194.236 173.5 193 174.736 193 176.261C193 177.786 194.236 179.022 195.761 179.022Z" fill="#6E6E6E"/>
        <path d="M198.522 176.103H289.239" stroke="#737373" strokeWidth="0.4"/>
        <path d="M292 179.022C293.525 179.022 294.761 177.786 294.761 176.261C294.761 174.736 293.525 173.5 292 173.5C290.475 173.5 289.239 174.736 289.239 176.261C289.239 177.786 290.475 179.022 292 179.022Z" fill="#6E6E6E"/>
        <path d="M195.761 275.261C197.286 275.261 198.522 274.025 198.522 272.5C198.522 270.975 197.286 269.739 195.761 269.739C194.236 269.739 193 270.975 193 272.5C193 274.025 194.236 275.261 195.761 275.261Z" fill="#6E6E6E"/>
        <path d="M198.522 272.342H289.239" stroke="#737373" strokeWidth="0.4"/>
        <path d="M292 275.261C293.525 275.261 294.761 274.025 294.761 272.5C294.761 270.975 293.525 269.739 292 269.739C290.475 269.739 289.239 270.975 289.239 272.5C289.239 274.025 290.475 275.261 292 275.261Z" fill="#6E6E6E"/>
        <path d="M198.522 272.5C198.522 270.975 197.286 269.739 195.761 269.739C194.236 269.739 193 270.975 193 272.5C193 274.025 194.236 275.261 195.761 275.261C197.286 275.261 198.522 274.025 198.522 272.5Z" fill="#6E6E6E"/>
        <path d="M195.603 269.739V179.022" stroke="#737373" strokeWidth="0.4"/>
        <path d="M198.522 176.261C198.522 174.736 197.286 173.5 195.761 173.5C194.236 173.5 193 174.736 193 176.261C193 177.786 194.236 179.022 195.761 179.022C197.286 179.022 198.522 177.786 198.522 176.261Z" fill="#6E6E6E"/>
        <path d="M294.761 272.5C294.761 270.975 293.525 269.739 292 269.739C290.475 269.739 289.239 270.975 289.239 272.5C289.239 274.025 290.475 275.261 292 275.261C293.525 275.261 294.761 274.025 294.761 272.5Z" fill="#6E6E6E"/>
        <path d="M291.842 269.739V179.022" stroke="#737373" strokeWidth="0.4"/>
        <path d="M294.761 176.261C294.761 174.736 293.525 173.5 292 173.5C290.475 173.5 289.239 174.736 289.239 176.261C289.239 177.786 290.475 179.022 292 179.022C293.525 179.022 294.761 177.786 294.761 176.261Z" fill="#6E6E6E"/>
        <path d="M292 179.022C293.525 179.022 294.761 177.786 294.761 176.261C294.761 174.736 293.525 173.5 292 173.5C290.475 173.5 289.239 174.736 289.239 176.261C289.239 177.786 290.475 179.022 292 179.022Z" fill="#6E6E6E"/>
        <path d="M294.761 176.103H385.478" stroke="#737373" strokeWidth="0.4"/>
        <path d="M388.239 179.022C389.764 179.022 391 177.786 391 176.261C391 174.736 389.764 173.5 388.239 173.5C386.714 173.5 385.478 174.736 385.478 176.261C385.478 177.786 386.714 179.022 388.239 179.022Z" fill="#6E6E6E"/>
        <path d="M292 275.261C293.525 275.261 294.761 274.025 294.761 272.5C294.761 270.975 293.525 269.739 292 269.739C290.475 269.739 289.239 270.975 289.239 272.5C289.239 274.025 290.475 275.261 292 275.261Z" fill="#6E6E6E"/>
        <path d="M294.761 272.342H385.478" stroke="#737373" strokeWidth="0.4"/>
        <path d="M388.239 275.261C389.764 275.261 391 274.025 391 272.5C391 270.975 389.764 269.739 388.239 269.739C386.714 269.739 385.478 270.975 385.478 272.5C385.478 274.025 386.714 275.261 388.239 275.261Z" fill="#6E6E6E"/>
        <path d="M294.761 272.5C294.761 270.975 293.525 269.739 292 269.739C290.475 269.739 289.239 270.975 289.239 272.5C289.239 274.025 290.475 275.261 292 275.261C293.525 275.261 294.761 274.025 294.761 272.5Z" fill="#6E6E6E"/>
        <path d="M291.842 269.739V179.022" stroke="#737373" strokeWidth="0.4"/>
        <path d="M294.761 176.261C294.761 174.736 293.525 173.5 292 173.5C290.475 173.5 289.239 174.736 289.239 176.261C289.239 177.786 290.475 179.022 292 179.022C293.525 179.022 294.761 177.786 294.761 176.261Z" fill="#6E6E6E"/>
        <path d="M391 272.5C391 270.975 389.764 269.739 388.239 269.739C386.714 269.739 385.478 270.975 385.478 272.5C385.478 274.025 386.714 275.261 388.239 275.261C389.764 275.261 391 274.025 391 272.5Z" fill="#6E6E6E"/>
        <path d="M388.081 269.739V179.022" stroke="#737373" strokeWidth="0.4"/>
        <path d="M391 176.261C391 174.736 389.764 173.5 388.239 173.5C386.714 173.5 385.478 174.736 385.478 176.261C385.478 177.786 386.714 179.022 388.239 179.022C389.764 179.022 391 177.786 391 176.261Z" fill="#6E6E6E"/>
        <path d="M292 275.261C293.525 275.261 294.761 274.025 294.761 272.5C294.761 270.975 293.525 269.739 292 269.739C290.475 269.739 289.239 270.975 289.239 272.5C289.239 274.025 290.475 275.261 292 275.261Z" fill="#6E6E6E"/>
        <path d="M294.761 272.342H385.478" stroke="#737373" strokeWidth="0.4"/>
        <path d="M388.239 275.261C389.764 275.261 391 274.025 391 272.5C391 270.975 389.764 269.739 388.239 269.739C386.714 269.739 385.478 270.975 385.478 272.5C385.478 274.025 386.714 275.261 388.239 275.261Z" fill="#6E6E6E"/>
        <path d="M292 371.5C293.525 371.5 294.761 370.264 294.761 368.739C294.761 367.214 293.525 365.978 292 365.978C290.475 365.978 289.239 367.214 289.239 368.739C289.239 370.264 290.475 371.5 292 371.5Z" fill="#6E6E6E"/>
        <path d="M294.761 368.581H385.478" stroke="#737373" strokeWidth="0.4"/>
        <path d="M388.239 371.5C389.764 371.5 391 370.264 391 368.739C391 367.214 389.764 365.978 388.239 365.978C386.714 365.978 385.478 367.214 385.478 368.739C385.478 370.264 386.714 371.5 388.239 371.5Z" fill="#6E6E6E"/>
        <path d="M294.761 368.739C294.761 367.214 293.525 365.978 292 365.978C290.475 365.978 289.239 367.214 289.239 368.739C289.239 370.264 290.475 371.5 292 371.5C293.525 371.5 294.761 370.264 294.761 368.739Z" fill="#6E6E6E"/>
        <path d="M291.842 365.978V275.261" stroke="#737373" strokeWidth="0.4"/>
        <path d="M294.761 272.5C294.761 270.975 293.525 269.739 292 269.739C290.475 269.739 289.239 270.975 289.239 272.5C289.239 274.025 290.475 275.261 292 275.261C293.525 275.261 294.761 274.025 294.761 272.5Z" fill="#6E6E6E"/>
        <path d="M391 368.739C391 367.214 389.764 365.978 388.239 365.978C386.714 365.978 385.478 367.214 385.478 368.739C385.478 370.264 386.714 371.5 388.239 371.5C389.764 371.5 391 370.264 391 368.739Z" fill="#6E6E6E"/>
        <path d="M388.081 365.978V275.261" stroke="#737373" strokeWidth="0.4"/>
        <path d="M391 272.5C391 270.975 389.764 269.739 388.239 269.739C386.714 269.739 385.478 270.975 385.478 272.5C385.478 274.025 386.714 275.261 388.239 275.261C389.764 275.261 391 274.025 391 272.5Z" fill="#6E6E6E"/>
        <path d="M195.761 275.261C197.286 275.261 198.522 274.025 198.522 272.5C198.522 270.975 197.286 269.739 195.761 269.739C194.236 269.739 193 270.975 193 272.5C193 274.025 194.236 275.261 195.761 275.261Z" fill="#6E6E6E"/>
        <path d="M198.522 272.342H289.239" stroke="#737373" strokeWidth="0.4"/>
        <path d="M292 275.261C293.525 275.261 294.761 274.025 294.761 272.5C294.761 270.975 293.525 269.739 292 269.739C290.475 269.739 289.239 270.975 289.239 272.5C289.239 274.025 290.475 275.261 292 275.261Z" fill="#6E6E6E"/>
        <path d="M195.761 371.5C197.286 371.5 198.522 370.264 198.522 368.739C198.522 367.214 197.286 365.978 195.761 365.978C194.236 365.978 193 367.214 193 368.739C193 370.264 194.236 371.5 195.761 371.5Z" fill="#6E6E6E"/>
        <path d="M198.522 368.581H289.239" stroke="#737373" strokeWidth="0.4"/>
        <path d="M292 371.5C293.525 371.5 294.761 370.264 294.761 368.739C294.761 367.214 293.525 365.978 292 365.978C290.475 365.978 289.239 367.214 289.239 368.739C289.239 370.264 290.475 371.5 292 371.5Z" fill="#6E6E6E"/>
        <path d="M198.522 368.739C198.522 367.214 197.286 365.978 195.761 365.978C194.236 365.978 193 367.214 193 368.739C193 370.264 194.236 371.5 195.761 371.5C197.286 371.5 198.522 370.264 198.522 368.739Z" fill="#6E6E6E"/>
        <path d="M195.603 365.978V275.261" stroke="#737373" strokeWidth="0.4"/>
        <path d="M198.522 272.5C198.522 270.975 197.286 269.739 195.761 269.739C194.236 269.739 193 270.975 193 272.5C193 274.025 194.236 275.261 195.761 275.261C197.286 275.261 198.522 274.025 198.522 272.5Z" fill="#6E6E6E"/>
        <path d="M294.761 368.739C294.761 367.214 293.525 365.978 292 365.978C290.475 365.978 289.239 367.214 289.239 368.739C289.239 370.264 290.475 371.5 292 371.5C293.525 371.5 294.761 370.264 294.761 368.739Z" fill="#6E6E6E"/>
        <path d="M291.842 365.978V275.261" stroke="#737373" strokeWidth="0.4"/>
        <path d="M294.761 272.5C294.761 270.975 293.525 269.739 292 269.739C290.475 269.739 289.239 270.975 289.239 272.5C289.239 274.025 290.475 275.261 292 275.261C293.525 275.261 294.761 274.025 294.761 272.5Z" fill="#6E6E6E"/>
        <path d="M195.761 371.522C197.286 371.522 198.522 370.286 198.522 368.761C198.522 367.236 197.286 366 195.761 366C194.236 366 193 367.236 193 368.761C193 370.286 194.236 371.522 195.761 371.522Z" fill="#6E6E6E"/>
        <path d="M198.522 368.603H289.239" stroke="#737373" strokeWidth="0.4"/>
        <path d="M292 371.522C293.525 371.522 294.761 370.286 294.761 368.761C294.761 367.236 293.525 366 292 366C290.475 366 289.239 367.236 289.239 368.761C289.239 370.286 290.475 371.522 292 371.522Z" fill="#6E6E6E"/>
        <path d="M195.761 467.761C197.286 467.761 198.522 466.525 198.522 465C198.522 463.475 197.286 462.239 195.761 462.239C194.236 462.239 193 463.475 193 465C193 466.525 194.236 467.761 195.761 467.761Z" fill="#6E6E6E"/>
        <path d="M198.522 464.842H289.239" stroke="#737373" strokeWidth="0.4"/>
        <path d="M292 467.761C293.525 467.761 294.761 466.525 294.761 465C294.761 463.475 293.525 462.239 292 462.239C290.475 462.239 289.239 463.475 289.239 465C289.239 466.525 290.475 467.761 292 467.761Z" fill="#6E6E6E"/>
        <path d="M198.522 465C198.522 463.475 197.286 462.239 195.761 462.239C194.236 462.239 193 463.475 193 465C193 466.525 194.236 467.761 195.761 467.761C197.286 467.761 198.522 466.525 198.522 465Z" fill="#6E6E6E"/>
        <path d="M195.603 462.239V371.522" stroke="#737373" strokeWidth="0.4"/>
        <path d="M198.522 368.761C198.522 367.236 197.286 366 195.761 366C194.236 366 193 367.236 193 368.761C193 370.286 194.236 371.522 195.761 371.522C197.286 371.522 198.522 370.286 198.522 368.761Z" fill="#6E6E6E"/>
        <path d="M294.761 465C294.761 463.475 293.525 462.239 292 462.239C290.475 462.239 289.239 463.475 289.239 465C289.239 466.525 290.475 467.761 292 467.761C293.525 467.761 294.761 466.525 294.761 465Z" fill="#6E6E6E"/>
        <path d="M291.842 462.239V371.522" stroke="#737373" strokeWidth="0.4"/>
        <path d="M294.761 368.761C294.761 367.236 293.525 366 292 366C290.475 366 289.239 367.236 289.239 368.761C289.239 370.286 290.475 371.522 292 371.522C293.525 371.522 294.761 370.286 294.761 368.761Z" fill="#6E6E6E"/>
        <path d="M292 371.522C293.525 371.522 294.761 370.286 294.761 368.761C294.761 367.236 293.525 366 292 366C290.475 366 289.239 367.236 289.239 368.761C289.239 370.286 290.475 371.522 292 371.522Z" fill="#6E6E6E"/>
        <path d="M294.761 368.603H385.478" stroke="#737373" strokeWidth="0.4"/>
        <path d="M388.239 371.522C389.764 371.522 391 370.286 391 368.761C391 367.236 389.764 366 388.239 366C386.714 366 385.478 367.236 385.478 368.761C385.478 370.286 386.714 371.522 388.239 371.522Z" fill="#6E6E6E"/>
        <path d="M292 467.761C293.525 467.761 294.761 466.525 294.761 465C294.761 463.475 293.525 462.239 292 462.239C290.475 462.239 289.239 463.475 289.239 465C289.239 466.525 290.475 467.761 292 467.761Z" fill="#6E6E6E"/>
        <path d="M294.761 464.842H385.478" stroke="#737373" strokeWidth="0.4"/>
        <path d="M388.239 467.761C389.764 467.761 391 466.525 391 465C391 463.475 389.764 462.239 388.239 462.239C386.714 462.239 385.478 463.475 385.478 465C385.478 466.525 386.714 467.761 388.239 467.761Z" fill="#6E6E6E"/>
        <path d="M294.761 465C294.761 463.475 293.525 462.239 292 462.239C290.475 462.239 289.239 463.475 289.239 465C289.239 466.525 290.475 467.761 292 467.761C293.525 467.761 294.761 466.525 294.761 465Z" fill="#6E6E6E"/>
        <path d="M291.842 462.239V371.522" stroke="#737373" strokeWidth="0.4"/>
        <path d="M294.761 368.761C294.761 367.236 293.525 366 292 366C290.475 366 289.239 367.236 289.239 368.761C289.239 370.286 290.475 371.522 292 371.522C293.525 371.522 294.761 370.286 294.761 368.761Z" fill="#6E6E6E"/>
        <path d="M391 465C391 463.475 389.764 462.239 388.239 462.239C386.714 462.239 385.478 463.475 385.478 465C385.478 466.525 386.714 467.761 388.239 467.761C389.764 467.761 391 466.525 391 465Z" fill="#6E6E6E"/>
        <path d="M388.081 462.239V371.522" stroke="#737373" strokeWidth="0.4"/>
        <path d="M391 368.761C391 367.236 389.764 366 388.239 366C386.714 366 385.478 367.236 385.478 368.761C385.478 370.286 386.714 371.522 388.239 371.522C389.764 371.522 391 370.286 391 368.761Z" fill="#6E6E6E"/>
        <path d="M292 467.761C293.525 467.761 294.761 466.525 294.761 465C294.761 463.475 293.525 462.239 292 462.239C290.475 462.239 289.239 463.475 289.239 465C289.239 466.525 290.475 467.761 292 467.761Z" fill="#6E6E6E"/>
        <path d="M294.761 464.842H385.478" stroke="#737373" strokeWidth="0.4"/>
        <path d="M388.239 467.761C389.764 467.761 391 466.525 391 465C391 463.475 389.764 462.239 388.239 462.239C386.714 462.239 385.478 463.475 385.478 465C385.478 466.525 386.714 467.761 388.239 467.761Z" fill="#6E6E6E"/>
        <path d="M292 564C293.525 564 294.761 562.764 294.761 561.239C294.761 559.714 293.525 558.478 292 558.478C290.475 558.478 289.239 559.714 289.239 561.239C289.239 562.764 290.475 564 292 564Z" fill="#6E6E6E"/>
        <path d="M294.761 561.081H385.478" stroke="#737373" strokeWidth="0.4"/>
        <path d="M388.239 564C389.764 564 391 562.764 391 561.239C391 559.714 389.764 558.478 388.239 558.478C386.714 558.478 385.478 559.714 385.478 561.239C385.478 562.764 386.714 564 388.239 564Z" fill="#6E6E6E"/>
        <path d="M294.761 561.239C294.761 559.714 293.525 558.478 292 558.478C290.475 558.478 289.239 559.714 289.239 561.239C289.239 562.764 290.475 564 292 564C293.525 564 294.761 562.764 294.761 561.239Z" fill="#6E6E6E"/>
        <path d="M291.842 558.478V467.761" stroke="#737373" strokeWidth="0.4"/>
        <path d="M294.761 465C294.761 463.475 293.525 462.239 292 462.239C290.475 462.239 289.239 463.475 289.239 465C289.239 466.525 290.475 467.761 292 467.761C293.525 467.761 294.761 466.525 294.761 465Z" fill="#6E6E6E"/>
        <path d="M391 561.239C391 559.714 389.764 558.478 388.239 558.478C386.714 558.478 385.478 559.714 385.478 561.239C385.478 562.764 386.714 564 388.239 564C389.764 564 391 562.764 391 561.239Z" fill="#6E6E6E"/>
        <path d="M388.081 558.478V467.761" stroke="#737373" strokeWidth="0.4"/>
        <path d="M391 465C391 463.475 389.764 462.239 388.239 462.239C386.714 462.239 385.478 463.475 385.478 465C385.478 466.525 386.714 467.761 388.239 467.761C389.764 467.761 391 466.525 391 465Z" fill="#6E6E6E"/>
        <path d="M195.761 467.761C197.286 467.761 198.522 466.525 198.522 465C198.522 463.475 197.286 462.239 195.761 462.239C194.236 462.239 193 463.475 193 465C193 466.525 194.236 467.761 195.761 467.761Z" fill="#6E6E6E"/>
        <path d="M198.522 464.842H289.239" stroke="#737373" strokeWidth="0.4"/>
        <path d="M292 467.761C293.525 467.761 294.761 466.525 294.761 465C294.761 463.475 293.525 462.239 292 462.239C290.475 462.239 289.239 463.475 289.239 465C289.239 466.525 290.475 467.761 292 467.761Z" fill="#6E6E6E"/>
        <path d="M195.761 564C197.286 564 198.522 562.764 198.522 561.239C198.522 559.714 197.286 558.478 195.761 558.478C194.236 558.478 193 559.714 193 561.239C193 562.764 194.236 564 195.761 564Z" fill="#6E6E6E"/>
        <path d="M198.522 561.081H289.239" stroke="#737373" strokeWidth="0.4"/>
        <path d="M292 564C293.525 564 294.761 562.764 294.761 561.239C294.761 559.714 293.525 558.478 292 558.478C290.475 558.478 289.239 559.714 289.239 561.239C289.239 562.764 290.475 564 292 564Z" fill="#6E6E6E"/>
        <path d="M198.522 561.239C198.522 559.714 197.286 558.478 195.761 558.478C194.236 558.478 193 559.714 193 561.239C193 562.764 194.236 564 195.761 564C197.286 564 198.522 562.764 198.522 561.239Z" fill="#6E6E6E"/>
        <path d="M195.603 558.478V467.761" stroke="#737373" strokeWidth="0.4"/>
        <path d="M198.522 465C198.522 463.475 197.286 462.239 195.761 462.239C194.236 462.239 193 463.475 193 465C193 466.525 194.236 467.761 195.761 467.761C197.286 467.761 198.522 466.525 198.522 465Z" fill="#6E6E6E"/>
        <path d="M294.761 561.239C294.761 559.714 293.525 558.478 292 558.478C290.475 558.478 289.239 559.714 289.239 561.239C289.239 562.764 290.475 564 292 564C293.525 564 294.761 562.764 294.761 561.239Z" fill="#6E6E6E"/>
        <path d="M291.842 558.478V467.761" stroke="#737373" strokeWidth="0.4"/>
        <path d="M294.761 465C294.761 463.475 293.525 462.239 292 462.239C290.475 462.239 289.239 463.475 289.239 465C289.239 466.525 290.475 467.761 292 467.761C293.525 467.761 294.761 466.525 294.761 465Z" fill="#6E6E6E"/>
        <path d="M3.26096 371.522C4.78579 371.522 6.02191 370.286 6.02191 368.761C6.02191 367.236 4.78579 366 3.26096 366C1.73612 366 0.5 367.236 0.5 368.761C0.5 370.286 1.73612 371.522 3.26096 371.522Z" fill="#6E6E6E"/>
        <path d="M6.02191 368.603H96.739" stroke="#737373" strokeWidth="0.4"/>
        <path d="M99.5 371.522C101.025 371.522 102.261 370.286 102.261 368.761C102.261 367.236 101.025 366 99.5 366C97.9752 366 96.739 367.236 96.739 368.761C96.739 370.286 97.9752 371.522 99.5 371.522Z" fill="#6E6E6E"/>
        <path d="M3.26096 467.761C4.78579 467.761 6.02191 466.525 6.02191 465C6.02191 463.475 4.78579 462.239 3.26096 462.239C1.73612 462.239 0.5 463.475 0.5 465C0.5 466.525 1.73612 467.761 3.26096 467.761Z" fill="#6E6E6E"/>
        <path d="M6.02191 464.842H96.739" stroke="#737373" strokeWidth="0.4"/>
        <path d="M99.5 467.761C101.025 467.761 102.261 466.525 102.261 465C102.261 463.475 101.025 462.239 99.5 462.239C97.9752 462.239 96.739 463.475 96.739 465C96.739 466.525 97.9752 467.761 99.5 467.761Z" fill="#6E6E6E"/>
        <path d="M6.02191 465C6.02191 463.475 4.78579 462.239 3.26096 462.239C1.73612 462.239 0.5 463.475 0.5 465C0.5 466.525 1.73612 467.761 3.26096 467.761C4.78579 467.761 6.02191 466.525 6.02191 465Z" fill="#6E6E6E"/>
        <path d="M3.1032 462.239V371.522" stroke="#737373" strokeWidth="0.4"/>
        <path d="M6.02191 368.761C6.02191 367.236 4.78579 366 3.26096 366C1.73612 366 0.5 367.236 0.5 368.761C0.5 370.286 1.73612 371.522 3.26096 371.522C4.78579 371.522 6.02191 370.286 6.02191 368.761Z" fill="#6E6E6E"/>
        <path d="M102.261 465C102.261 463.475 101.025 462.239 99.5 462.239C97.9752 462.239 96.739 463.475 96.739 465C96.739 466.525 97.9752 467.761 99.5 467.761C101.025 467.761 102.261 466.525 102.261 465Z" fill="#6E6E6E"/>
        <path d="M99.3422 462.239V371.522" stroke="#737373" strokeWidth="0.4"/>
        <path d="M102.261 368.761C102.261 367.236 101.025 366 99.5 366C97.9752 366 96.739 367.236 96.739 368.761C96.739 370.286 97.9752 371.522 99.5 371.522C101.025 371.522 102.261 370.286 102.261 368.761Z" fill="#6E6E6E"/>
        <path d="M99.5 371.522C101.025 371.522 102.261 370.286 102.261 368.761C102.261 367.236 101.025 366 99.5 366C97.9752 366 96.739 367.236 96.739 368.761C96.739 370.286 97.9752 371.522 99.5 371.522Z" fill="#6E6E6E"/>
        <path d="M102.261 368.603H192.978" stroke="#737373" strokeWidth="0.4"/>
        <path d="M195.739 371.522C197.264 371.522 198.5 370.286 198.5 368.761C198.5 367.236 197.264 366 195.739 366C194.214 366 192.978 367.236 192.978 368.761C192.978 370.286 194.214 371.522 195.739 371.522Z" fill="#6E6E6E"/>
        <path d="M99.5 467.761C101.025 467.761 102.261 466.525 102.261 465C102.261 463.475 101.025 462.239 99.5 462.239C97.9752 462.239 96.739 463.475 96.739 465C96.739 466.525 97.9752 467.761 99.5 467.761Z" fill="#6E6E6E"/>
        <path d="M102.261 464.842H192.978" stroke="#737373" strokeWidth="0.4"/>
        <path d="M195.739 467.761C197.264 467.761 198.5 466.525 198.5 465C198.5 463.475 197.264 462.239 195.739 462.239C194.214 462.239 192.978 463.475 192.978 465C192.978 466.525 194.214 467.761 195.739 467.761Z" fill="#6E6E6E"/>
        <path d="M102.261 465C102.261 463.475 101.025 462.239 99.5 462.239C97.9752 462.239 96.739 463.475 96.739 465C96.739 466.525 97.9752 467.761 99.5 467.761C101.025 467.761 102.261 466.525 102.261 465Z" fill="#6E6E6E"/>
        <path d="M99.3422 462.239V371.522" stroke="#737373" strokeWidth="0.4"/>
        <path d="M102.261 368.761C102.261 367.236 101.025 366 99.5 366C97.9752 366 96.739 367.236 96.739 368.761C96.739 370.286 97.9752 371.522 99.5 371.522C101.025 371.522 102.261 370.286 102.261 368.761Z" fill="#6E6E6E"/>
        <path d="M198.5 465C198.5 463.475 197.264 462.239 195.739 462.239C194.214 462.239 192.978 463.475 192.978 465C192.978 466.525 194.214 467.761 195.739 467.761C197.264 467.761 198.5 466.525 198.5 465Z" fill="#6E6E6E"/>
        <path d="M195.581 462.239V371.522" stroke="#737373" strokeWidth="0.4"/>
        <path d="M198.5 368.761C198.5 367.236 197.264 366 195.739 366C194.214 366 192.978 367.236 192.978 368.761C192.978 370.286 194.214 371.522 195.739 371.522C197.264 371.522 198.5 370.286 198.5 368.761Z" fill="#6E6E6E"/>
        <path d="M99.5 467.761C101.025 467.761 102.261 466.525 102.261 465C102.261 463.475 101.025 462.239 99.5 462.239C97.9752 462.239 96.739 463.475 96.739 465C96.739 466.525 97.9752 467.761 99.5 467.761Z" fill="#6E6E6E"/>
        <path d="M102.261 464.842H192.978" stroke="#737373" strokeWidth="0.4"/>
        <path d="M195.739 467.761C197.264 467.761 198.5 466.525 198.5 465C198.5 463.475 197.264 462.239 195.739 462.239C194.214 462.239 192.978 463.475 192.978 465C192.978 466.525 194.214 467.761 195.739 467.761Z" fill="#6E6E6E"/>
        <path d="M99.5 564C101.025 564 102.261 562.764 102.261 561.239C102.261 559.714 101.025 558.478 99.5 558.478C97.9752 558.478 96.739 559.714 96.739 561.239C96.739 562.764 97.9752 564 99.5 564Z" fill="#6E6E6E"/>
        <path d="M102.261 561.081H192.978" stroke="#737373" strokeWidth="0.4"/>
        <path d="M195.739 564C197.264 564 198.5 562.764 198.5 561.239C198.5 559.714 197.264 558.478 195.739 558.478C194.214 558.478 192.978 559.714 192.978 561.239C192.978 562.764 194.214 564 195.739 564Z" fill="#6E6E6E"/>
        <path d="M102.261 561.239C102.261 559.714 101.025 558.478 99.5 558.478C97.9752 558.478 96.739 559.714 96.739 561.239C96.739 562.764 97.9752 564 99.5 564C101.025 564 102.261 562.764 102.261 561.239Z" fill="#6E6E6E"/>
        <path d="M99.3422 558.478V467.761" stroke="#737373" strokeWidth="0.4"/>
        <path d="M102.261 465C102.261 463.475 101.025 462.239 99.5 462.239C97.9752 462.239 96.739 463.475 96.739 465C96.739 466.525 97.9752 467.761 99.5 467.761C101.025 467.761 102.261 466.525 102.261 465Z" fill="#6E6E6E"/>
        <path d="M198.5 561.239C198.5 559.714 197.264 558.478 195.739 558.478C194.214 558.478 192.978 559.714 192.978 561.239C192.978 562.764 194.214 564 195.739 564C197.264 564 198.5 562.764 198.5 561.239Z" fill="#6E6E6E"/>
        <path d="M195.581 558.478V467.761" stroke="#737373" strokeWidth="0.4"/>
        <path d="M198.5 465C198.5 463.475 197.264 462.239 195.739 462.239C194.214 462.239 192.978 463.475 192.978 465C192.978 466.525 194.214 467.761 195.739 467.761C197.264 467.761 198.5 466.525 198.5 465Z" fill="#6E6E6E"/>
        <path d="M3.26096 467.761C4.78579 467.761 6.02191 466.525 6.02191 465C6.02191 463.475 4.78579 462.239 3.26096 462.239C1.73612 462.239 0.5 463.475 0.5 465C0.5 466.525 1.73612 467.761 3.26096 467.761Z" fill="#6E6E6E"/>
        <path d="M6.02191 464.842H96.739" stroke="#737373" strokeWidth="0.4"/>
        <path d="M99.5 467.761C101.025 467.761 102.261 466.525 102.261 465C102.261 463.475 101.025 462.239 99.5 462.239C97.9752 462.239 96.739 463.475 96.739 465C96.739 466.525 97.9752 467.761 99.5 467.761Z" fill="#6E6E6E"/>
        <path d="M3.26096 564C4.78579 564 6.02191 562.764 6.02191 561.239C6.02191 559.714 4.78579 558.478 3.26096 558.478C1.73612 558.478 0.5 559.714 0.5 561.239C0.5 562.764 1.73612 564 3.26096 564Z" fill="#6E6E6E"/>
        <path d="M6.02191 561.081H96.739" stroke="#737373" strokeWidth="0.4"/>
        <path d="M99.5 564C101.025 564 102.261 562.764 102.261 561.239C102.261 559.714 101.025 558.478 99.5 558.478C97.9752 558.478 96.739 559.714 96.739 561.239C96.739 562.764 97.9752 564 99.5 564Z" fill="#6E6E6E"/>
        <path d="M6.02191 561.239C6.02191 559.714 4.78579 558.478 3.26096 558.478C1.73612 558.478 0.5 559.714 0.5 561.239C0.5 562.764 1.73612 564 3.26096 564C4.78579 564 6.02191 562.764 6.02191 561.239Z" fill="#6E6E6E"/>
        <path d="M3.1032 558.478V467.761" stroke="#737373" strokeWidth="0.4"/>
        <path d="M6.02191 465C6.02191 463.475 4.78579 462.239 3.26096 462.239C1.73612 462.239 0.5 463.475 0.5 465C0.5 466.525 1.73612 467.761 3.26096 467.761C4.78579 467.761 6.02191 466.525 6.02191 465Z" fill="#6E6E6E"/>
        <path d="M102.261 561.239C102.261 559.714 101.025 558.478 99.5 558.478C97.9752 558.478 96.739 559.714 96.739 561.239C96.739 562.764 97.9752 564 99.5 564C101.025 564 102.261 562.764 102.261 561.239Z" fill="#6E6E6E"/>
        <path d="M99.3422 558.478V467.761" stroke="#737373" strokeWidth="0.4"/>
        <path d="M102.261 465C102.261 463.475 101.025 462.239 99.5 462.239C97.9752 462.239 96.739 463.475 96.739 465C96.739 466.525 97.9752 467.761 99.5 467.761C101.025 467.761 102.261 466.525 102.261 465Z" fill="#6E6E6E"/>
        <path d="M3.26096 564.022C4.78579 564.022 6.02191 562.786 6.02191 561.261C6.02191 559.736 4.78579 558.5 3.26096 558.5C1.73612 558.5 0.5 559.736 0.5 561.261C0.5 562.786 1.73612 564.022 3.26096 564.022Z" fill="#6E6E6E"/>
        <path d="M6.02191 561.103H96.739" stroke="#737373" strokeWidth="0.4"/>
        <path d="M99.5 564.022C101.025 564.022 102.261 562.786 102.261 561.261C102.261 559.736 101.025 558.5 99.5 558.5C97.9752 558.5 96.739 559.736 96.739 561.261C96.739 562.786 97.9752 564.022 99.5 564.022Z" fill="#6E6E6E"/>
        <path d="M3.26096 660.261C4.78579 660.261 6.02191 659.025 6.02191 657.5C6.02191 655.975 4.78579 654.739 3.26096 654.739C1.73612 654.739 0.5 655.975 0.5 657.5C0.5 659.025 1.73612 660.261 3.26096 660.261Z" fill="#6E6E6E"/>
        <path d="M6.02191 657.342H96.739" stroke="#737373" strokeWidth="0.4"/>
        <path d="M99.5 660.261C101.025 660.261 102.261 659.025 102.261 657.5C102.261 655.975 101.025 654.739 99.5 654.739C97.9752 654.739 96.739 655.975 96.739 657.5C96.739 659.025 97.9752 660.261 99.5 660.261Z" fill="#6E6E6E"/>
        <path d="M6.02191 657.5C6.02191 655.975 4.78579 654.739 3.26096 654.739C1.73612 654.739 0.5 655.975 0.5 657.5C0.5 659.025 1.73612 660.261 3.26096 660.261C4.78579 660.261 6.02191 659.025 6.02191 657.5Z" fill="#6E6E6E"/>
        <path d="M3.1032 654.739V564.022" stroke="#737373" strokeWidth="0.4"/>
        <path d="M6.02191 561.261C6.02191 559.736 4.78579 558.5 3.26096 558.5C1.73612 558.5 0.5 559.736 0.5 561.261C0.5 562.786 1.73612 564.022 3.26096 564.022C4.78579 564.022 6.02191 562.786 6.02191 561.261Z" fill="#6E6E6E"/>
        <path d="M102.261 657.5C102.261 655.975 101.025 654.739 99.5 654.739C97.9752 654.739 96.739 655.975 96.739 657.5C96.739 659.025 97.9752 660.261 99.5 660.261C101.025 660.261 102.261 659.025 102.261 657.5Z" fill="#6E6E6E"/>
        <path d="M99.3422 654.739V564.022" stroke="#737373" strokeWidth="0.4"/>
        <path d="M102.261 561.261C102.261 559.736 101.025 558.5 99.5 558.5C97.9752 558.5 96.739 559.736 96.739 561.261C96.739 562.786 97.9752 564.022 99.5 564.022C101.025 564.022 102.261 562.786 102.261 561.261Z" fill="#6E6E6E"/>
        <path d="M99.5 564.022C101.025 564.022 102.261 562.786 102.261 561.261C102.261 559.736 101.025 558.5 99.5 558.5C97.9752 558.5 96.739 559.736 96.739 561.261C96.739 562.786 97.9752 564.022 99.5 564.022Z" fill="#6E6E6E"/>
        <path d="M102.261 561.103H192.978" stroke="#737373" strokeWidth="0.4"/>
        <path d="M195.739 564.022C197.264 564.022 198.5 562.786 198.5 561.261C198.5 559.736 197.264 558.5 195.739 558.5C194.214 558.5 192.978 559.736 192.978 561.261C192.978 562.786 194.214 564.022 195.739 564.022Z" fill="#6E6E6E"/>
        <path d="M99.5 660.261C101.025 660.261 102.261 659.025 102.261 657.5C102.261 655.975 101.025 654.739 99.5 654.739C97.9752 654.739 96.739 655.975 96.739 657.5C96.739 659.025 97.9752 660.261 99.5 660.261Z" fill="#6E6E6E"/>
        <path d="M102.261 657.342H192.978" stroke="#737373" strokeWidth="0.4"/>
        <path d="M195.739 660.261C197.264 660.261 198.5 659.025 198.5 657.5C198.5 655.975 197.264 654.739 195.739 654.739C194.214 654.739 192.978 655.975 192.978 657.5C192.978 659.025 194.214 660.261 195.739 660.261Z" fill="#6E6E6E"/>
        <path d="M102.261 657.5C102.261 655.975 101.025 654.739 99.5 654.739C97.9752 654.739 96.739 655.975 96.739 657.5C96.739 659.025 97.9752 660.261 99.5 660.261C101.025 660.261 102.261 659.025 102.261 657.5Z" fill="#6E6E6E"/>
        <path d="M99.3422 654.739V564.022" stroke="#737373" strokeWidth="0.4"/>
        <path d="M102.261 561.261C102.261 559.736 101.025 558.5 99.5 558.5C97.9752 558.5 96.739 559.736 96.739 561.261C96.739 562.786 97.9752 564.022 99.5 564.022C101.025 564.022 102.261 562.786 102.261 561.261Z" fill="#6E6E6E"/>
        <path d="M198.5 657.5C198.5 655.975 197.264 654.739 195.739 654.739C194.214 654.739 192.978 655.975 192.978 657.5C192.978 659.025 194.214 660.261 195.739 660.261C197.264 660.261 198.5 659.025 198.5 657.5Z" fill="#6E6E6E"/>
        <path d="M195.581 654.739V564.022" stroke="#737373" strokeWidth="0.4"/>
        <path d="M198.5 561.261C198.5 559.736 197.264 558.5 195.739 558.5C194.214 558.5 192.978 559.736 192.978 561.261C192.978 562.786 194.214 564.022 195.739 564.022C197.264 564.022 198.5 562.786 198.5 561.261Z" fill="#6E6E6E"/>
        <path d="M99.5 660.261C101.025 660.261 102.261 659.025 102.261 657.5C102.261 655.975 101.025 654.739 99.5 654.739C97.9752 654.739 96.739 655.975 96.739 657.5C96.739 659.025 97.9752 660.261 99.5 660.261Z" fill="#6E6E6E"/>
        <path d="M102.261 657.342H192.978" stroke="#737373" strokeWidth="0.4"/>
        <path d="M195.739 660.261C197.264 660.261 198.5 659.025 198.5 657.5C198.5 655.975 197.264 654.739 195.739 654.739C194.214 654.739 192.978 655.975 192.978 657.5C192.978 659.025 194.214 660.261 195.739 660.261Z" fill="#6E6E6E"/>
        <path d="M99.5 756.5C101.025 756.5 102.261 755.264 102.261 753.739C102.261 752.214 101.025 750.978 99.5 750.978C97.9752 750.978 96.739 752.214 96.739 753.739C96.739 755.264 97.9752 756.5 99.5 756.5Z" fill="#6E6E6E"/>
        <path d="M102.261 753.581H192.978" stroke="#737373" strokeWidth="0.4"/>
        <path d="M195.739 756.5C197.264 756.5 198.5 755.264 198.5 753.739C198.5 752.214 197.264 750.978 195.739 750.978C194.214 750.978 192.978 752.214 192.978 753.739C192.978 755.264 194.214 756.5 195.739 756.5Z" fill="#6E6E6E"/>
        <path d="M102.261 753.739C102.261 752.214 101.025 750.978 99.5 750.978C97.9752 750.978 96.739 752.214 96.739 753.739C96.739 755.264 97.9752 756.5 99.5 756.5C101.025 756.5 102.261 755.264 102.261 753.739Z" fill="#6E6E6E"/>
        <path d="M99.3422 750.978V660.261" stroke="#737373" strokeWidth="0.4"/>
        <path d="M102.261 657.5C102.261 655.975 101.025 654.739 99.5 654.739C97.9752 654.739 96.739 655.975 96.739 657.5C96.739 659.025 97.9752 660.261 99.5 660.261C101.025 660.261 102.261 659.025 102.261 657.5Z" fill="#6E6E6E"/>
        <path d="M198.5 753.739C198.5 752.214 197.264 750.978 195.739 750.978C194.214 750.978 192.978 752.214 192.978 753.739C192.978 755.264 194.214 756.5 195.739 756.5C197.264 756.5 198.5 755.264 198.5 753.739Z" fill="#6E6E6E"/>
        <path d="M195.581 750.978V660.261" stroke="#737373" strokeWidth="0.4"/>
        <path d="M198.5 657.5C198.5 655.975 197.264 654.739 195.739 654.739C194.214 654.739 192.978 655.975 192.978 657.5C192.978 659.025 194.214 660.261 195.739 660.261C197.264 660.261 198.5 659.025 198.5 657.5Z" fill="#6E6E6E"/>
        <path d="M3.26096 660.261C4.78579 660.261 6.02191 659.025 6.02191 657.5C6.02191 655.975 4.78579 654.739 3.26096 654.739C1.73612 654.739 0.5 655.975 0.5 657.5C0.5 659.025 1.73612 660.261 3.26096 660.261Z" fill="#6E6E6E"/>
        <path d="M6.02191 657.342H96.739" stroke="#737373" strokeWidth="0.4"/>
        <path d="M99.5 660.261C101.025 660.261 102.261 659.025 102.261 657.5C102.261 655.975 101.025 654.739 99.5 654.739C97.9752 654.739 96.739 655.975 96.739 657.5C96.739 659.025 97.9752 660.261 99.5 660.261Z" fill="#6E6E6E"/>
        <path d="M3.26096 756.5C4.78579 756.5 6.02191 755.264 6.02191 753.739C6.02191 752.214 4.78579 750.978 3.26096 750.978C1.73612 750.978 0.5 752.214 0.5 753.739C0.5 755.264 1.73612 756.5 3.26096 756.5Z" fill="#6E6E6E"/>
        <path d="M6.02191 753.581H96.739" stroke="#737373" strokeWidth="0.4"/>
        <path d="M99.5 756.5C101.025 756.5 102.261 755.264 102.261 753.739C102.261 752.214 101.025 750.978 99.5 750.978C97.9752 750.978 96.739 752.214 96.739 753.739C96.739 755.264 97.9752 756.5 99.5 756.5Z" fill="#6E6E6E"/>
        <path d="M6.02191 753.739C6.02191 752.214 4.78579 750.978 3.26096 750.978C1.73612 750.978 0.5 752.214 0.5 753.739C0.5 755.264 1.73612 756.5 3.26096 756.5C4.78579 756.5 6.02191 755.264 6.02191 753.739Z" fill="#6E6E6E"/>
        <path d="M3.1032 750.978V660.261" stroke="#737373" strokeWidth="0.4"/>
        <path d="M6.02191 657.5C6.02191 655.975 4.78579 654.739 3.26096 654.739C1.73612 654.739 0.5 655.975 0.5 657.5C0.5 659.025 1.73612 660.261 3.26096 660.261C4.78579 660.261 6.02191 659.025 6.02191 657.5Z" fill="#6E6E6E"/>
        <path d="M102.261 753.739C102.261 752.214 101.025 750.978 99.5 750.978C97.9752 750.978 96.739 752.214 96.739 753.739C96.739 755.264 97.9752 756.5 99.5 756.5C101.025 756.5 102.261 755.264 102.261 753.739Z" fill="#6E6E6E"/>
        <path d="M99.3422 750.978V660.261" stroke="#737373" strokeWidth="0.4"/>
        <path d="M102.261 657.5C102.261 655.975 101.025 654.739 99.5 654.739C97.9752 654.739 96.739 655.975 96.739 657.5C96.739 659.025 97.9752 660.261 99.5 660.261C101.025 660.261 102.261 659.025 102.261 657.5Z" fill="#6E6E6E"/>
        <path d="M195.761 564.022C197.286 564.022 198.522 562.786 198.522 561.261C198.522 559.736 197.286 558.5 195.761 558.5C194.236 558.5 193 559.736 193 561.261C193 562.786 194.236 564.022 195.761 564.022Z" fill="#6E6E6E"/>
        <path d="M198.522 561.103H289.239" stroke="#737373" strokeWidth="0.4"/>
        <path d="M292 564.022C293.525 564.022 294.761 562.786 294.761 561.261C294.761 559.736 293.525 558.5 292 558.5C290.475 558.5 289.239 559.736 289.239 561.261C289.239 562.786 290.475 564.022 292 564.022Z" fill="#6E6E6E"/>
        <path d="M195.761 660.261C197.286 660.261 198.522 659.025 198.522 657.5C198.522 655.975 197.286 654.739 195.761 654.739C194.236 654.739 193 655.975 193 657.5C193 659.025 194.236 660.261 195.761 660.261Z" fill="#6E6E6E"/>
        <path d="M198.522 657.342H289.239" stroke="#737373" strokeWidth="0.4"/>
        <path d="M292 660.261C293.525 660.261 294.761 659.025 294.761 657.5C294.761 655.975 293.525 654.739 292 654.739C290.475 654.739 289.239 655.975 289.239 657.5C289.239 659.025 290.475 660.261 292 660.261Z" fill="#6E6E6E"/>
        <path d="M198.522 657.5C198.522 655.975 197.286 654.739 195.761 654.739C194.236 654.739 193 655.975 193 657.5C193 659.025 194.236 660.261 195.761 660.261C197.286 660.261 198.522 659.025 198.522 657.5Z" fill="#6E6E6E"/>
        <path d="M195.603 654.739V564.022" stroke="#737373" strokeWidth="0.4"/>
        <path d="M198.522 561.261C198.522 559.736 197.286 558.5 195.761 558.5C194.236 558.5 193 559.736 193 561.261C193 562.786 194.236 564.022 195.761 564.022C197.286 564.022 198.522 562.786 198.522 561.261Z" fill="#6E6E6E"/>
        <path d="M294.761 657.5C294.761 655.975 293.525 654.739 292 654.739C290.475 654.739 289.239 655.975 289.239 657.5C289.239 659.025 290.475 660.261 292 660.261C293.525 660.261 294.761 659.025 294.761 657.5Z" fill="#6E6E6E"/>
        <path d="M291.842 654.739V564.022" stroke="#737373" strokeWidth="0.4"/>
        <path d="M294.761 561.261C294.761 559.736 293.525 558.5 292 558.5C290.475 558.5 289.239 559.736 289.239 561.261C289.239 562.786 290.475 564.022 292 564.022C293.525 564.022 294.761 562.786 294.761 561.261Z" fill="#6E6E6E"/>
        <path d="M292 564.022C293.525 564.022 294.761 562.786 294.761 561.261C294.761 559.736 293.525 558.5 292 558.5C290.475 558.5 289.239 559.736 289.239 561.261C289.239 562.786 290.475 564.022 292 564.022Z" fill="#6E6E6E"/>
        <path d="M294.761 561.103H385.478" stroke="#737373" strokeWidth="0.4"/>
        <path d="M388.239 564.022C389.764 564.022 391 562.786 391 561.261C391 559.736 389.764 558.5 388.239 558.5C386.714 558.5 385.478 559.736 385.478 561.261C385.478 562.786 386.714 564.022 388.239 564.022Z" fill="#6E6E6E"/>
        <path d="M292 660.261C293.525 660.261 294.761 659.025 294.761 657.5C294.761 655.975 293.525 654.739 292 654.739C290.475 654.739 289.239 655.975 289.239 657.5C289.239 659.025 290.475 660.261 292 660.261Z" fill="#6E6E6E"/>
        <path d="M294.761 657.342H385.478" stroke="#737373" strokeWidth="0.4"/>
        <path d="M388.239 660.261C389.764 660.261 391 659.025 391 657.5C391 655.975 389.764 654.739 388.239 654.739C386.714 654.739 385.478 655.975 385.478 657.5C385.478 659.025 386.714 660.261 388.239 660.261Z" fill="#6E6E6E"/>
        <path d="M294.761 657.5C294.761 655.975 293.525 654.739 292 654.739C290.475 654.739 289.239 655.975 289.239 657.5C289.239 659.025 290.475 660.261 292 660.261C293.525 660.261 294.761 659.025 294.761 657.5Z" fill="#6E6E6E"/>
        <path d="M291.842 654.739V564.022" stroke="#737373" strokeWidth="0.4"/>
        <path d="M294.761 561.261C294.761 559.736 293.525 558.5 292 558.5C290.475 558.5 289.239 559.736 289.239 561.261C289.239 562.786 290.475 564.022 292 564.022C293.525 564.022 294.761 562.786 294.761 561.261Z" fill="#6E6E6E"/>
        <path d="M391 657.5C391 655.975 389.764 654.739 388.239 654.739C386.714 654.739 385.478 655.975 385.478 657.5C385.478 659.025 386.714 660.261 388.239 660.261C389.764 660.261 391 659.025 391 657.5Z" fill="#6E6E6E"/>
        <path d="M388.081 654.739V564.022" stroke="#737373" strokeWidth="0.4"/>
        <path d="M391 561.261C391 559.736 389.764 558.5 388.239 558.5C386.714 558.5 385.478 559.736 385.478 561.261C385.478 562.786 386.714 564.022 388.239 564.022C389.764 564.022 391 562.786 391 561.261Z" fill="#6E6E6E"/>
        <path d="M292 660.261C293.525 660.261 294.761 659.025 294.761 657.5C294.761 655.975 293.525 654.739 292 654.739C290.475 654.739 289.239 655.975 289.239 657.5C289.239 659.025 290.475 660.261 292 660.261Z" fill="#6E6E6E"/>
        <path d="M294.761 657.342H385.478" stroke="#737373" strokeWidth="0.4"/>
        <path d="M388.239 660.261C389.764 660.261 391 659.025 391 657.5C391 655.975 389.764 654.739 388.239 654.739C386.714 654.739 385.478 655.975 385.478 657.5C385.478 659.025 386.714 660.261 388.239 660.261Z" fill="#6E6E6E"/>
        <path d="M292 756.5C293.525 756.5 294.761 755.264 294.761 753.739C294.761 752.214 293.525 750.978 292 750.978C290.475 750.978 289.239 752.214 289.239 753.739C289.239 755.264 290.475 756.5 292 756.5Z" fill="#6E6E6E"/>
        <path d="M294.761 753.581H385.478" stroke="#737373" strokeWidth="0.4"/>
        <path d="M388.239 756.5C389.764 756.5 391 755.264 391 753.739C391 752.214 389.764 750.978 388.239 750.978C386.714 750.978 385.478 752.214 385.478 753.739C385.478 755.264 386.714 756.5 388.239 756.5Z" fill="#6E6E6E"/>
        <path d="M294.761 753.739C294.761 752.214 293.525 750.978 292 750.978C290.475 750.978 289.239 752.214 289.239 753.739C289.239 755.264 290.475 756.5 292 756.5C293.525 756.5 294.761 755.264 294.761 753.739Z" fill="#6E6E6E"/>
        <path d="M291.842 750.978V660.261" stroke="#737373" strokeWidth="0.4"/>
        <path d="M294.761 657.5C294.761 655.975 293.525 654.739 292 654.739C290.475 654.739 289.239 655.975 289.239 657.5C289.239 659.025 290.475 660.261 292 660.261C293.525 660.261 294.761 659.025 294.761 657.5Z" fill="#6E6E6E"/>
        <path d="M391 753.739C391 752.214 389.764 750.978 388.239 750.978C386.714 750.978 385.478 752.214 385.478 753.739C385.478 755.264 386.714 756.5 388.239 756.5C389.764 756.5 391 755.264 391 753.739Z" fill="#6E6E6E"/>
        <path d="M388.081 750.978V660.261" stroke="#737373" strokeWidth="0.4"/>
        <path d="M391 657.5C391 655.975 389.764 654.739 388.239 654.739C386.714 654.739 385.478 655.975 385.478 657.5C385.478 659.025 386.714 660.261 388.239 660.261C389.764 660.261 391 659.025 391 657.5Z" fill="#6E6E6E"/>
        <path d="M195.761 660.261C197.286 660.261 198.522 659.025 198.522 657.5C198.522 655.975 197.286 654.739 195.761 654.739C194.236 654.739 193 655.975 193 657.5C193 659.025 194.236 660.261 195.761 660.261Z" fill="#6E6E6E"/>
        <path d="M198.522 657.342H289.239" stroke="#737373" strokeWidth="0.4"/>
        <path d="M292 660.261C293.525 660.261 294.761 659.025 294.761 657.5C294.761 655.975 293.525 654.739 292 654.739C290.475 654.739 289.239 655.975 289.239 657.5C289.239 659.025 290.475 660.261 292 660.261Z" fill="#6E6E6E"/>
        <path d="M195.761 756.5C197.286 756.5 198.522 755.264 198.522 753.739C198.522 752.214 197.286 750.978 195.761 750.978C194.236 750.978 193 752.214 193 753.739C193 755.264 194.236 756.5 195.761 756.5Z" fill="#6E6E6E"/>
        <path d="M198.522 753.581H289.239" stroke="#737373" strokeWidth="0.4"/>
        <path d="M292 756.5C293.525 756.5 294.761 755.264 294.761 753.739C294.761 752.214 293.525 750.978 292 750.978C290.475 750.978 289.239 752.214 289.239 753.739C289.239 755.264 290.475 756.5 292 756.5Z" fill="#6E6E6E"/>
        <path d="M198.522 753.739C198.522 752.214 197.286 750.978 195.761 750.978C194.236 750.978 193 752.214 193 753.739C193 755.264 194.236 756.5 195.761 756.5C197.286 756.5 198.522 755.264 198.522 753.739Z" fill="#6E6E6E"/>
        <path d="M195.603 750.978V660.261" stroke="#737373" strokeWidth="0.4"/>
        <path d="M198.522 657.5C198.522 655.975 197.286 654.739 195.761 654.739C194.236 654.739 193 655.975 193 657.5C193 659.025 194.236 660.261 195.761 660.261C197.286 660.261 198.522 659.025 198.522 657.5Z" fill="#6E6E6E"/>
        <path d="M294.761 753.739C294.761 752.214 293.525 750.978 292 750.978C290.475 750.978 289.239 752.214 289.239 753.739C289.239 755.264 290.475 756.5 292 756.5C293.525 756.5 294.761 755.264 294.761 753.739Z" fill="#6E6E6E"/>
        <path d="M291.842 750.978V660.261" stroke="#737373" strokeWidth="0.4"/>
        <path d="M294.761 657.5C294.761 655.975 293.525 654.739 292 654.739C290.475 654.739 289.239 655.975 289.239 657.5C289.239 659.025 290.475 660.261 292 660.261C293.525 660.261 294.761 659.025 294.761 657.5Z" fill="#6E6E6E"/>
    </g>
    <defs>
        <clipPath id="clip0">
            <rect width="391" height="757" fill="white"/>
        </clipPath>
    </defs>
</svg>