<svg width="160" height="61" viewBox="0 0 160 61" fill="none" xmlns="http://www.w3.org/2000/svg">
<path d="M10.9065 23.0147C10.9065 23.1271 10.8747 23.2075 10.8112 23.2557C10.7477 23.2878 10.6683 23.2798 10.5731 23.2316L0.976044 18.8456C0.833161 18.7653 0.761719 18.6528 0.761719 18.5082V16.5562C0.761719 16.3956 0.833161 16.2831 0.976044 16.2188L10.5731 11.8329C10.6365 11.8007 10.6842 11.7847 10.716 11.7847C10.843 11.7847 10.9065 11.873 10.9065 12.0498V14.1463C10.9065 14.2909 10.835 14.4034 10.6921 14.4837L3.76228 17.4479C3.66702 17.4961 3.66702 17.5443 3.76228 17.5925L10.6921 20.5807C10.835 20.645 10.9065 20.7575 10.9065 20.9181V23.0147Z" fill="#393939"/>
<path d="M21.9851 24.2913C20.7944 24.2913 19.7466 24.0584 18.8417 23.5925C17.9367 23.1105 17.2382 22.4438 16.746 21.5923C16.2538 20.7408 16.0078 19.7527 16.0078 18.6281V12.6757C16.0078 11.5511 16.2538 10.5631 16.746 9.71158C17.2382 8.86007 17.9367 8.20142 18.8417 7.73549C19.7466 7.26957 20.7944 7.03662 21.9851 7.03662C23.1599 7.03662 24.1998 7.26155 25.1047 7.71139C26.0097 8.1612 26.7082 8.79583 27.2004 9.61519C27.6925 10.4345 27.9386 11.3825 27.9386 12.4588C27.9386 12.5392 27.9068 12.6115 27.8433 12.6757C27.7957 12.7239 27.7322 12.748 27.6528 12.748L25.4619 12.8685C25.2714 12.8685 25.1762 12.7802 25.1762 12.6034C25.1762 11.6555 24.8825 10.8924 24.2951 10.3141C23.7235 9.73568 22.9535 9.4465 21.9851 9.4465C21.0166 9.4465 20.2387 9.73568 19.6513 10.3141C19.0639 10.8924 18.7702 11.6555 18.7702 12.6034V18.7486C18.7702 19.6804 19.0639 20.4355 19.6513 21.0139C20.2387 21.5923 21.0166 21.8815 21.9851 21.8815C22.9535 21.8815 23.7235 21.6003 24.2951 21.038C24.8825 20.4596 25.1762 19.6965 25.1762 18.7486C25.1762 18.5719 25.2714 18.4835 25.4619 18.4835L27.6528 18.5799C27.7322 18.5799 27.7957 18.604 27.8433 18.6522C27.9068 18.7004 27.9386 18.7567 27.9386 18.8209C27.9386 19.9134 27.6925 20.8774 27.2004 21.7128C26.7082 22.5321 26.0097 23.1667 25.1047 23.6166C24.1998 24.0664 23.1599 24.2913 21.9851 24.2913ZM39.5216 24.3395C38.3309 24.3395 37.2752 24.0985 36.3544 23.6166C35.4336 23.1186 34.7192 22.4197 34.2111 21.52C33.719 20.6203 33.4729 19.584 33.4729 18.4112V12.9167C33.4729 11.76 33.7269 10.7398 34.2349 9.85618C34.743 8.95646 35.4494 8.26566 36.3544 7.78368C37.2752 7.28564 38.3309 7.03662 39.5216 7.03662C40.7282 7.03662 41.784 7.28564 42.6889 7.78368C43.6097 8.26566 44.3241 8.95646 44.8321 9.85618C45.3402 10.7398 45.5942 11.76 45.5942 12.9167V18.4112C45.5942 19.584 45.3402 20.6203 44.8321 21.52C44.3241 22.4197 43.6097 23.1186 42.6889 23.6166C41.784 24.0985 40.7282 24.3395 39.5216 24.3395ZM39.5216 21.9297C40.5218 21.9297 41.3235 21.6164 41.9268 20.9898C42.5301 20.3632 42.8318 19.5358 42.8318 18.5076V12.8926C42.8318 11.8483 42.5301 11.0129 41.9268 10.3863C41.3235 9.75978 40.5218 9.4465 39.5216 9.4465C38.5373 9.4465 37.7435 9.75978 37.1402 10.3863C36.5369 11.0129 36.2353 11.8483 36.2353 12.8926V18.5076C36.2353 19.5358 36.5369 20.3632 37.1402 20.9898C37.7435 21.6164 38.5373 21.9297 39.5216 21.9297ZM51.9309 24.0985C51.8515 24.0985 51.7801 24.0744 51.7166 24.0262C51.669 23.962 51.6452 23.8897 51.6452 23.8094V7.5186C51.6452 7.43826 51.669 7.374 51.7166 7.32581C51.7801 7.26155 51.8515 7.22941 51.9309 7.22941H57.7415C58.8687 7.22941 59.861 7.43024 60.7183 7.83188C61.5756 8.2335 62.2344 8.81187 62.6948 9.56699C63.1711 10.306 63.4092 11.1735 63.4092 12.1697V19.1583C63.4092 20.1544 63.1711 21.0299 62.6948 21.7851C62.2344 22.5241 61.5756 23.0945 60.7183 23.4961C59.861 23.8977 58.8687 24.0985 57.7415 24.0985H51.9309ZM54.4076 21.5682C54.4076 21.6485 54.4472 21.6887 54.5266 21.6887H57.8606C58.702 21.6887 59.3688 21.4236 59.861 20.8934C60.369 20.3472 60.631 19.6242 60.6468 18.7245V12.6275C60.6468 11.7118 60.3928 10.9888 59.8848 10.4586C59.3767 9.91243 58.6941 9.63929 57.8368 9.63929H54.5266C54.4472 9.63929 54.4076 9.67943 54.4076 9.75978V21.5682ZM80.6308 9.3501C80.6308 9.43046 80.5988 9.50275 80.5356 9.56699C80.4879 9.61519 80.4239 9.63929 80.3451 9.63929H72.2243C72.1449 9.63929 72.1053 9.67943 72.1053 9.75978V14.2662C72.1053 14.3466 72.1449 14.3867 72.2243 14.3867H77.6779C77.7568 14.3867 77.8208 14.4189 77.8684 14.4831C77.9317 14.5313 77.9637 14.5956 77.9637 14.6759V16.5074C77.9637 16.5878 77.9317 16.6601 77.8684 16.7243C77.8208 16.7725 77.7568 16.7966 77.6779 16.7966H72.2243C72.1449 16.7966 72.1053 16.8368 72.1053 16.9171V21.5682C72.1053 21.6485 72.1449 21.6887 72.2243 21.6887H80.3451C80.4239 21.6887 80.4879 21.7208 80.5356 21.7851C80.5988 21.8333 80.6308 21.8975 80.6308 21.9779V23.8094C80.6308 23.8897 80.5988 23.962 80.5356 24.0262C80.4879 24.0744 80.4239 24.0985 80.3451 24.0985H69.6286C69.5492 24.0985 69.4778 24.0744 69.4143 24.0262C69.3667 23.962 69.3429 23.8897 69.3429 23.8094V7.5186C69.3429 7.43826 69.3667 7.374 69.4143 7.32581C69.4778 7.26155 69.5492 7.22941 69.6286 7.22941H80.3451C80.4239 7.22941 80.4879 7.26155 80.5356 7.32581C80.5988 7.374 80.6308 7.43826 80.6308 7.5186V9.3501Z" fill="#393939"/>
<path d="M89.1892 31.1174C89.0939 31.1656 89.0939 31.2138 89.1892 31.262C90.8085 32.0332 91.6182 33.3586 91.6182 35.2383C91.6182 36.7646 91.1099 37.9293 90.0941 38.7326C89.0939 39.5198 87.7842 39.9135 86.1648 39.9135H80.1637C80.0841 39.9135 80.0126 39.8894 79.9494 39.8412C79.9017 39.777 79.8779 39.7047 79.8779 39.6243V23.3335C79.8779 23.2532 79.9017 23.1889 79.9494 23.1407C80.0126 23.0765 80.0841 23.0444 80.1637 23.0444H85.9743C87.7045 23.0444 89.0381 23.4219 89.975 24.177C90.912 24.9321 91.3801 26.0727 91.3801 27.599C91.3801 29.2859 90.65 30.4587 89.1892 31.1174ZM82.7594 25.4542C82.6798 25.4542 82.6403 25.4944 82.6403 25.5747V30.033C82.6403 30.1133 82.6798 30.1535 82.7594 30.1535H85.9743C86.816 30.1535 87.4746 29.9526 87.9509 29.551C88.4428 29.1333 88.6891 28.563 88.6891 27.84C88.6891 27.101 88.4428 26.5226 87.9509 26.1049C87.4746 25.6711 86.816 25.4542 85.9743 25.4542H82.7594ZM86.1648 37.4795C86.9901 37.4795 87.6413 37.2546 88.1176 36.8047C88.6095 36.3549 88.8558 35.7444 88.8558 34.9732C88.8558 34.186 88.6095 33.5755 88.1176 33.1417C87.6257 32.6919 86.9589 32.467 86.1172 32.467H82.7594C82.6798 32.467 82.6403 32.5071 82.6403 32.5875V37.359C82.6403 37.4394 82.6798 37.4795 82.7594 37.4795H86.1648ZM97.9542 39.9135C97.8753 39.9135 97.8039 39.8894 97.7399 39.8412C97.6923 39.777 97.6684 39.7047 97.6684 39.6243V23.3335C97.6684 23.2532 97.6923 23.1889 97.7399 23.1407C97.8039 23.0765 97.8753 23.0444 97.9542 23.0444H100.145C100.225 23.0444 100.288 23.0765 100.336 23.1407C100.4 23.1889 100.431 23.2532 100.431 23.3335V37.3831C100.431 37.4635 100.471 37.5036 100.55 37.5036H108.528C108.607 37.5036 108.67 37.5358 108.718 37.6C108.782 37.6482 108.813 37.7124 108.813 37.7928V39.6243C108.813 39.7047 108.782 39.777 108.718 39.8412C108.67 39.8894 108.607 39.9135 108.528 39.9135H97.9542ZM119.754 40.1545C118.564 40.1545 117.508 39.9135 116.587 39.4315C115.667 38.9335 114.952 38.2346 114.444 37.3349C113.952 36.4352 113.706 35.399 113.706 34.2262V28.7317C113.706 27.5749 113.959 26.5547 114.468 25.6711C114.976 24.7714 115.682 24.0806 116.587 23.5986C117.508 23.1006 118.564 22.8516 119.754 22.8516C120.961 22.8516 122.017 23.1006 122.922 23.5986C123.842 24.0806 124.557 24.7714 125.065 25.6711C125.573 26.5547 125.827 27.5749 125.827 28.7317V34.2262C125.827 35.399 125.573 36.4352 125.065 37.3349C124.557 38.2346 123.842 38.9335 122.922 39.4315C122.017 39.9135 120.961 40.1545 119.754 40.1545ZM119.754 37.7446C120.755 37.7446 121.556 37.4313 122.16 36.8047C122.763 36.1782 123.065 35.3508 123.065 34.3226V28.7076C123.065 27.6633 122.763 26.8279 122.16 26.2013C121.556 25.5747 120.755 25.2614 119.754 25.2614C118.77 25.2614 117.977 25.5747 117.373 26.2013C116.769 26.8279 116.468 27.6633 116.468 28.7076V34.3226C116.468 35.3508 116.769 36.1782 117.373 36.8047C117.977 37.4313 118.77 37.7446 119.754 37.7446ZM137.45 40.1063C136.26 40.1063 135.212 39.8733 134.307 39.4074C133.402 38.9254 132.703 38.2507 132.211 37.3831C131.719 36.5156 131.473 35.5195 131.473 34.3949V28.563C131.473 27.4223 131.719 26.4262 132.211 25.5747C132.703 24.7072 133.402 24.0405 134.307 23.5745C135.212 23.0926 136.26 22.8516 137.45 22.8516C138.625 22.8516 139.657 23.0845 140.546 23.5504C141.451 24.0164 142.15 24.6509 142.642 25.4542C143.134 26.2575 143.38 27.1652 143.38 28.1774V28.3702C143.38 28.4505 143.348 28.5228 143.285 28.5871C143.237 28.6353 143.174 28.6594 143.094 28.6594H140.927C140.848 28.6594 140.776 28.6353 140.713 28.5871C140.665 28.5228 140.641 28.4505 140.641 28.3702V28.2497C140.641 27.3821 140.348 26.6672 139.76 26.1049C139.189 25.5426 138.419 25.2614 137.45 25.2614C136.482 25.2614 135.704 25.5587 135.117 26.1531C134.529 26.7315 134.236 27.5026 134.236 28.4666V34.4913C134.236 35.4552 134.545 36.2344 135.164 36.8288C135.783 37.4072 136.585 37.6964 137.569 37.6964C138.522 37.6964 139.268 37.4474 139.808 36.9493C140.364 36.4352 140.641 35.7363 140.641 34.8527V33.3586C140.641 33.2783 140.602 33.2381 140.522 33.2381H137.593C137.514 33.2381 137.442 33.214 137.379 33.1658C137.331 33.1016 137.308 33.0293 137.308 32.9489V31.1656C137.308 31.0853 137.331 31.021 137.379 30.9728C137.442 30.9086 137.514 30.8764 137.593 30.8764H143.094C143.174 30.8764 143.237 30.9086 143.285 30.9728C143.348 31.021 143.38 31.0853 143.38 31.1656V34.2503C143.38 36.0978 142.841 37.5358 141.761 38.564C140.697 39.5921 139.26 40.1063 137.45 40.1063Z" fill="#393939"/>
<path d="M148.817 39.0462C148.754 39.0783 148.706 39.0944 148.674 39.0944C148.547 39.0944 148.483 39.006 148.483 38.8293V36.7327C148.483 36.5721 148.555 36.4596 148.698 36.3953L155.628 33.4071C155.723 33.3589 155.723 33.3107 155.628 33.2625L148.698 30.2983C148.555 30.218 148.483 30.1055 148.483 29.961V27.8644C148.483 27.7519 148.515 27.6796 148.579 27.6475C148.642 27.5993 148.722 27.5993 148.817 27.6475L158.414 32.0334C158.557 32.0977 158.628 32.2102 158.628 32.3708V34.3228C158.628 34.4674 158.557 34.5799 158.414 34.6602L148.817 39.0462Z" fill="#393939"/>
<path d="M89.1827 4.35596L72.0664 45.0226" stroke="#393939" stroke-width="3"/>
<path d="M40.536 52.0592C40.536 52.029 40.5449 52.0049 40.5628 51.9869C40.5866 51.9628 40.6134 51.9507 40.6431 51.9507H41.4647C41.4945 51.9507 41.5183 51.9628 41.5362 51.9869C41.56 52.0049 41.5719 52.029 41.5719 52.0592V58.1682C41.5719 58.1983 41.56 58.2254 41.5362 58.2495C41.5183 58.2676 41.4945 58.2766 41.4647 58.2766H40.6699C40.6104 58.2766 40.5687 58.2525 40.5449 58.2043L37.973 53.9389C37.9611 53.9208 37.9492 53.9148 37.9373 53.9208C37.9254 53.9208 37.9194 53.9328 37.9194 53.9569L37.9373 58.1682C37.9373 58.1983 37.9254 58.2254 37.9016 58.2495C37.8837 58.2676 37.8599 58.2766 37.8301 58.2766H37.0085C36.9788 58.2766 36.952 58.2676 36.9282 58.2495C36.9103 58.2254 36.9014 58.1983 36.9014 58.1682V52.0592C36.9014 52.029 36.9103 52.0049 36.9282 51.9869C36.952 51.9628 36.9788 51.9507 37.0085 51.9507H37.8033C37.8629 51.9507 37.9045 51.9748 37.9283 52.023L40.4913 56.2885C40.5032 56.3066 40.5151 56.3156 40.527 56.3156C40.5389 56.3096 40.5449 56.2945 40.5449 56.2704L40.536 52.0592ZM46.108 58.367C45.6615 58.367 45.2656 58.2766 44.9203 58.0959C44.575 57.9091 44.3071 57.6471 44.1165 57.3097C43.932 56.9723 43.8397 56.5837 43.8397 56.1439V54.0835C43.8397 53.6497 43.935 53.2671 44.1255 52.9358C44.316 52.5984 44.5809 52.3393 44.9203 52.1586C45.2656 51.9718 45.6615 51.8784 46.108 51.8784C46.5605 51.8784 46.9564 51.9718 47.2957 52.1586C47.641 52.3393 47.9089 52.5984 48.0994 52.9358C48.2899 53.2671 48.3852 53.6497 48.3852 54.0835V56.1439C48.3852 56.5837 48.2899 56.9723 48.0994 57.3097C47.9089 57.6471 47.641 57.9091 47.2957 58.0959C46.9564 58.2766 46.5605 58.367 46.108 58.367ZM46.108 57.4633C46.4831 57.4633 46.7837 57.3458 47.0099 57.1109C47.2362 56.8759 47.3493 56.5656 47.3493 56.18V54.0744C47.3493 53.6828 47.2362 53.3695 47.0099 53.1346C46.7837 52.8996 46.4831 52.7821 46.108 52.7821C45.7389 52.7821 45.4412 52.8996 45.215 53.1346C44.9887 53.3695 44.8756 53.6828 44.8756 54.0744V56.18C44.8756 56.5656 44.9887 56.8759 45.215 57.1109C45.4412 57.3458 45.7389 57.4633 46.108 57.4633ZM55.648 58.3489C55.2015 58.3489 54.8086 58.2616 54.4692 58.0869C54.1299 57.9061 53.8679 57.6561 53.6834 57.3368C53.4988 57.0175 53.4065 56.647 53.4065 56.2252V53.9931C53.4065 53.5714 53.4988 53.2008 53.6834 52.8815C53.8679 52.5622 54.1299 52.3152 54.4692 52.1405C54.8086 51.9658 55.2015 51.8784 55.648 51.8784C56.0886 51.8784 56.4785 51.9628 56.8179 52.1315C57.1572 52.3001 57.4192 52.5381 57.6037 52.8454C57.7883 53.1526 57.8806 53.5081 57.8806 53.9118C57.8806 53.9419 57.8687 53.969 57.8448 53.9931C57.827 54.0112 57.8032 54.0202 57.7734 54.0202L56.9518 54.0654C56.8804 54.0654 56.8447 54.0322 56.8447 53.966C56.8447 53.6105 56.7345 53.3243 56.5142 53.1075C56.2999 52.8906 56.0112 52.7821 55.648 52.7821C55.2848 52.7821 54.9931 52.8906 54.7728 53.1075C54.5526 53.3243 54.4424 53.6105 54.4424 53.966V56.2704C54.4424 56.6198 54.5526 56.903 54.7728 57.1199C54.9931 57.3368 55.2848 57.4452 55.648 57.4452C56.0112 57.4452 56.2999 57.3398 56.5142 57.1289C56.7345 56.912 56.8447 56.6259 56.8447 56.2704C56.8447 56.2041 56.8804 56.171 56.9518 56.171L57.7734 56.2072C57.8032 56.2072 57.827 56.2162 57.8448 56.2343C57.8687 56.2523 57.8806 56.2734 57.8806 56.2975C57.8806 56.7072 57.7883 57.0687 57.6037 57.382C57.4192 57.6892 57.1572 57.9272 56.8179 58.0959C56.4785 58.2646 56.0886 58.3489 55.648 58.3489ZM62.2242 58.367C61.7777 58.367 61.3818 58.2766 61.0365 58.0959C60.6912 57.9091 60.4233 57.6471 60.2328 57.3097C60.0482 56.9723 59.9559 56.5837 59.9559 56.1439V54.0835C59.9559 53.6497 60.0512 53.2671 60.2417 52.9358C60.4322 52.5984 60.6972 52.3393 61.0365 52.1586C61.3818 51.9718 61.7777 51.8784 62.2242 51.8784C62.6767 51.8784 63.0726 51.9718 63.4119 52.1586C63.7572 52.3393 64.0252 52.5984 64.2157 52.9358C64.4062 53.2671 64.5014 53.6497 64.5014 54.0835V56.1439C64.5014 56.5837 64.4062 56.9723 64.2157 57.3097C64.0252 57.6471 63.7572 57.9091 63.4119 58.0959C63.0726 58.2766 62.6767 58.367 62.2242 58.367ZM62.2242 57.4633C62.5993 57.4633 62.8999 57.3458 63.1262 57.1109C63.3524 56.8759 63.4655 56.5656 63.4655 56.18V54.0744C63.4655 53.6828 63.3524 53.3695 63.1262 53.1346C62.8999 52.8996 62.5993 52.7821 62.2242 52.7821C61.8551 52.7821 61.5574 52.8996 61.3312 53.1346C61.105 53.3695 60.9919 53.6828 60.9919 54.0744V56.18C60.9919 56.5656 61.105 56.8759 61.3312 57.1109C61.5574 57.3458 61.8551 57.4633 62.2242 57.4633ZM66.8777 58.2766C66.8479 58.2766 66.8211 58.2676 66.7973 58.2495C66.7795 58.2254 66.7705 58.1983 66.7705 58.1682V52.0592C66.7705 52.029 66.7795 52.0049 66.7973 51.9869C66.8211 51.9628 66.8479 51.9507 66.8777 51.9507H69.0567C69.4794 51.9507 69.8515 52.026 70.1729 52.1766C70.4944 52.3273 70.7415 52.5441 70.9142 52.8273C71.0928 53.1044 71.1821 53.4298 71.1821 53.8033V56.424C71.1821 56.7976 71.0928 57.1259 70.9142 57.4091C70.7415 57.6862 70.4944 57.9001 70.1729 58.0507C69.8515 58.2013 69.4794 58.2766 69.0567 58.2766H66.8777ZM67.8064 57.3277C67.8064 57.3579 67.8213 57.3729 67.8511 57.3729H69.1013C69.4169 57.3729 69.6669 57.2735 69.8515 57.0747C70.042 56.8699 70.1402 56.5988 70.1462 56.2614V53.975C70.1462 53.6316 70.0509 53.3605 69.8604 53.1617C69.6699 52.9568 69.4139 52.8544 69.0924 52.8544H67.8511C67.8213 52.8544 67.8064 52.8695 67.8064 52.8996V57.3277ZM77.6401 52.746C77.6401 52.7761 77.6282 52.8032 77.6044 52.8273C77.5865 52.8454 77.5627 52.8544 77.5329 52.8544H74.4877C74.458 52.8544 74.4431 52.8695 74.4431 52.8996V54.5895C74.4431 54.6196 74.458 54.6347 74.4877 54.6347H76.5328C76.5625 54.6347 76.5863 54.6468 76.6042 54.6709C76.628 54.6889 76.6399 54.713 76.6399 54.7432V55.43C76.6399 55.4601 76.628 55.4872 76.6042 55.5113C76.5863 55.5294 76.5625 55.5384 76.5328 55.5384H74.4877C74.458 55.5384 74.4431 55.5535 74.4431 55.5836V57.3277C74.4431 57.3579 74.458 57.3729 74.4877 57.3729H77.5329C77.5627 57.3729 77.5865 57.385 77.6044 57.4091C77.6282 57.4272 77.6401 57.4513 77.6401 57.4814V58.1682C77.6401 58.1983 77.6282 58.2254 77.6044 58.2495C77.5865 58.2676 77.5627 58.2766 77.5329 58.2766H73.5143C73.4846 58.2766 73.4578 58.2676 73.434 58.2495C73.4161 58.2254 73.4072 58.1983 73.4072 58.1682V52.0592C73.4072 52.029 73.4161 52.0049 73.434 51.9869C73.4578 51.9628 73.4846 51.9507 73.5143 51.9507H77.5329C77.5627 51.9507 77.5865 51.9628 77.6044 51.9869C77.6282 52.0049 77.6401 52.029 77.6401 52.0592V52.746ZM79.7012 59.099C79.6298 59.099 79.597 59.0598 79.603 58.9815L79.9334 56.9572C79.9393 56.891 79.978 56.8578 80.0495 56.8578H80.7639C80.8413 56.8578 80.8711 56.897 80.8532 56.9753L80.3263 59.0086C80.3085 59.0689 80.2668 59.099 80.2013 59.099H79.7012ZM89.8266 52.0592C89.8266 52.029 89.8355 52.0049 89.8534 51.9869C89.8772 51.9628 89.904 51.9507 89.9338 51.9507H90.7553C90.7851 51.9507 90.8089 51.9628 90.8268 51.9869C90.8506 52.0049 90.8625 52.029 90.8625 52.0592V58.1682C90.8625 58.1983 90.8506 58.2254 90.8268 58.2495C90.8089 58.2676 90.7851 58.2766 90.7553 58.2766H89.9605C89.901 58.2766 89.8593 58.2525 89.8355 58.2043L87.2636 53.9389C87.2517 53.9208 87.2398 53.9148 87.2279 53.9208C87.216 53.9208 87.21 53.9328 87.21 53.9569L87.2279 58.1682C87.2279 58.1983 87.216 58.2254 87.1922 58.2495C87.1743 58.2676 87.1505 58.2766 87.1207 58.2766H86.2992C86.2694 58.2766 86.2426 58.2676 86.2188 58.2495C86.2009 58.2254 86.192 58.1983 86.192 58.1682V52.0592C86.192 52.029 86.2009 52.0049 86.2188 51.9869C86.2426 51.9628 86.2694 51.9507 86.2992 51.9507H87.0939C87.1535 51.9507 87.1952 51.9748 87.219 52.023L89.7819 56.2885C89.7939 56.3066 89.8058 56.3156 89.8177 56.3156C89.8296 56.3096 89.8355 56.2945 89.8355 56.2704L89.8266 52.0592ZM95.3983 58.367C94.9518 58.367 94.5559 58.2766 94.2106 58.0959C93.8653 57.9091 93.5974 57.6471 93.4069 57.3097C93.2223 56.9723 93.13 56.5837 93.13 56.1439V54.0835C93.13 53.6497 93.2253 53.2671 93.4158 52.9358C93.6063 52.5984 93.8713 52.3393 94.2106 52.1586C94.5559 51.9718 94.9518 51.8784 95.3983 51.8784C95.8508 51.8784 96.2467 51.9718 96.586 52.1586C96.9313 52.3393 97.1992 52.5984 97.3898 52.9358C97.5803 53.2671 97.6755 53.6497 97.6755 54.0835V56.1439C97.6755 56.5837 97.5803 56.9723 97.3898 57.3097C97.1992 57.6471 96.9313 57.9091 96.586 58.0959C96.2467 58.2766 95.8508 58.367 95.3983 58.367ZM95.3983 57.4633C95.7734 57.4633 96.074 57.3458 96.3003 57.1109C96.5265 56.8759 96.6396 56.5656 96.6396 56.18V54.0744C96.6396 53.6828 96.5265 53.3695 96.3003 53.1346C96.074 52.8996 95.7734 52.7821 95.3983 52.7821C95.0292 52.7821 94.7315 52.8996 94.5053 53.1346C94.2791 53.3695 94.1659 53.6828 94.1659 54.0744V56.18C94.1659 56.5656 94.2791 56.8759 94.5053 57.1109C94.7315 57.3458 95.0292 57.4633 95.3983 57.4633ZM102.956 58.2766C102.927 58.2766 102.9 58.2676 102.876 58.2495C102.858 58.2254 102.849 58.1983 102.849 58.1682V52.0592C102.849 52.029 102.858 52.0049 102.876 51.9869C102.9 51.9628 102.927 51.9507 102.956 51.9507H103.778C103.808 51.9507 103.831 51.9628 103.849 51.9869C103.873 52.0049 103.885 52.029 103.885 52.0592V57.3277C103.885 57.3579 103.9 57.3729 103.93 57.3729H106.921C106.951 57.3729 106.975 57.385 106.993 57.4091C107.017 57.4272 107.028 57.4513 107.028 57.4814V58.1682C107.028 58.1983 107.017 58.2254 106.993 58.2495C106.975 58.2676 106.951 58.2766 106.921 58.2766H102.956ZM109.174 58.2766C109.144 58.2766 109.117 58.2676 109.094 58.2495C109.076 58.2254 109.067 58.1983 109.067 58.1682V52.0592C109.067 52.029 109.076 52.0049 109.094 51.9869C109.117 51.9628 109.144 51.9507 109.174 51.9507H109.996C110.025 51.9507 110.049 51.9628 110.067 51.9869C110.091 52.0049 110.103 52.029 110.103 52.0592V58.1682C110.103 58.1983 110.091 58.2254 110.067 58.2495C110.049 58.2676 110.025 58.2766 109.996 58.2766H109.174ZM116.745 52.746C116.745 52.7761 116.733 52.8032 116.709 52.8273C116.691 52.8454 116.667 52.8544 116.637 52.8544H113.601C113.571 52.8544 113.556 52.8695 113.556 52.8996V54.5895C113.556 54.6196 113.571 54.6347 113.601 54.6347H115.646C115.676 54.6347 115.7 54.6468 115.718 54.6709C115.741 54.6889 115.753 54.713 115.753 54.7432V55.43C115.753 55.4601 115.741 55.4872 115.718 55.5113C115.7 55.5294 115.676 55.5384 115.646 55.5384H113.601C113.571 55.5384 113.556 55.5535 113.556 55.5836V58.1682C113.556 58.1983 113.545 58.2254 113.521 58.2495C113.503 58.2676 113.479 58.2766 113.449 58.2766H112.628C112.598 58.2766 112.571 58.2676 112.547 58.2495C112.529 58.2254 112.521 58.1983 112.521 58.1682V52.0592C112.521 52.029 112.529 52.0049 112.547 51.9869C112.571 51.9628 112.598 51.9507 112.628 51.9507H116.637C116.667 51.9507 116.691 51.9628 116.709 51.9869C116.733 52.0049 116.745 52.029 116.745 52.0592V52.746ZM122.902 52.746C122.902 52.7761 122.89 52.8032 122.866 52.8273C122.848 52.8454 122.825 52.8544 122.795 52.8544H119.75C119.72 52.8544 119.705 52.8695 119.705 52.8996V54.5895C119.705 54.6196 119.72 54.6347 119.75 54.6347H121.795C121.824 54.6347 121.848 54.6468 121.866 54.6709C121.89 54.6889 121.902 54.713 121.902 54.7432V55.43C121.902 55.4601 121.89 55.4872 121.866 55.5113C121.848 55.5294 121.824 55.5384 121.795 55.5384H119.75C119.72 55.5384 119.705 55.5535 119.705 55.5836V57.3277C119.705 57.3579 119.72 57.3729 119.75 57.3729H122.795C122.825 57.3729 122.848 57.385 122.866 57.4091C122.89 57.4272 122.902 57.4513 122.902 57.4814V58.1682C122.902 58.1983 122.89 58.2254 122.866 58.2495C122.848 58.2676 122.825 58.2766 122.795 58.2766H118.776C118.746 58.2766 118.72 58.2676 118.696 58.2495C118.678 58.2254 118.669 58.1983 118.669 58.1682V52.0592C118.669 52.029 118.678 52.0049 118.696 51.9869C118.72 51.9628 118.746 51.9507 118.776 51.9507H122.795C122.825 51.9507 122.848 51.9628 122.866 51.9869C122.89 52.0049 122.902 52.029 122.902 52.0592V52.746Z" fill="#393939"/>
</svg>
